<svg width="171" height="45" viewBox="0 0 171 45" fill="none" xmlns="http://www.w3.org/2000/svg">
<path d="M10 30.5209V14.5476H17.3412C18.4964 14.5476 19.4691 14.7073 20.2595 15.0268C21.0651 15.3463 21.673 15.795 22.0834 16.3731C22.509 16.9512 22.7218 17.6282 22.7218 18.404C22.7218 19.3624 22.5014 20.1534 22.0606 20.7772C21.635 21.4009 21.0043 21.8192 20.1683 22.0322L20.0999 21.5986C20.7991 21.766 21.407 22.0398 21.9238 22.4201C22.4406 22.7852 22.8434 23.234 23.1322 23.7665C23.4209 24.2989 23.5653 24.9074 23.5653 25.592C23.5653 26.4287 23.4133 27.1589 23.1094 27.7826C22.8054 28.3911 22.3722 28.9007 21.8098 29.3115C21.2626 29.7222 20.6243 30.0265 19.8947 30.2242C19.1804 30.422 18.4052 30.5209 17.5692 30.5209H10ZM14.5598 26.6416H17.4324C17.7212 26.6416 17.9644 26.596 18.162 26.5047C18.3596 26.3982 18.5116 26.2461 18.618 26.0484C18.7244 25.8354 18.7776 25.5844 18.7776 25.2953C18.7776 25.0367 18.7168 24.8237 18.5952 24.6564C18.4888 24.4738 18.3292 24.3369 18.1164 24.2457C17.9036 24.1392 17.6376 24.0859 17.3184 24.0859H14.5598V26.6416ZM14.5598 20.8H16.4977C16.8473 20.8 17.1285 20.7543 17.3412 20.6631C17.5692 20.5718 17.7288 20.4425 17.82 20.2751C17.9264 20.0926 17.9796 19.872 17.9796 19.6134C17.9796 19.2635 17.858 18.9821 17.6148 18.7691C17.3868 18.5409 16.9993 18.4268 16.4521 18.4268H14.5598V20.8Z" fill="black"/>
<path d="M34.4686 30.5209L29.5213 23.3557L23.1832 14.5476H29.0881L33.9215 21.6215L40.3735 30.5209H34.4686ZM34.2862 23.1047L30 21.3705L33.0412 17.3632C34.8882 14.9294 37.7675 13.5 40.8227 13.5L34.2862 23.1047Z" fill="black"/>
<path d="M29.1793 21.8953L33.4655 23.6295L30.1511 27.9968C28.4761 30.2039 25.8663 31.5 23.0972 31.5H22.6428L29.1793 21.8953Z" fill="black"/>
<path fill-rule="evenodd" clip-rule="evenodd" d="M53.1339 13.5H64.8928C65.7973 13.5 65.7973 15.6709 64.8928 15.6709H53.1339C52.2294 15.6709 52.2294 13.5 53.1339 13.5Z" fill="#48655D"/>
<path fill-rule="evenodd" clip-rule="evenodd" d="M55.5762 16.6656H66.1592C67.0637 16.6656 67.0637 18.8365 66.1592 18.8365H58.1089C57.9281 18.5652 57.6566 18.2938 57.3853 18.0224C56.8425 17.4797 56.2999 17.0275 55.5762 16.6656H55.5762Z" fill="#48655D"/>
<path fill-rule="evenodd" clip-rule="evenodd" d="M58.7422 19.8317H63.1744C64.0789 19.8317 64.0789 22.0026 63.1744 22.0026H59.5563C59.3754 21.279 59.1039 20.5554 58.7422 19.8317Z" fill="#48655D"/>
<path fill-rule="evenodd" clip-rule="evenodd" d="M59.6472 22.9975H65.617C66.6119 22.9975 66.6119 25.1684 65.617 25.1684H59.5566C59.6471 24.7161 59.7375 24.1735 59.7375 23.6307C59.7375 23.3594 59.7375 23.1784 59.6471 22.9975H59.6472Z" fill="#48655D"/>
<path fill-rule="evenodd" clip-rule="evenodd" d="M59.2852 26.1633H67.0642C67.9687 26.1633 67.9687 28.3342 67.0642 28.3342H58.1094C58.6521 27.701 59.0139 26.9774 59.2852 26.1633H59.2852Z" fill="#48655D"/>
<path fill-rule="evenodd" clip-rule="evenodd" d="M57.295 29.3291H64.893C65.7975 29.3291 65.7975 31.5 64.893 31.5H53.1341C53.0437 31.5 52.9532 31.5 52.8628 31.4096C54.4909 31.2287 56.0287 30.5051 57.295 29.3291L57.295 29.3291Z" fill="#48655D"/>
<path d="M56.6617 18.7461C55.3953 17.4797 53.6767 16.7562 51.7772 16.7562C49.8777 16.7562 48.1591 17.4798 46.8927 18.7461C45.7169 20.0125 44.9028 21.7311 44.9028 23.6305C44.9028 25.53 45.7169 27.2486 46.8927 28.515C48.1591 29.6908 49.8777 30.5049 51.7772 30.5049C53.6767 30.5049 55.3953 29.6908 56.6617 28.515C57.9281 27.2486 58.6516 25.53 58.6516 23.6305C58.6516 21.7311 57.9279 20.0124 56.6617 18.7461ZM53.5862 23.54C54.6716 24.3541 54.6716 25.7109 53.5862 26.525C53.3149 26.7059 53.0435 26.7963 52.6817 26.8867V27.5199C52.6817 27.9723 52.0485 27.9723 52.0485 27.5199V26.9772C51.9581 27.0676 51.7772 27.0676 51.5962 27.0676V27.5199C51.5962 27.9723 50.963 27.9723 50.963 27.5199V26.8868C50.6013 26.8868 50.2394 26.7059 49.9681 26.525C49.4253 26.0727 49.154 25.6205 49.154 24.9873C49.154 24.2636 50.4204 24.2636 50.4204 24.9873C50.4204 25.2586 50.6013 25.4396 50.7821 25.53C50.8726 25.6205 50.8726 25.6205 50.963 25.7109V24.0828C50.6917 23.9923 50.3298 23.9019 49.968 23.6304C48.8827 22.8164 48.8827 21.5499 49.968 20.7359C50.2394 20.4646 50.6012 20.3741 50.963 20.2835V19.6503C50.963 19.2886 51.5962 19.2886 51.5962 19.6503V20.1931H52.0485V19.6503C52.0485 19.2886 52.6817 19.2886 52.6817 19.6503V20.2835C53.0435 20.374 53.3149 20.5548 53.5862 20.7359C54.129 21.0976 54.4003 21.6404 54.4003 22.1831C54.4003 22.9972 53.1339 22.9972 53.1339 22.1831C53.1339 22.0023 52.953 21.8214 52.7722 21.6404L52.6817 21.5499V23.1781C52.953 23.1781 53.3149 23.359 53.5862 23.5398L53.5862 23.54ZM52.0485 21.3691H51.5962V22.9972C51.7771 22.9972 51.8675 22.9972 52.0485 23.0877V21.3691ZM52.6817 24.4445V25.6203C52.7721 25.6203 52.7721 25.6203 52.7721 25.5299C53.2245 25.2586 53.2245 24.8062 52.7721 24.4445L52.6817 24.4445ZM52.0485 25.8014V24.1732H51.5962V25.8014C51.7771 25.8918 51.9579 25.8918 52.0485 25.8014ZM50.9631 21.5502C50.8727 21.5502 50.8727 21.5502 50.7822 21.6407C50.3299 21.912 50.3299 22.4548 50.7822 22.7261C50.8727 22.7261 50.8727 22.8165 50.9631 22.8165V21.5501V21.5502Z" fill="#48655D"/>
<path d="M75.5883 14.8547V30H73.5807V14.8547H75.5883ZM81.9335 21.668V23.3115H75.1514V21.668H81.9335ZM82.9633 14.8547V16.4982H75.1514V14.8547H82.9633ZM87.509 14.8547V30H85.5014V14.8547H87.509ZM102.81 14.8547V30H100.792L93.1677 18.3186V30H91.1601V14.8547H93.1677L100.824 26.5673V14.8547H102.81ZM112.162 16.1965L107.148 30H105.099L110.872 14.8547H112.193L112.162 16.1965ZM116.364 30L111.34 16.1965L111.309 14.8547H112.63L118.424 30H116.364ZM116.104 24.3933V26.0368H107.595V24.3933H116.104ZM132.102 14.8547V30H130.084L122.46 18.3186V30H120.452V14.8547H122.46L130.116 26.5673V14.8547H132.102ZM144.803 25.1839H146.8C146.696 26.1409 146.422 26.9973 145.979 27.7532C145.535 28.509 144.907 29.1089 144.096 29.5527C143.284 29.9896 142.272 30.208 141.058 30.208C140.171 30.208 139.363 30.0416 138.635 29.7087C137.914 29.3759 137.293 28.9043 136.773 28.2941C136.253 27.6769 135.851 26.9383 135.566 26.0784C135.289 25.2116 135.15 24.2477 135.15 23.1867V21.6784C135.15 20.6174 135.289 19.6569 135.566 18.797C135.851 17.9302 136.256 17.1882 136.783 16.571C137.317 15.9538 137.959 15.4788 138.708 15.1459C139.457 14.8131 140.299 14.6466 141.235 14.6466C142.38 14.6466 143.347 14.8616 144.137 15.2916C144.928 15.7215 145.542 16.3179 145.979 17.0807C146.422 17.8366 146.696 18.7138 146.8 19.7124H144.803C144.706 19.0051 144.526 18.3983 144.262 17.8921C143.999 17.3789 143.624 16.9836 143.139 16.7062C142.653 16.4289 142.019 16.2902 141.235 16.2902C140.563 16.2902 139.97 16.4185 139.457 16.675C138.95 16.9316 138.524 17.2957 138.177 17.7672C137.837 18.2388 137.581 18.804 137.407 19.4628C137.234 20.1216 137.147 20.8532 137.147 21.6576V23.1867C137.147 23.9287 137.224 24.6256 137.376 25.2775C137.536 25.9294 137.775 26.5015 138.094 26.9938C138.413 27.4862 138.819 27.8745 139.311 28.1588C139.803 28.4362 140.386 28.5749 141.058 28.5749C141.911 28.5749 142.591 28.4397 143.097 28.1692C143.603 27.8988 143.985 27.5105 144.241 27.0042C144.505 26.498 144.692 25.8912 144.803 25.1839ZM159.158 28.3669V30H151.138V28.3669H159.158ZM151.544 14.8547V30H149.536V14.8547H151.544ZM158.097 21.3663V22.9995H151.138V21.3663H158.097ZM159.054 14.8547V16.4982H151.138V14.8547H159.054Z" fill="black"/>
</svg>
