<svg width="156" height="45" viewBox="0 0 156 45" fill="none" xmlns="http://www.w3.org/2000/svg">
<path d="M10 30.5209V14.5476H17.3412C18.4964 14.5476 19.4691 14.7073 20.2595 15.0268C21.0651 15.3463 21.673 15.795 22.0834 16.3731C22.509 16.9512 22.7218 17.6282 22.7218 18.404C22.7218 19.3624 22.5014 20.1534 22.0606 20.7772C21.635 21.4009 21.0043 21.8192 20.1683 22.0322L20.0999 21.5986C20.7991 21.766 21.407 22.0398 21.9238 22.4201C22.4406 22.7852 22.8434 23.234 23.1322 23.7665C23.4209 24.2989 23.5653 24.9074 23.5653 25.592C23.5653 26.4287 23.4133 27.1589 23.1094 27.7826C22.8054 28.3911 22.3722 28.9007 21.8098 29.3115C21.2626 29.7222 20.6243 30.0265 19.8947 30.2242C19.1804 30.422 18.4052 30.5209 17.5692 30.5209H10ZM14.5598 26.6416H17.4324C17.7212 26.6416 17.9644 26.596 18.162 26.5047C18.3596 26.3982 18.5116 26.2461 18.618 26.0484C18.7244 25.8354 18.7776 25.5844 18.7776 25.2953C18.7776 25.0367 18.7168 24.8237 18.5952 24.6564C18.4888 24.4738 18.3292 24.3369 18.1164 24.2457C17.9036 24.1392 17.6376 24.0859 17.3184 24.0859H14.5598V26.6416ZM14.5598 20.8H16.4977C16.8473 20.8 17.1285 20.7543 17.3412 20.6631C17.5692 20.5718 17.7288 20.4425 17.82 20.2751C17.9264 20.0926 17.9796 19.872 17.9796 19.6134C17.9796 19.2635 17.858 18.9821 17.6148 18.7691C17.3868 18.5409 16.9993 18.4268 16.4521 18.4268H14.5598V20.8Z" fill="black"/>
<path d="M34.4686 30.5209L29.5213 23.3557L23.1832 14.5476H29.0881L33.9215 21.6215L40.3735 30.5209H34.4686ZM34.2862 23.1047L30 21.3705L33.0412 17.3632C34.8882 14.9294 37.7675 13.5 40.8227 13.5L34.2862 23.1047Z" fill="black"/>
<path d="M29.1793 21.8953L33.4655 23.6295L30.1511 27.9968C28.4761 30.2039 25.8663 31.5 23.0972 31.5H22.6428L29.1793 21.8953Z" fill="black"/>
<path d="M45.1288 24.8658C45.6688 24.6679 46.2268 24.569 46.8208 24.569C48.0268 24.569 49.0798 24.9468 49.9798 25.7024L47.1538 28.527C46.1998 27.4475 45.5248 26.2152 45.1288 24.8658ZM57.0268 20.521C58.7998 21.8433 60.7168 22.1672 62.7688 21.4925C62.7958 21.6814 62.8228 22.0232 62.8228 22.5C62.8228 23.4265 62.5978 24.461 62.1748 25.6035C61.7518 26.7369 61.2298 27.6544 60.6178 28.3471L54.9208 22.6709L57.0268 20.521ZM50.9158 26.6739C51.8698 28.0502 52.0678 29.5525 51.5008 31.1897C50.2228 30.8209 49.0798 30.2452 48.1258 29.4536L50.9158 26.6739ZM53.9938 23.5975L59.6728 29.2916C57.7198 31.0008 55.4248 31.7204 52.8148 31.4416C53.0038 30.8479 53.1028 30.2002 53.1028 29.4985C53.1028 28.9408 52.9768 28.2841 52.7248 27.5375C52.4728 26.7909 52.1758 26.1792 51.8428 25.7024L53.9938 23.5975ZM50.9518 24.7489C50.1148 24.0023 49.1428 23.5345 48.0448 23.3186C46.9468 23.1117 45.8938 23.1747 44.8768 23.5165C44.8498 23.3186 44.8228 22.9768 44.8228 22.5C44.8228 21.5735 45.0478 20.539 45.4708 19.3965C45.8938 18.2631 46.4158 17.3456 47.0278 16.6529L53.0218 22.6709L50.9518 24.7489ZM57.0268 18.6589C55.8208 17.1746 55.5418 15.5554 56.1898 13.8103C56.7478 13.9542 57.3868 14.2241 58.1068 14.6379C58.8178 15.0427 59.4028 15.4475 59.8528 15.8343L57.0268 18.6589ZM62.5168 20.1432C61.9768 20.3321 61.4188 20.431 60.8248 20.431C59.8438 20.431 58.8988 20.1432 57.9988 19.5495L60.7798 16.8058C61.5718 17.7953 62.1478 18.9018 62.5168 20.1432ZM53.9938 21.6994L47.9728 15.7084C49.9258 13.9992 52.2208 13.2796 54.8398 13.5584C54.6418 14.1521 54.5428 14.7998 54.5428 15.5015C54.5428 16.1491 54.6868 16.8778 54.9838 17.6964C55.2808 18.506 55.6228 19.1537 56.0728 19.6304L53.9938 21.6994Z" fill="#E12F18"/>
<path d="M76.6526 26.1721C76.6526 25.8184 76.5972 25.5063 76.4862 25.2359C76.3822 24.9585 76.195 24.7088 75.9245 24.4869C75.661 24.265 75.2934 24.0535 74.8219 23.8524C74.3573 23.6513 73.7678 23.4467 73.0536 23.2387C72.3046 23.0168 71.6285 22.7706 71.0252 22.5002C70.4218 22.2228 69.9052 21.9072 69.4753 21.5536C69.0453 21.1999 68.7159 20.7942 68.4871 20.3365C68.2582 19.8789 68.1438 19.3553 68.1438 18.7658C68.1438 18.1764 68.2652 17.632 68.5079 17.1327C68.7506 16.6334 69.0973 16.2 69.5481 15.8325C70.0058 15.458 70.5501 15.1667 71.1812 14.9587C71.8122 14.7507 72.5161 14.6466 73.2928 14.6466C74.4301 14.6466 75.394 14.8651 76.1846 15.302C76.982 15.7319 77.5888 16.2971 78.0049 16.9975C78.421 17.691 78.629 18.433 78.629 19.2235H76.6318C76.6318 18.6549 76.5105 18.1521 76.2678 17.7152C76.0251 17.2714 75.6575 16.9247 75.1652 16.675C74.6728 16.4185 74.0487 16.2902 73.2928 16.2902C72.5785 16.2902 71.9891 16.3977 71.5245 16.6126C71.0598 16.8276 70.7131 17.1189 70.4843 17.4864C70.2623 17.8539 70.1514 18.2735 70.1514 18.745C70.1514 19.064 70.2173 19.3553 70.349 19.6188C70.4877 19.8754 70.6992 20.1146 70.9836 20.3365C71.2748 20.5585 71.6423 20.763 72.0862 20.9503C72.5369 21.1375 73.0744 21.3178 73.6985 21.4912C74.5584 21.7339 75.3004 22.0043 75.9245 22.3025C76.5486 22.6007 77.0618 22.937 77.464 23.3115C77.8731 23.6791 78.1748 24.0986 78.369 24.5702C78.5701 25.0348 78.6706 25.5618 78.6706 26.1513C78.6706 26.7684 78.5458 27.3267 78.2962 27.826C78.0465 28.3253 77.6894 28.7518 77.2248 29.1054C76.7601 29.4591 76.2019 29.733 75.55 29.9272C74.9051 30.1144 74.1839 30.208 73.3864 30.208C72.686 30.208 71.996 30.111 71.3164 29.9168C70.6438 29.7226 70.03 29.4314 69.4753 29.043C68.9274 28.6547 68.4871 28.1762 68.1542 27.6075C67.8283 27.032 67.6653 26.3662 67.6653 25.6104H69.6625C69.6625 26.1305 69.7631 26.5777 69.9642 26.9522C70.1653 27.3198 70.4392 27.6249 70.7859 27.8676C71.1396 28.1103 71.5383 28.2906 71.9821 28.4085C72.4329 28.5194 72.901 28.5749 73.3864 28.5749C74.0868 28.5749 74.6797 28.4778 75.1652 28.2837C75.6506 28.0895 76.0181 27.8121 76.2678 27.4515C76.5244 27.0909 76.6526 26.6644 76.6526 26.1721ZM86.8154 24.0605H82.769V22.4273H86.8154C87.599 22.4273 88.2335 22.3025 88.719 22.0529C89.2044 21.8032 89.5581 21.4565 89.78 21.0127C90.0088 20.5689 90.1232 20.0626 90.1232 19.494C90.1232 18.9739 90.0088 18.485 89.78 18.0273C89.5581 17.5696 89.2044 17.2021 88.719 16.9247C88.2335 16.6404 87.599 16.4982 86.8154 16.4982H83.2371V30H81.2295V14.8547H86.8154C87.9596 14.8547 88.927 15.0523 89.7176 15.4476C90.5081 15.8429 91.108 16.3907 91.5171 17.0911C91.9262 17.7846 92.1308 18.5786 92.1308 19.4732C92.1308 20.444 91.9262 21.2727 91.5171 21.9593C91.108 22.6458 90.5081 23.1694 89.7176 23.53C88.927 23.8836 87.9596 24.0605 86.8154 24.0605ZM106.33 21.9489V22.9058C106.33 24.0431 106.187 25.0625 105.903 25.964C105.619 26.8655 105.21 27.6318 104.676 28.2629C104.142 28.8939 103.5 29.3759 102.751 29.7087C102.009 30.0416 101.177 30.208 100.255 30.208C99.3602 30.208 98.5385 30.0416 97.7895 29.7087C97.0475 29.3759 96.4026 28.8939 95.8547 28.2629C95.3138 27.6318 94.8943 26.8655 94.5961 25.964C94.2979 25.0625 94.1488 24.0431 94.1488 22.9058V21.9489C94.1488 20.8116 94.2944 19.7956 94.5857 18.9011C94.8839 17.9996 95.3034 17.2333 95.8443 16.6022C96.3852 15.9642 97.0267 15.4788 97.7687 15.1459C98.5176 14.8131 99.3394 14.6466 100.234 14.6466C101.156 14.6466 101.988 14.8131 102.73 15.1459C103.479 15.4788 104.121 15.9642 104.655 16.6022C105.196 17.2333 105.608 17.9996 105.893 18.9011C106.184 19.7956 106.33 20.8116 106.33 21.9489ZM104.343 22.9058V21.928C104.343 21.0265 104.249 20.2291 104.062 19.5356C103.882 18.8421 103.615 18.2596 103.261 17.7881C102.907 17.3165 102.474 16.9594 101.961 16.7166C101.454 16.4739 100.879 16.3526 100.234 16.3526C99.6099 16.3526 99.0447 16.4739 98.5385 16.7166C98.0392 16.9594 97.6092 17.3165 97.2486 17.7881C96.8949 18.2596 96.621 18.8421 96.4268 19.5356C96.2327 20.2291 96.1356 21.0265 96.1356 21.928V22.9058C96.1356 23.8143 96.2327 24.6187 96.4268 25.3191C96.621 26.0126 96.8984 26.5985 97.259 27.077C97.6265 27.5486 98.06 27.9057 98.5593 28.1484C99.0655 28.3912 99.6307 28.5125 100.255 28.5125C100.907 28.5125 101.486 28.3912 101.992 28.1484C102.498 27.9057 102.925 27.5486 103.271 27.077C103.625 26.5985 103.892 26.0126 104.072 25.3191C104.253 24.6187 104.343 23.8143 104.343 22.9058ZM109.336 14.8547H114.349C115.487 14.8547 116.447 15.0281 117.231 15.3748C118.021 15.7215 118.621 16.2347 119.03 16.9143C119.446 17.5869 119.655 18.4156 119.655 19.4004C119.655 20.0938 119.512 20.7284 119.228 21.3039C118.951 21.8726 118.548 22.358 118.021 22.7602C117.501 23.1555 116.877 23.4502 116.149 23.6444L115.587 23.8628H110.875L110.854 22.2297H114.412C115.133 22.2297 115.733 22.1049 116.211 21.8552C116.69 21.5987 117.051 21.2554 117.293 20.8254C117.536 20.3955 117.657 19.9205 117.657 19.4004C117.657 18.8179 117.543 18.3082 117.314 17.8713C117.085 17.4344 116.725 17.0981 116.232 16.8623C115.747 16.6196 115.119 16.4982 114.349 16.4982H111.343V30H109.336V14.8547ZM118.188 30L114.506 23.1347L116.596 23.1243L120.331 29.8752V30H118.188ZM127.227 14.8547V30H125.251V14.8547H127.227ZM132.095 14.8547V16.4982H120.393V14.8547H132.095ZM142.248 26.1721C142.248 25.8184 142.192 25.5063 142.081 25.2359C141.977 24.9585 141.79 24.7088 141.52 24.4869C141.256 24.265 140.888 24.0535 140.417 23.8524C139.952 23.6513 139.363 23.4467 138.649 23.2387C137.9 23.0168 137.223 22.7706 136.62 22.5002C136.017 22.2228 135.5 21.9072 135.07 21.5536C134.64 21.1999 134.311 20.7942 134.082 20.3365C133.853 19.8789 133.739 19.3553 133.739 18.7658C133.739 18.1764 133.86 17.632 134.103 17.1327C134.346 16.6334 134.692 16.2 135.143 15.8325C135.601 15.458 136.145 15.1667 136.776 14.9587C137.407 14.7507 138.111 14.6466 138.888 14.6466C140.025 14.6466 140.989 14.8651 141.78 15.302C142.577 15.7319 143.184 16.2971 143.6 16.9975C144.016 17.691 144.224 18.433 144.224 19.2235H142.227C142.227 18.6549 142.105 18.1521 141.863 17.7152C141.62 17.2714 141.253 16.9247 140.76 16.675C140.268 16.4185 139.644 16.2902 138.888 16.2902C138.174 16.2902 137.584 16.3977 137.119 16.6126C136.655 16.8276 136.308 17.1189 136.079 17.4864C135.857 17.8539 135.746 18.2735 135.746 18.745C135.746 19.064 135.812 19.3553 135.944 19.6188C136.083 19.8754 136.294 20.1146 136.579 20.3365C136.87 20.5585 137.237 20.763 137.681 20.9503C138.132 21.1375 138.669 21.3178 139.293 21.4912C140.153 21.7339 140.895 22.0043 141.52 22.3025C142.144 22.6007 142.657 22.937 143.059 23.3115C143.468 23.6791 143.77 24.0986 143.964 24.5702C144.165 25.0348 144.266 25.5618 144.266 26.1513C144.266 26.7684 144.141 27.3267 143.891 27.826C143.642 28.3253 143.284 28.7518 142.82 29.1054C142.355 29.4591 141.797 29.733 141.145 29.9272C140.5 30.1144 139.779 30.208 138.981 30.208C138.281 30.208 137.591 30.111 136.911 29.9168C136.239 29.7226 135.625 29.4314 135.07 29.043C134.522 28.6547 134.082 28.1762 133.749 27.6075C133.423 27.032 133.26 26.3662 133.26 25.6104H135.258C135.258 26.1305 135.358 26.5777 135.559 26.9522C135.76 27.3198 136.034 27.6249 136.381 27.8676C136.735 28.1103 137.133 28.2906 137.577 28.4085C138.028 28.5194 138.496 28.5749 138.981 28.5749C139.682 28.5749 140.275 28.4778 140.76 28.2837C141.246 28.0895 141.613 27.8121 141.863 27.4515C142.119 27.0909 142.248 26.6644 142.248 26.1721Z" fill="black"/>
</svg>
