<svg width="218" height="45" viewBox="0 0 218 45" fill="none" xmlns="http://www.w3.org/2000/svg">
  <path d="M10 30.5209V14.5476H17.3412C18.4964 14.5476 19.4691 14.7073 20.2595 15.0268C21.0651 15.3463 21.673 15.795 22.0834 16.3731C22.509 16.9512 22.7218 17.6282 22.7218 18.404C22.7218 19.3624 22.5014 20.1534 22.0606 20.7772C21.635 21.4009 21.0043 21.8192 20.1683 22.0322L20.0999 21.5986C20.7991 21.766 21.407 22.0398 21.9238 22.4201C22.4406 22.7852 22.8434 23.234 23.1322 23.7665C23.4209 24.2989 23.5653 24.9074 23.5653 25.592C23.5653 26.4287 23.4133 27.1589 23.1094 27.7826C22.8054 28.3911 22.3722 28.9007 21.8098 29.3115C21.2626 29.7222 20.6243 30.0265 19.8947 30.2242C19.1804 30.422 18.4052 30.5209 17.5692 30.5209H10ZM14.5598 26.6416H17.4324C17.7212 26.6416 17.9644 26.596 18.162 26.5047C18.3596 26.3982 18.5116 26.2461 18.618 26.0484C18.7244 25.8354 18.7776 25.5844 18.7776 25.2953C18.7776 25.0367 18.7168 24.8237 18.5952 24.6564C18.4888 24.4738 18.3292 24.3369 18.1164 24.2457C17.9036 24.1392 17.6376 24.0859 17.3184 24.0859H14.5598V26.6416ZM14.5598 20.8H16.4977C16.8473 20.8 17.1285 20.7543 17.3412 20.6631C17.5692 20.5718 17.7288 20.4425 17.82 20.2751C17.9264 20.0926 17.9796 19.872 17.9796 19.6134C17.9796 19.2635 17.858 18.9821 17.6148 18.7691C17.3868 18.5409 16.9993 18.4268 16.4521 18.4268H14.5598V20.8Z" fill="black"/>
  <path d="M34.4686 30.5209L29.5213 23.3557L23.1832 14.5476H29.0881L33.9215 21.6215L40.3735 30.5209H34.4686ZM34.2862 23.1047L30 21.3705L33.0412 17.3632C34.8882 14.9294 37.7675 13.5 40.8227 13.5L34.2862 23.1047Z" fill="black"/>
  <path d="M29.1793 21.8953L33.4655 23.6295L30.1511 27.9968C28.4761 30.2039 25.8663 31.5 23.0972 31.5H22.6428L29.1793 21.8953Z" fill="black"/>
  <path fill-rule="evenodd" clip-rule="evenodd" d="M60.2055 23.3686V28.7614H58.5193V23.3686H60.2055ZM53.6176 15.6071L61.7625 20.345H44.8828L53.0277 15.6071V12.7951C53.0277 12.6322 53.1596 12.5 53.3227 12.5C53.4856 12.5 53.6178 12.632 53.6178 12.7951V13.1268H55.703L55.1393 13.9491L55.7028 14.7715H53.6178L53.6176 15.6071ZM53.3226 17.3149C52.7335 17.3149 52.256 17.7925 52.256 18.3814C52.256 18.9703 52.7336 19.4479 53.3226 19.4479C53.9114 19.4479 54.3891 18.9704 54.3891 18.3814C54.3891 17.7926 53.9117 17.3149 53.3226 17.3149ZM61.7624 20.9355V21.3305C61.7624 21.532 61.598 21.6966 61.3963 21.6966L45.2489 21.6965C45.0474 21.6965 44.8828 21.532 44.8828 21.3304V20.9353L61.7624 20.9355ZM61.0511 22.2867V22.4269C61.0511 22.6206 60.8931 22.7785 60.6995 22.7785H58.0256C57.8319 22.7785 57.674 22.6205 57.674 22.4269V22.2867H61.0511ZM48.9713 22.2867V22.4269C48.9713 22.6206 48.8133 22.7785 48.6198 22.7785H45.9458C45.7521 22.7785 45.5942 22.6205 45.5942 22.4269V22.2867H48.9713ZM55.0114 22.2867V22.4269C55.0114 22.6206 54.8534 22.7785 54.6598 22.7785H51.9859C51.7922 22.7785 51.6343 22.6205 51.6343 22.4269V22.2867H55.0114ZM51.9857 29.3514H54.6597C54.8534 29.3514 55.0113 29.5094 55.0113 29.7029V30.1484C55.0113 30.342 54.8533 30.5 54.6597 30.5H51.9857C51.7922 30.5 51.6342 30.342 51.6342 30.1484V29.7029C51.634 29.5094 51.792 29.3514 51.9857 29.3514ZM45.9457 29.3514H48.6196C48.8133 29.3514 48.9712 29.5094 48.9712 29.7029V30.1484C48.9712 30.342 48.8132 30.5 48.6196 30.5H45.9457C45.7521 30.5 45.5941 30.342 45.5941 30.1484V29.7029C45.5941 29.5094 45.7521 29.3514 45.9457 29.3514ZM58.0255 29.3514H60.6994C60.8931 29.3514 61.051 29.5094 61.051 29.7029V30.1484C61.051 30.342 60.893 30.5 60.6994 30.5H58.0255C57.8319 30.5 57.6739 30.342 57.6739 30.1484V29.7029C57.6739 29.5094 57.832 29.3514 58.0255 29.3514ZM48.1258 23.3685V28.7614H46.4396V23.3685H48.1258ZM54.1658 23.3685V28.7614H52.4797V23.3685H54.1658Z" fill="#CF8C1B"/>
  <path d="M78.7732 22.4586V28.0028C78.586 28.2802 78.2878 28.5923 77.8787 28.939C77.4695 29.2788 76.9044 29.577 76.1831 29.8336C75.4689 30.0832 74.5466 30.208 73.4162 30.208C72.4939 30.208 71.6444 30.0485 70.8677 29.7295C70.098 29.4036 69.4288 28.9321 68.8601 28.3149C68.2984 27.6908 67.8615 26.9349 67.5495 26.0472C67.2444 25.1527 67.0918 24.1402 67.0918 23.0099V21.8344C67.0918 20.7041 67.2236 19.6951 67.4871 18.8074C67.7575 17.9198 68.1528 17.1674 68.6729 16.5502C69.193 15.9261 69.831 15.4545 70.5869 15.1355C71.3427 14.8096 72.2096 14.6466 73.1874 14.6466C74.3455 14.6466 75.3128 14.8478 76.0895 15.25C76.8731 15.6452 77.4834 16.1931 77.9203 16.8935C78.3641 17.5939 78.6484 18.3914 78.7732 19.2859H76.7657C76.6755 18.7381 76.4952 18.2388 76.2248 17.7881C75.9612 17.3373 75.5833 16.9767 75.0909 16.7062C74.5986 16.4289 73.9641 16.2902 73.1874 16.2902C72.487 16.2902 71.8802 16.4185 71.367 16.675C70.8539 16.9316 70.4308 17.2992 70.098 17.7777C69.7651 18.2561 69.5155 18.8352 69.349 19.5148C69.1895 20.1944 69.1098 20.9607 69.1098 21.8136V23.0099C69.1098 23.8836 69.2103 24.6638 69.4114 25.3503C69.6195 26.0368 69.9142 26.6228 70.2956 27.1082C70.677 27.5867 71.1312 27.9508 71.6583 28.2005C72.1922 28.4501 72.7817 28.5749 73.4266 28.5749C74.1409 28.5749 74.7199 28.516 75.1637 28.3981C75.6076 28.2733 75.9543 28.1276 76.2039 27.9612C76.4536 27.7878 76.6443 27.6249 76.7761 27.4723V24.0813H73.2706V22.4586H78.7732ZM93.7625 21.9489V22.9058C93.7625 24.0431 93.6204 25.0625 93.336 25.964C93.0517 26.8655 92.6426 27.6318 92.1086 28.2629C91.5746 28.8939 90.9332 29.3759 90.1842 29.7087C89.4422 30.0416 88.6101 30.208 87.6878 30.208C86.7932 30.208 85.9714 30.0416 85.2225 29.7087C84.4805 29.3759 83.8356 28.8939 83.2877 28.2629C82.7468 27.6318 82.3273 26.8655 82.0291 25.964C81.7309 25.0625 81.5818 24.0431 81.5818 22.9058V21.9489C81.5818 20.8116 81.7274 19.7956 82.0187 18.9011C82.3169 17.9996 82.7364 17.2333 83.2773 16.6022C83.8182 15.9642 84.4597 15.4788 85.2017 15.1459C85.9506 14.8131 86.7724 14.6466 87.667 14.6466C88.5893 14.6466 89.4214 14.8131 90.1634 15.1459C90.9124 15.4788 91.5538 15.9642 92.0878 16.6022C92.6287 17.2333 93.0413 17.9996 93.3256 18.9011C93.6169 19.7956 93.7625 20.8116 93.7625 21.9489ZM91.7757 22.9058V21.928C91.7757 21.0265 91.6821 20.2291 91.4949 19.5356C91.3146 18.8421 91.0476 18.2596 90.6939 17.7881C90.3403 17.3165 89.9069 16.9594 89.3937 16.7166C88.8875 16.4739 88.3119 16.3526 87.667 16.3526C87.0428 16.3526 86.4777 16.4739 85.9714 16.7166C85.4721 16.9594 85.0422 17.3165 84.6816 17.7881C84.3279 18.2596 84.054 18.8421 83.8598 19.5356C83.6657 20.2291 83.5686 21.0265 83.5686 21.928V22.9058C83.5686 23.8143 83.6657 24.6187 83.8598 25.3191C84.054 26.0126 84.3314 26.5985 84.692 27.077C85.0595 27.5486 85.4929 27.9057 85.9922 28.1484C86.4985 28.3912 87.0636 28.5125 87.6878 28.5125C88.3396 28.5125 88.9187 28.3912 89.4249 28.1484C89.9311 27.9057 90.3576 27.5486 90.7043 27.077C91.058 26.5985 91.325 26.0126 91.5053 25.3191C91.6856 24.6187 91.7757 23.8143 91.7757 22.9058ZM101.429 27.7012L105.891 14.8547H108.065L102.459 30H100.909L101.429 27.7012ZM97.2576 14.8547L101.678 27.7012L102.23 30H100.68L95.0836 14.8547H97.2576ZM119.726 28.3669V30H111.706V28.3669H119.726ZM112.112 14.8547V30H110.104V14.8547H112.112ZM118.665 21.3663V22.9995H111.706V21.3663H118.665ZM119.622 14.8547V16.4982H111.706V14.8547H119.622ZM122.212 14.8547H127.226C128.363 14.8547 129.323 15.0281 130.107 15.3748C130.898 15.7215 131.498 16.2347 131.907 16.9143C132.323 17.5869 132.531 18.4156 132.531 19.4004C132.531 20.0938 132.389 20.7284 132.104 21.3039C131.827 21.8726 131.425 22.358 130.898 22.7602C130.378 23.1555 129.753 23.4502 129.025 23.6444L128.464 23.8628H123.751L123.731 22.2297H127.288C128.009 22.2297 128.609 22.1049 129.088 21.8552C129.566 21.5987 129.927 21.2554 130.17 20.8254C130.412 20.3955 130.534 19.9205 130.534 19.4004C130.534 18.8179 130.419 18.3082 130.19 17.8713C129.961 17.4344 129.601 17.0981 129.109 16.8623C128.623 16.6196 127.996 16.4982 127.226 16.4982H124.22V30H122.212V14.8547ZM131.064 30L127.382 23.1347L129.473 23.1243L133.207 29.8752V30H131.064ZM146.99 14.8547V30H144.972L137.347 18.3186V30H135.339V14.8547H137.347L145.003 26.5673V14.8547H146.99ZM151.182 14.8547H153.127L158.088 27.2019L163.04 14.8547H164.995L158.837 30H157.319L151.182 14.8547ZM150.547 14.8547H152.263L152.544 24.0917V30H150.547V14.8547ZM163.903 14.8547H165.62V30H163.622V24.0917L163.903 14.8547ZM178.768 28.3669V30H170.748V28.3669H178.768ZM171.153 14.8547V30H169.146V14.8547H171.153ZM177.707 21.3663V22.9995H170.748V21.3663H177.707ZM178.664 14.8547V16.4982H170.748V14.8547H178.664ZM192.904 14.8547V30H190.886L183.261 18.3186V30H181.254V14.8547H183.261L190.917 26.5673V14.8547H192.904ZM201.746 14.8547V30H199.769V14.8547H201.746ZM206.614 14.8547V16.4982H194.912V14.8547H206.614Z" fill="black"/>
</svg>
