<svg width="257" height="45" viewBox="0 0 257 45" fill="none" xmlns="http://www.w3.org/2000/svg">
<path d="M10 30.5209V14.5476H17.3412C18.4964 14.5476 19.4691 14.7073 20.2595 15.0268C21.0651 15.3463 21.673 15.795 22.0834 16.3731C22.509 16.9512 22.7218 17.6282 22.7218 18.404C22.7218 19.3624 22.5014 20.1534 22.0606 20.7772C21.635 21.4009 21.0043 21.8192 20.1683 22.0322L20.0999 21.5986C20.7991 21.766 21.407 22.0398 21.9238 22.4201C22.4406 22.7852 22.8434 23.234 23.1322 23.7665C23.4209 24.2989 23.5653 24.9074 23.5653 25.592C23.5653 26.4287 23.4133 27.1589 23.1094 27.7826C22.8054 28.3911 22.3722 28.9007 21.8098 29.3115C21.2626 29.7222 20.6243 30.0265 19.8947 30.2242C19.1804 30.422 18.4052 30.5209 17.5692 30.5209H10ZM14.5598 26.6416H17.4324C17.7212 26.6416 17.9644 26.596 18.162 26.5047C18.3596 26.3982 18.5116 26.2461 18.618 26.0484C18.7244 25.8354 18.7776 25.5844 18.7776 25.2953C18.7776 25.0367 18.7168 24.8237 18.5952 24.6564C18.4888 24.4738 18.3292 24.3369 18.1164 24.2457C17.9036 24.1392 17.6376 24.0859 17.3184 24.0859H14.5598V26.6416ZM14.5598 20.8H16.4977C16.8473 20.8 17.1285 20.7543 17.3412 20.6631C17.5692 20.5718 17.7288 20.4425 17.82 20.2751C17.9264 20.0926 17.9796 19.872 17.9796 19.6134C17.9796 19.2635 17.858 18.9821 17.6148 18.7691C17.3868 18.5409 16.9993 18.4268 16.4521 18.4268H14.5598V20.8Z" fill="black"/>
<path d="M34.4686 30.5209L29.5213 23.3557L23.1832 14.5476H29.0881L33.9215 21.6215L40.3735 30.5209H34.4686ZM34.2862 23.1047L30 21.3705L33.0412 17.3632C34.8882 14.9294 37.7675 13.5 40.8227 13.5L34.2862 23.1047Z" fill="black"/>
<path d="M29.1793 21.8953L33.4655 23.6295L30.1511 27.9968C28.4761 30.2039 25.8663 31.5 23.0972 31.5H22.6428L29.1793 21.8953Z" fill="black"/>
<path fill-rule="evenodd" clip-rule="evenodd" d="M63.5269 14.5526C63.7698 14.6335 64.0127 14.7146 64.2556 14.7955L65.3082 14.3906L66.1989 15.1193L65.956 16.2529C66.118 16.4959 66.1989 16.6578 66.3609 16.9007L67.4945 17.2246L67.6565 18.4391L66.7658 19.1679C66.6849 19.4108 66.6849 19.6537 66.6038 19.8157L67.2516 20.8682L66.6848 21.8399H65.4703C65.3083 22.0019 65.1465 22.1637 64.9035 22.2448L64.7415 23.4593L63.689 23.8643L62.7983 23.0546H62.3934H62.0695L61.1788 23.8643L60.0452 23.4593L59.9643 22.2448C59.7214 22.1639 59.5594 22.0019 59.3975 21.8399H58.183L57.6162 20.8682L58.264 19.8157C58.1831 19.6537 58.102 19.4108 58.102 19.1679L57.1304 18.4391L57.3733 17.2246L58.5069 16.9007C58.5878 16.6578 58.7498 16.4958 58.8307 16.2529L58.5878 15.1193L59.4785 14.3906L60.6122 14.7955C60.8551 14.7146 61.0171 14.6335 61.26 14.5526L61.8267 13.5H63.0413L63.5271 14.5526H63.5269ZM62.3932 16.4959C63.6078 16.4959 64.5794 17.4675 64.5794 18.6821C64.5794 19.8966 63.6078 20.8683 62.3932 20.8683C61.2596 20.8683 60.288 19.8966 60.288 18.6821C60.288 17.4675 61.2596 16.4959 62.3932 16.4959Z" fill="#F1C901"/>
<path fill-rule="evenodd" clip-rule="evenodd" d="M53.6527 18.8685C53.9765 18.9494 54.3005 19.1114 54.6243 19.1923L56.0818 18.6256L57.2963 19.5972L56.9725 21.2167C57.1345 21.4596 57.2963 21.7834 57.4583 22.0263L58.9968 22.5121L59.2398 24.1316L57.9441 25.1032C57.9441 25.4271 57.8632 25.751 57.7822 26.0749L58.6729 27.4514L57.8632 28.828L56.2438 28.747C56.0008 28.909 55.7579 29.1519 55.515 29.3138L55.2721 30.9332L53.8146 31.5L52.6001 30.3664C52.4381 30.3664 52.2763 30.4473 52.1143 30.4473C51.9523 30.4473 51.7904 30.3664 51.6284 30.3664L50.4139 31.5L48.9564 30.9332L48.7135 29.3138C48.4706 29.1518 48.2277 28.9089 47.9848 28.666L46.3653 28.828L45.5557 27.4514L46.4464 26.0749C46.3655 25.7511 46.2844 25.4271 46.2844 25.1033L44.9888 24.1316L45.2317 22.5122L46.8511 22.0263C46.932 21.7834 47.094 21.4596 47.337 21.2167L46.9321 19.5972L48.1466 18.6256L49.6851 19.1923C49.928 19.1114 50.2519 18.9494 50.5758 18.8685L51.3046 17.411H52.924L53.6528 18.8685L53.6527 18.8685ZM52.1141 21.5405C53.7336 21.5405 55.0291 22.8361 55.0291 24.4554C55.0291 26.0749 53.7335 27.3704 52.1141 27.3704C50.4947 27.3704 49.1992 26.0748 49.1992 24.4554C49.1992 22.836 50.4948 21.5405 52.1141 21.5405Z" fill="#F1C901"/>
<path d="M74.2152 14.8547H76.1604L81.1221 27.2019L86.0735 14.8547H88.0291L81.8711 30H80.3524L74.2152 14.8547ZM73.5807 14.8547H75.297L75.5779 24.0917V30H73.5807V14.8547ZM86.9369 14.8547H88.6532V30H86.656V24.0917L86.9369 14.8547ZM97.9734 16.1965L92.9596 30H90.9104L96.6835 14.8547H98.0046L97.9734 16.1965ZM102.176 30L97.1516 16.1965L97.1204 14.8547H98.4415L104.235 30H102.176ZM101.916 24.3933V26.0368H93.4069V24.3933H101.916ZM117.914 14.8547V30H115.896L108.271 18.3186V30H106.264V14.8547H108.271L115.927 26.5673V14.8547H117.914ZM130.136 14.8547H132.134V25.1007C132.134 26.2379 131.88 27.1845 131.374 27.9404C130.868 28.6963 130.195 29.2649 129.356 29.6463C128.524 30.0208 127.619 30.208 126.641 30.208C125.615 30.208 124.686 30.0208 123.854 29.6463C123.028 29.2649 122.373 28.6963 121.888 27.9404C121.409 27.1845 121.17 26.2379 121.17 25.1007V14.8547H123.157V25.1007C123.157 25.8912 123.302 26.5431 123.594 27.0562C123.885 27.5694 124.29 27.9508 124.811 28.2005C125.338 28.4501 125.948 28.5749 126.641 28.5749C127.342 28.5749 127.952 28.4501 128.472 28.2005C128.999 27.9508 129.408 27.5694 129.699 27.0562C129.991 26.5431 130.136 25.8912 130.136 25.1007V14.8547ZM137.293 14.8547V30H135.285V14.8547H137.293ZM143.638 21.668V23.3115H136.856V21.668H143.638ZM144.668 14.8547V16.4982H136.856V14.8547H144.668ZM150.899 16.1965L145.885 30H143.836L149.609 14.8547H150.93L150.899 16.1965ZM155.101 30L150.077 16.1965L150.046 14.8547H151.367L157.161 30H155.101ZM154.841 24.3933V26.0368H146.332V24.3933H154.841ZM168.208 25.1839H170.205C170.101 26.1409 169.827 26.9973 169.383 27.7532C168.939 28.509 168.312 29.1089 167.5 29.5527C166.689 29.9896 165.677 30.208 164.463 30.208C163.575 30.208 162.767 30.0416 162.039 29.7087C161.318 29.3759 160.697 28.9043 160.177 28.2941C159.657 27.6769 159.255 26.9383 158.971 26.0784C158.693 25.2116 158.555 24.2477 158.555 23.1867V21.6784C158.555 20.6174 158.693 19.6569 158.971 18.797C159.255 17.9302 159.661 17.1882 160.188 16.571C160.722 15.9538 161.363 15.4788 162.112 15.1459C162.861 14.8131 163.704 14.6466 164.64 14.6466C165.784 14.6466 166.751 14.8616 167.542 15.2916C168.333 15.7215 168.946 16.3179 169.383 17.0807C169.827 17.8366 170.101 18.7138 170.205 19.7124H168.208C168.111 19.0051 167.93 18.3983 167.667 17.8921C167.403 17.3789 167.029 16.9836 166.543 16.7062C166.058 16.4289 165.423 16.2902 164.64 16.2902C163.967 16.2902 163.374 16.4185 162.861 16.675C162.355 16.9316 161.928 17.2957 161.582 17.7672C161.242 18.2388 160.985 18.804 160.812 19.4628C160.638 20.1216 160.552 20.8532 160.552 21.6576V23.1867C160.552 23.9287 160.628 24.6256 160.781 25.2775C160.94 25.9294 161.179 26.5015 161.498 26.9938C161.817 27.4862 162.223 27.8745 162.715 28.1588C163.208 28.4362 163.79 28.5749 164.463 28.5749C165.316 28.5749 165.996 28.4397 166.502 28.1692C167.008 27.8988 167.389 27.5105 167.646 27.0042C167.909 26.498 168.097 25.8912 168.208 25.1839ZM178.225 14.8547V30H176.248V14.8547H178.225ZM183.093 14.8547V16.4982H171.391V14.8547H183.093ZM194.005 14.8547H196.002V25.1007C196.002 26.2379 195.749 27.1845 195.242 27.9404C194.736 28.6963 194.064 29.2649 193.224 29.6463C192.392 30.0208 191.487 30.208 190.51 30.208C189.483 30.208 188.554 30.0208 187.722 29.6463C186.897 29.2649 186.241 28.6963 185.756 27.9404C185.277 27.1845 185.038 26.2379 185.038 25.1007V14.8547H187.025V25.1007C187.025 25.8912 187.171 26.5431 187.462 27.0562C187.753 27.5694 188.159 27.9508 188.679 28.2005C189.206 28.4501 189.816 28.5749 190.51 28.5749C191.21 28.5749 191.82 28.4501 192.34 28.2005C192.867 27.9508 193.276 27.5694 193.568 27.0562C193.859 26.5431 194.005 25.8912 194.005 25.1007V14.8547ZM199.154 14.8547H204.167C205.305 14.8547 206.265 15.0281 207.049 15.3748C207.839 15.7215 208.439 16.2347 208.848 16.9143C209.264 17.5869 209.472 18.4156 209.472 19.4004C209.472 20.0938 209.33 20.7284 209.046 21.3039C208.769 21.8726 208.366 22.358 207.839 22.7602C207.319 23.1555 206.695 23.4502 205.967 23.6444L205.405 23.8628H200.693L200.672 22.2297H204.23C204.951 22.2297 205.551 22.1049 206.029 21.8552C206.508 21.5987 206.868 21.2554 207.111 20.8254C207.354 20.3955 207.475 19.9205 207.475 19.4004C207.475 18.8179 207.361 18.3082 207.132 17.8713C206.903 17.4344 206.543 17.0981 206.05 16.8623C205.565 16.6196 204.937 16.4982 204.167 16.4982H201.161V30H199.154V14.8547ZM208.006 30L204.323 23.1347L206.414 23.1243L210.149 29.8752V30H208.006ZM214.434 14.8547V30H212.427V14.8547H214.434ZM229.736 14.8547V30H227.718L220.093 18.3186V30H218.085V14.8547H220.093L227.749 26.5673V14.8547H229.736ZM244.486 22.4586V28.0028C244.298 28.2802 244 28.5923 243.591 28.939C243.182 29.2788 242.617 29.577 241.895 29.8336C241.181 30.0832 240.259 30.208 239.129 30.208C238.206 30.208 237.357 30.0485 236.58 29.7295C235.81 29.4036 235.141 28.9321 234.572 28.3149C234.011 27.6908 233.574 26.9349 233.262 26.0472C232.957 25.1527 232.804 24.1402 232.804 23.0099V21.8344C232.804 20.7041 232.936 19.6951 233.199 18.8074C233.47 17.9198 233.865 17.1674 234.385 16.5502C234.905 15.9261 235.543 15.4545 236.299 15.1355C237.055 14.8096 237.922 14.6466 238.9 14.6466C240.058 14.6466 241.025 14.8478 241.802 15.25C242.585 15.6452 243.196 16.1931 243.633 16.8935C244.076 17.5939 244.361 18.3914 244.486 19.2859H242.478C242.388 18.7381 242.208 18.2388 241.937 17.7881C241.674 17.3373 241.296 16.9767 240.803 16.7062C240.311 16.4289 239.676 16.2902 238.9 16.2902C238.199 16.2902 237.592 16.4185 237.079 16.675C236.566 16.9316 236.143 17.2992 235.81 17.7777C235.477 18.2561 235.228 18.8352 235.061 19.5148C234.902 20.1944 234.822 20.9607 234.822 21.8136V23.0099C234.822 23.8836 234.923 24.6638 235.124 25.3503C235.332 26.0368 235.627 26.6228 236.008 27.1082C236.389 27.5867 236.844 27.9508 237.371 28.2005C237.905 28.4501 238.494 28.5749 239.139 28.5749C239.853 28.5749 240.432 28.516 240.876 28.3981C241.32 28.2733 241.667 28.1276 241.916 27.9612C242.166 27.7878 242.357 27.6249 242.488 27.4723V24.0813H238.983V22.4586H244.486Z" fill="black"/>
</svg>
