<svg width="29" height="29" viewBox="0 0 29 29" fill="none" xmlns="http://www.w3.org/2000/svg">
<path d="M14.4954 13C12.5464 13 11 11.452 11 9.50005C11 7.54813 12.6104 6 14.4954 6C16.3803 6 18 7.54813 18 9.50005C18 11.452 16.4535 13 14.4954 13ZM14.4954 7.34619C13.3516 7.34619 12.3451 8.28851 12.3451 9.50005C12.3451 10.7116 13.2875 11.6538 14.4954 11.6538C15.7124 11.6538 16.6548 10.7116 16.6548 9.50005C16.6548 8.28851 15.7124 7.34619 14.4954 7.34619Z" fill="#0E264C"/>
<path d="M15 22C11.7596 22 8.37914 21.2736 7.34902 20.349C7.05898 20.0849 6.90904 19.6887 7.05906 19.2925C7.42911 18.3019 9.03925 15 15 15C20.9607 15 22.5709 18.3019 22.9409 19.2925C23.091 19.6887 22.941 20.0849 22.651 20.349C21.6209 21.2736 18.3104 22 15 22ZM8.59917 19.4906C9.33927 19.9529 11.8395 20.6793 15.07 20.6793C18.3104 20.6793 20.8108 19.9529 21.5509 19.4906C21.1808 18.5661 19.7105 16.2547 15.07 16.2547C10.3694 16.2547 8.96922 18.5661 8.59917 19.4906Z" fill="#0E264C"/>
<circle cx="14.5" cy="14.5" r="14" stroke="#0E264C"/>
</svg>
