<svg width="156" height="45" viewBox="0 0 156 45" fill="none" xmlns="http://www.w3.org/2000/svg">
<path d="M10 30.5209V14.5476H17.3412C18.4964 14.5476 19.4691 14.7073 20.2595 15.0268C21.0651 15.3463 21.673 15.795 22.0834 16.3731C22.509 16.9512 22.7218 17.6282 22.7218 18.404C22.7218 19.3624 22.5014 20.1534 22.0606 20.7772C21.635 21.4009 21.0043 21.8192 20.1683 22.0322L20.0999 21.5986C20.7991 21.766 21.407 22.0398 21.9238 22.4201C22.4406 22.7852 22.8434 23.234 23.1322 23.7665C23.4209 24.2989 23.5653 24.9074 23.5653 25.592C23.5653 26.4287 23.4133 27.1589 23.1094 27.7826C22.8054 28.3911 22.3722 28.9007 21.8098 29.3115C21.2626 29.7222 20.6243 30.0265 19.8947 30.2242C19.1804 30.422 18.4052 30.5209 17.5692 30.5209H10ZM14.5598 26.6416H17.4324C17.7212 26.6416 17.9644 26.596 18.162 26.5047C18.3596 26.3982 18.5116 26.2461 18.618 26.0484C18.7244 25.8354 18.7776 25.5844 18.7776 25.2953C18.7776 25.0367 18.7168 24.8237 18.5952 24.6564C18.4888 24.4738 18.3292 24.3369 18.1164 24.2457C17.9036 24.1392 17.6376 24.0859 17.3184 24.0859H14.5598V26.6416ZM14.5598 20.8H16.4977C16.8473 20.8 17.1285 20.7543 17.3412 20.6631C17.5692 20.5718 17.7288 20.4425 17.82 20.2751C17.9264 20.0926 17.9796 19.872 17.9796 19.6134C17.9796 19.2635 17.858 18.9821 17.6148 18.7691C17.3868 18.5409 16.9993 18.4268 16.4521 18.4268H14.5598V20.8Z" fill="black"/>
<path d="M34.4686 30.5209L29.5213 23.3557L23.1832 14.5476H29.0881L33.9215 21.6215L40.3735 30.5209H34.4686ZM34.2862 23.1047L30 21.3705L33.0412 17.3632C34.8882 14.9294 37.7675 13.5 40.8227 13.5L34.2862 23.1047Z" fill="black"/>
<path d="M29.1793 21.8953L33.4655 23.6295L30.1511 27.9968C28.4761 30.2039 25.8663 31.5 23.0972 31.5H22.6428L29.1793 21.8953Z" fill="black"/>
<path fill-rule="evenodd" clip-rule="evenodd" d="M62.5466 12.5002C62.5247 12.5008 62.5014 12.5029 62.48 12.5069L45.006 15.7433C44.9576 15.7522 44.9086 15.7717 44.8661 15.7965C44.8236 15.8215 44.7911 15.8518 44.7596 15.8897C44.728 15.9276 44.7031 15.9698 44.6863 16.0162C44.6695 16.0626 44.6597 16.1134 44.6597 16.1628V30.0738C44.6597 30.1296 44.6716 30.1887 44.693 30.2403C44.7144 30.2919 44.7468 30.3407 44.7862 30.3802C44.8257 30.4196 44.8678 30.4521 44.9193 30.4734C44.9709 30.4948 45.0301 30.5 45.0858 30.5H56.5733C56.629 30.5 56.6816 30.4946 56.7331 30.4734C56.7847 30.452 56.8334 30.4196 56.873 30.3802C56.9123 30.3408 56.9447 30.2919 56.9661 30.2403C56.9876 30.1887 56.9994 30.1296 56.9994 30.0738V26.8307H59.4368V30.0738C59.4368 30.1296 59.4487 30.1887 59.4701 30.2403C59.4915 30.2919 59.5239 30.3407 59.5633 30.3802C59.6027 30.4196 59.6516 30.4521 59.7032 30.4734C59.7547 30.4948 59.8072 30.5 59.8629 30.5H62.56C62.6157 30.5 62.6683 30.4946 62.7197 30.4734C62.7713 30.452 62.8201 30.4196 62.8596 30.3802C62.899 30.3408 62.9316 30.2919 62.9528 30.2403C62.9742 30.1887 62.9861 30.1296 62.9861 30.0738V12.9264C62.9861 12.8696 62.975 12.8122 62.9528 12.7599C62.9307 12.7076 62.8937 12.6597 62.8529 12.62C62.8122 12.5805 62.7661 12.5473 62.7131 12.5268C62.6601 12.5063 62.6034 12.4986 62.5466 12.5002L62.5466 12.5002ZM48.602 17.508H50.3468V19.3527H48.602V17.508ZM52.9503 17.508H54.6952V19.3527H52.9503V17.508ZM57.2987 17.508H59.0433V19.3527H57.2987V17.508ZM48.6016 22.7753H50.3465V24.62H48.6016V22.7753ZM52.95 22.7753H54.6948V24.62H52.95V22.7753ZM57.2983 22.7753H59.0429V24.62H57.2983V22.7753Z" fill="#B39834"/>
<path d="M78.473 21.3663V22.9995H70.2762V21.3663H78.473ZM70.5883 14.8547V30H68.5807V14.8547H70.5883ZM80.2205 14.8547V30H78.2233V14.8547H80.2205ZM95.4491 21.9489V22.9058C95.4491 24.0431 95.3069 25.0625 95.0226 25.964C94.7383 26.8655 94.3291 27.6318 93.7951 28.2629C93.2612 28.8939 92.6197 29.3759 91.8708 29.7087C91.1288 30.0416 90.2966 30.208 89.3743 30.208C88.4797 30.208 87.658 30.0416 86.909 29.7087C86.167 29.3759 85.5221 28.8939 84.9742 28.2629C84.4333 27.6318 84.0138 26.8655 83.7156 25.964C83.4174 25.0625 83.2683 24.0431 83.2683 22.9058V21.9489C83.2683 20.8116 83.4139 19.7956 83.7052 18.9011C84.0034 17.9996 84.4229 17.2333 84.9638 16.6022C85.5047 15.9642 86.1462 15.4788 86.8882 15.1459C87.6372 14.8131 88.4589 14.6466 89.3535 14.6466C90.2758 14.6466 91.108 14.8131 91.85 15.1459C92.5989 15.4788 93.2404 15.9642 93.7743 16.6022C94.3152 17.2333 94.7279 17.9996 95.0122 18.9011C95.3034 19.7956 95.4491 20.8116 95.4491 21.9489ZM93.4623 22.9058V21.928C93.4623 21.0265 93.3687 20.2291 93.1814 19.5356C93.0011 18.8421 92.7341 18.2596 92.3805 17.7881C92.0268 17.3165 91.5934 16.9594 91.0802 16.7166C90.574 16.4739 89.9984 16.3526 89.3535 16.3526C88.7294 16.3526 88.1642 16.4739 87.658 16.7166C87.1587 16.9594 86.7287 17.3165 86.3681 17.7881C86.0144 18.2596 85.7405 18.8421 85.5464 19.5356C85.3522 20.2291 85.2551 21.0265 85.2551 21.928V22.9058C85.2551 23.8143 85.3522 24.6187 85.5464 25.3191C85.7405 26.0126 86.0179 26.5985 86.3785 27.077C86.7461 27.5486 87.1795 27.9057 87.6788 28.1484C88.185 28.3912 88.7502 28.5125 89.3743 28.5125C90.0261 28.5125 90.6052 28.3912 91.1114 28.1484C91.6177 27.9057 92.0441 27.5486 92.3909 27.077C92.7445 26.5985 93.0115 26.0126 93.1918 25.3191C93.3721 24.6187 93.4623 23.8143 93.4623 22.9058ZM103.76 14.8547V30H101.784V14.8547H103.76ZM108.628 14.8547V16.4982H96.9261V14.8547H108.628ZM120.497 28.3669V30H112.477V28.3669H120.497ZM112.883 14.8547V30H110.875V14.8547H112.883ZM119.436 21.3663V22.9995H112.477V21.3663H119.436ZM120.393 14.8547V16.4982H112.477V14.8547H120.393ZM132.168 28.3669V30H124.595V28.3669H132.168ZM124.991 14.8547V30H122.983V14.8547H124.991ZM142.539 26.1721C142.539 25.8184 142.483 25.5063 142.372 25.2359C142.268 24.9585 142.081 24.7088 141.811 24.4869C141.547 24.265 141.18 24.0535 140.708 23.8524C140.244 23.6513 139.654 23.4467 138.94 23.2387C138.191 23.0168 137.515 22.7706 136.911 22.5002C136.308 22.2228 135.791 21.9072 135.362 21.5536C134.932 21.1999 134.602 20.7942 134.373 20.3365C134.144 19.8789 134.03 19.3553 134.03 18.7658C134.03 18.1764 134.151 17.632 134.394 17.1327C134.637 16.6334 134.984 16.2 135.434 15.8325C135.892 15.458 136.436 15.1667 137.067 14.9587C137.699 14.7507 138.402 14.6466 139.179 14.6466C140.316 14.6466 141.28 14.8651 142.071 15.302C142.868 15.7319 143.475 16.2971 143.891 16.9975C144.307 17.691 144.515 18.433 144.515 19.2235H142.518C142.518 18.6549 142.397 18.1521 142.154 17.7152C141.911 17.2714 141.544 16.9247 141.051 16.675C140.559 16.4185 139.935 16.2902 139.179 16.2902C138.465 16.2902 137.875 16.3977 137.411 16.6126C136.946 16.8276 136.599 17.1189 136.371 17.4864C136.149 17.8539 136.038 18.2735 136.038 18.745C136.038 19.064 136.104 19.3553 136.235 19.6188C136.374 19.8754 136.586 20.1146 136.87 20.3365C137.161 20.5585 137.529 20.763 137.972 20.9503C138.423 21.1375 138.961 21.3178 139.585 21.4912C140.445 21.7339 141.187 22.0043 141.811 22.3025C142.435 22.6007 142.948 22.937 143.35 23.3115C143.759 23.6791 144.061 24.0986 144.255 24.5702C144.456 25.0348 144.557 25.5618 144.557 26.1513C144.557 26.7684 144.432 27.3267 144.182 27.826C143.933 28.3253 143.576 28.7518 143.111 29.1054C142.646 29.4591 142.088 29.733 141.436 29.9272C140.791 30.1144 140.07 30.208 139.273 30.208C138.572 30.208 137.882 30.111 137.203 29.9168C136.53 29.7226 135.916 29.4314 135.362 29.043C134.814 28.6547 134.373 28.1762 134.04 27.6075C133.715 27.032 133.552 26.3662 133.552 25.6104H135.549C135.549 26.1305 135.649 26.5777 135.85 26.9522C136.052 27.3198 136.325 27.6249 136.672 27.8676C137.026 28.1103 137.425 28.2906 137.868 28.4085C138.319 28.5194 138.787 28.5749 139.273 28.5749C139.973 28.5749 140.566 28.4778 141.051 28.2837C141.537 28.0895 141.904 27.8121 142.154 27.4515C142.411 27.0909 142.539 26.6644 142.539 26.1721Z" fill="black"/>
</svg>
