<svg width="193" height="45" viewBox="0 0 193 45" fill="none" xmlns="http://www.w3.org/2000/svg">
<path d="M10 30.5209V14.5476H17.3412C18.4964 14.5476 19.4691 14.7073 20.2595 15.0268C21.0651 15.3463 21.673 15.795 22.0834 16.3731C22.509 16.9512 22.7218 17.6282 22.7218 18.404C22.7218 19.3624 22.5014 20.1534 22.0606 20.7772C21.635 21.4009 21.0043 21.8192 20.1683 22.0322L20.0999 21.5986C20.7991 21.766 21.407 22.0398 21.9238 22.4201C22.4406 22.7852 22.8434 23.234 23.1322 23.7665C23.4209 24.2989 23.5653 24.9074 23.5653 25.592C23.5653 26.4287 23.4133 27.1589 23.1094 27.7826C22.8054 28.3911 22.3722 28.9007 21.8098 29.3115C21.2626 29.7222 20.6243 30.0265 19.8947 30.2242C19.1804 30.422 18.4052 30.5209 17.5692 30.5209H10ZM14.5598 26.6416H17.4324C17.7212 26.6416 17.9644 26.596 18.162 26.5047C18.3596 26.3982 18.5116 26.2461 18.618 26.0484C18.7244 25.8354 18.7776 25.5844 18.7776 25.2953C18.7776 25.0367 18.7168 24.8237 18.5952 24.6564C18.4888 24.4738 18.3292 24.3369 18.1164 24.2457C17.9036 24.1392 17.6376 24.0859 17.3184 24.0859H14.5598V26.6416ZM14.5598 20.8H16.4977C16.8473 20.8 17.1285 20.7543 17.3412 20.6631C17.5692 20.5718 17.7288 20.4425 17.82 20.2751C17.9264 20.0926 17.9796 19.872 17.9796 19.6134C17.9796 19.2635 17.858 18.9821 17.6148 18.7691C17.3868 18.5409 16.9993 18.4268 16.4521 18.4268H14.5598V20.8Z" fill="black"/>
<path d="M34.4686 30.5209L29.5213 23.3557L23.1832 14.5476H29.0881L33.9215 21.6215L40.3735 30.5209H34.4686ZM34.2862 23.1047L30 21.3705L33.0412 17.3632C34.8882 14.9294 37.7675 13.5 40.8227 13.5L34.2862 23.1047Z" fill="black"/>
<path d="M29.1793 21.8953L33.4655 23.6295L30.1511 27.9968C28.4761 30.2039 25.8663 31.5 23.0972 31.5H22.6428L29.1793 21.8953Z" fill="black"/>
<path d="M56.2228 31.5H51.4228C50.8706 31.5 50.4228 31.0525 50.4228 30.5V25.9H45.8228C45.2706 25.9 44.8228 25.4525 44.8228 24.9V20.1C44.8228 19.5478 45.2706 19.1 45.8228 19.1H50.4228V14.5C50.4228 13.9478 50.8706 13.5 51.4228 13.5H56.2228C56.7752 13.5 57.2228 13.9478 57.2228 14.5V19.1H61.8228C62.3752 19.1 62.8228 19.5478 62.8228 20.1V24.9C62.8228 25.4525 62.3752 25.9 61.8228 25.9H57.2228V30.5C57.2228 31.0525 56.7752 31.5 56.2228 31.5Z" fill="#3CB28B"/>
<path d="M74.1666 24.0605H70.1202V22.4273H74.1666C74.9502 22.4273 75.5847 22.3025 76.0701 22.0529C76.5556 21.8032 76.9092 21.4565 77.1311 21.0127C77.36 20.5689 77.4744 20.0626 77.4744 19.494C77.4744 18.9739 77.36 18.485 77.1311 18.0273C76.9092 17.5696 76.5556 17.2021 76.0701 16.9247C75.5847 16.6404 74.9502 16.4982 74.1666 16.4982H70.5883V30H68.5807V14.8547H74.1666C75.3108 14.8547 76.2782 15.0523 77.0687 15.4476C77.8593 15.8429 78.4591 16.3907 78.8683 17.0911C79.2774 17.7846 79.482 18.5786 79.482 19.4732C79.482 20.444 79.2774 21.2727 78.8683 21.9593C78.4591 22.6458 77.8593 23.1694 77.0687 23.53C76.2782 23.8836 75.3108 24.0605 74.1666 24.0605ZM91.9124 21.3663V22.9995H83.7156V21.3663H91.9124ZM84.0277 14.8547V30H82.0201V14.8547H84.0277ZM93.6599 14.8547V30H91.6627V14.8547H93.6599ZM103.022 16.1965L98.0079 30H95.9588L101.732 14.8547H103.053L103.022 16.1965ZM107.224 30L102.2 16.1965L102.169 14.8547H103.49L109.284 30H107.224ZM106.964 24.3933V26.0368H98.4552V24.3933H106.964ZM111.312 14.8547H116.326C117.463 14.8547 118.424 15.0281 119.207 15.3748C119.998 15.7215 120.598 16.2347 121.007 16.9143C121.423 17.5869 121.631 18.4156 121.631 19.4004C121.631 20.0938 121.489 20.7284 121.204 21.3039C120.927 21.8726 120.525 22.358 119.998 22.7602C119.478 23.1555 118.854 23.4502 118.125 23.6444L117.564 23.8628H112.852L112.831 22.2297H116.388C117.109 22.2297 117.709 22.1049 118.188 21.8552C118.666 21.5987 119.027 21.2554 119.27 20.8254C119.512 20.3955 119.634 19.9205 119.634 19.4004C119.634 18.8179 119.519 18.3082 119.29 17.8713C119.062 17.4344 118.701 17.0981 118.209 16.8623C117.723 16.6196 117.096 16.4982 116.326 16.4982H113.32V30H111.312V14.8547ZM120.164 30L116.482 23.1347L118.573 23.1243L122.307 29.8752V30H120.164ZM125.074 14.8547H127.019L131.981 27.2019L136.932 14.8547H138.888L132.73 30H131.211L125.074 14.8547ZM124.439 14.8547H126.156L126.437 24.0917V30H124.439V14.8547ZM137.796 14.8547H139.512V30H137.515V24.0917L137.796 14.8547ZM148.832 16.1965L143.818 30H141.769L147.542 14.8547H148.863L148.832 16.1965ZM153.035 30L148.01 16.1965L147.979 14.8547H149.3L155.094 30H153.035ZM152.774 24.3933V26.0368H144.266V24.3933H152.774ZM166.141 25.1839H168.138C168.034 26.1409 167.76 26.9973 167.316 27.7532C166.873 28.509 166.245 29.1089 165.434 29.5527C164.622 29.9896 163.61 30.208 162.396 30.208C161.509 30.208 160.701 30.0416 159.973 29.7087C159.251 29.3759 158.631 28.9043 158.111 28.2941C157.591 27.6769 157.188 26.9383 156.904 26.0784C156.627 25.2116 156.488 24.2477 156.488 23.1867V21.6784C156.488 20.6174 156.627 19.6569 156.904 18.797C157.188 17.9302 157.594 17.1882 158.121 16.571C158.655 15.9538 159.297 15.4788 160.045 15.1459C160.794 14.8131 161.637 14.6466 162.573 14.6466C163.717 14.6466 164.685 14.8616 165.475 15.2916C166.266 15.7215 166.88 16.3179 167.316 17.0807C167.76 17.8366 168.034 18.7138 168.138 19.7124H166.141C166.044 19.0051 165.864 18.3983 165.6 17.8921C165.337 17.3789 164.962 16.9836 164.477 16.7062C163.991 16.4289 163.357 16.2902 162.573 16.2902C161.9 16.2902 161.308 16.4185 160.794 16.675C160.288 16.9316 159.862 17.2957 159.515 17.7672C159.175 18.2388 158.919 18.804 158.745 19.4628C158.572 20.1216 158.485 20.8532 158.485 21.6576V23.1867C158.485 23.9287 158.561 24.6256 158.714 25.2775C158.874 25.9294 159.113 26.5015 159.432 26.9938C159.751 27.4862 160.156 27.8745 160.649 28.1588C161.141 28.4362 161.724 28.5749 162.396 28.5749C163.249 28.5749 163.929 28.4397 164.435 28.1692C164.941 27.8988 165.323 27.5105 165.579 27.0042C165.843 26.498 166.03 25.8912 166.141 25.1839ZM171.571 14.8547L175.503 22.4586L179.445 14.8547H181.723L176.501 24.3413V30H174.494V24.3413L169.272 14.8547H171.571Z" fill="black"/>
</svg>
