<svg width="41" height="39" viewBox="0 0 41 39" fill="none" xmlns="http://www.w3.org/2000/svg">
<path d="M26.6008 3.95416L37.2068 16.5939" stroke="#fff" class="stroke-target" stroke-width="1.5"/>
<path d="M11.2799 16.8099L21.8859 29.4497" stroke="#fff" class="stroke-target" stroke-width="1.5"/>
<path d="M23.5366 6.52533L34.1426 19.1651" stroke="#fff" class="stroke-target" stroke-width="1.5"/>
<path d="M8.21582 19.3811L18.8218 32.0208" stroke="#fff" class="stroke-target" stroke-width="1.5"/>
<path d="M20.4725 9.0965L31.0785 21.7362" stroke="#fff" class="stroke-target" stroke-width="1.5"/>
<path d="M5.15161 21.9522L15.7576 34.5919" stroke="#fff" class="stroke-target" stroke-width="1.5"/>
<path d="M1.00002 24.7831L8.27744 18.6766C11.8736 15.6591 17.235 16.1282 20.2525 19.7243V19.7243C23.27 23.3205 22.801 28.6819 19.2048 31.6994L11.9274 37.8059" stroke="#fff" class="stroke-target" stroke-width="1.5"/>
<path d="M40.271 14.0228L32.9936 20.1293C29.3974 23.1468 24.036 22.6777 21.0185 19.0816V19.0816C18.001 15.4854 18.47 10.124 22.0662 7.10651L29.3436 1.00002" stroke="#fff" class="stroke-target" stroke-width="1.5"/>
</svg>
