<svg width="56" height="56" viewBox="0 0 56 56" fill="none" xmlns="http://www.w3.org/2000/svg">
  <path d="M35 32.6667C28.77 32.6667 16.3333 35.77 16.3333 42V46.6667H53.6667V42C53.6667 35.77 41.23 32.6667 35 32.6667ZM35 28C37.4754 28 39.8493 27.0167 41.5997 25.2664C43.35 23.516 44.3333 21.1421 44.3333 18.6667C44.3333 16.1914 43.35 13.8174 41.5997 12.067C39.8493 10.3167 37.4754 9.33337 35 9.33337C32.5247 9.33337 30.1507 10.3167 28.4003 12.067C26.65 13.8174 25.6667 16.1914 25.6667 18.6667C25.6667 21.1421 26.65 23.516 28.4003 25.2664C30.1507 27.0167 32.5247 28 35 28ZM11.6667 30.9867L17.3833 34.4634L15.8667 27.9067L21 23.52L14.2567 22.9367L11.6667 16.7767L9.03001 22.9367L2.33334 23.52L7.42001 27.9067L5.83334 34.4634L11.6667 30.9867Z" fill="#fff"/>
</svg>
