<svg width="56" height="56" viewBox="0 0 56 56" fill="none" xmlns="http://www.w3.org/2000/svg">
  <path d="M11.6667 7H44.3333C45.571 7 46.758 7.49167 47.6332 8.36683C48.5083 9.242 49 10.429 49 11.6667V44.3333C49 45.571 48.5083 46.758 47.6332 47.6332C46.758 48.5083 45.571 49 44.3333 49H11.6667C10.429 49 9.242 48.5083 8.36683 47.6332C7.49167 46.758 7 45.571 7 44.3333V11.6667C7 10.429 7.49167 9.242 8.36683 8.36683C9.242 7.49167 10.429 7 11.6667 7ZM16.3333 16.3333V21H21V16.3333H16.3333ZM25.6667 16.3333V21H30.3333V16.3333H25.6667ZM35 16.3333V21H39.6667V16.3333H35ZM16.3333 25.6667V30.3333H21V25.6667H16.3333ZM25.6667 25.6667V30.3333H30.3333V25.6667H25.6667ZM35 25.6667V30.3333H39.6667V25.6667H35ZM16.3333 35V39.6667H21V35H16.3333ZM25.6667 35V39.6667H30.3333V35H25.6667ZM35 35V39.6667H39.6667V35H35Z" fill="#fff"/>
</svg>
