<svg width="148" height="45" viewBox="0 0 148 45" fill="none" xmlns="http://www.w3.org/2000/svg">
<path d="M10 30.5209V14.5476H17.3412C18.4964 14.5476 19.4691 14.7073 20.2595 15.0268C21.0651 15.3463 21.673 15.795 22.0834 16.3731C22.509 16.9512 22.7218 17.6282 22.7218 18.404C22.7218 19.3624 22.5014 20.1534 22.0606 20.7772C21.635 21.4009 21.0043 21.8192 20.1683 22.0322L20.0999 21.5986C20.7991 21.766 21.407 22.0398 21.9238 22.4201C22.4406 22.7852 22.8434 23.234 23.1322 23.7665C23.4209 24.2989 23.5653 24.9074 23.5653 25.592C23.5653 26.4287 23.4133 27.1589 23.1094 27.7826C22.8054 28.3911 22.3722 28.9007 21.8098 29.3115C21.2626 29.7222 20.6243 30.0265 19.8947 30.2242C19.1804 30.422 18.4052 30.5209 17.5692 30.5209H10ZM14.5598 26.6416H17.4324C17.7212 26.6416 17.9644 26.596 18.162 26.5047C18.3596 26.3982 18.5116 26.2461 18.618 26.0484C18.7244 25.8354 18.7776 25.5844 18.7776 25.2953C18.7776 25.0367 18.7168 24.8237 18.5952 24.6564C18.4888 24.4738 18.3292 24.3369 18.1164 24.2457C17.9036 24.1392 17.6376 24.0859 17.3184 24.0859H14.5598V26.6416ZM14.5598 20.8H16.4977C16.8473 20.8 17.1285 20.7543 17.3412 20.6631C17.5692 20.5718 17.7288 20.4425 17.82 20.2751C17.9264 20.0926 17.9796 19.872 17.9796 19.6134C17.9796 19.2635 17.858 18.9821 17.6148 18.7691C17.3868 18.5409 16.9993 18.4268 16.4521 18.4268H14.5598V20.8Z" fill="white"/>
<path d="M34.4686 30.5209L29.5213 23.3557L23.1832 14.5476H29.0881L33.9215 21.6215L40.3735 30.5209H34.4686ZM34.2862 23.1047L30 21.3705L33.0412 17.3632C34.8882 14.9294 37.7675 13.5 40.8227 13.5L34.2862 23.1047Z" fill="white"/>
<path d="M29.1793 21.8953L33.4655 23.6295L30.1511 27.9968C28.4761 30.2039 25.8663 31.5 23.0972 31.5H22.6428L29.1793 21.8953Z" fill="white"/>
<path d="M45.8222 12.5002C45.2699 12.5002 44.8223 12.9478 44.8223 13.5001C44.8223 14.0524 45.2699 14.5002 45.8222 14.5002H46.8221C47.3744 14.5002 47.8222 14.9478 47.8222 15.5001V22.4999C47.8222 24.1569 49.1654 25.4999 50.8222 25.4999H60.2177C61.6238 25.4999 62.8412 24.5234 63.1462 23.1508L64.7506 18.1507C65.167 16.2773 63.7412 14.5 61.822 14.5H49.6515C49.2397 13.3348 48.1284 12.5 46.8221 12.5L45.8222 12.5002Z" fill="white"/>
<path d="M49.8216 30.5C50.9262 30.5 51.8217 29.6045 51.8217 28.5C51.8217 27.3954 50.9262 26.5001 49.8216 26.5001C48.7171 26.5001 47.8218 27.3954 47.8218 28.5C47.8218 29.6045 48.7171 30.5 49.8216 30.5Z" fill="white"/>
<path d="M59.8223 30.5C60.9269 30.5 61.8222 29.6045 61.8222 28.5C61.8222 27.3954 60.9269 26.5001 59.8223 26.5001C58.7178 26.5001 57.8223 27.3954 57.8223 28.5C57.8223 29.6045 58.7178 30.5 59.8223 30.5Z" fill="white"/>
<path d="M70.5807 14.8547H75.5945C76.7317 14.8547 77.6922 15.0281 78.4758 15.3748C79.2664 15.7215 79.8662 16.2347 80.2754 16.9143C80.6914 17.5869 80.8995 18.4156 80.8995 19.4004C80.8995 20.0938 80.7573 20.7284 80.473 21.3039C80.1956 21.8726 79.7934 22.358 79.2664 22.7602C78.7463 23.1555 78.1221 23.4502 77.394 23.6444L76.8323 23.8628H72.1202L72.0994 22.2297H75.6569C76.3781 22.2297 76.9779 22.1049 77.4564 21.8552C77.9349 21.5987 78.2955 21.2554 78.5382 20.8254C78.7809 20.3955 78.9023 19.9205 78.9023 19.4004C78.9023 18.8179 78.7879 18.3082 78.559 17.8713C78.3302 17.4344 77.9696 17.0981 77.4772 16.8623C76.9918 16.6196 76.3642 16.4982 75.5945 16.4982H72.5883V30H70.5807V14.8547ZM79.4328 30L75.7505 23.1347L77.8413 23.1243L81.5756 29.8752V30H79.4328ZM93.3299 28.3669V30H85.3099V28.3669H93.3299ZM85.7156 14.8547V30H83.708V14.8547H85.7156ZM92.2689 21.3663V22.9995H85.3099V21.3663H92.2689ZM93.2258 14.8547V16.4982H85.3099V14.8547H93.2258ZM101.62 14.8547V30H99.6439V14.8547H101.62ZM106.488 14.8547V16.4982H94.7861V14.8547H106.488ZM113.51 16.1965L108.496 30H106.447L112.22 14.8547H113.541L113.51 16.1965ZM117.712 30L112.688 16.1965L112.657 14.8547H113.978L119.772 30H117.712ZM117.452 24.3933V26.0368H108.943V24.3933H117.452ZM123.953 14.8547V30H121.946V14.8547H123.953ZM136.789 28.3669V30H129.217V28.3669H136.789ZM129.612 14.8547V30H127.604V14.8547H129.612Z" fill="white"/>
</svg>
