<svg width="24" height="20" viewBox="0 0 24 20" fill="none" xmlns="http://www.w3.org/2000/svg">
<path d="M14.7699 6.47403C14.9514 6.51641 15.1372 6.53781 15.3237 6.53783C16.0332 6.48982 16.7064 6.2063 17.2365 5.73224C17.7666 5.25818 18.1232 4.62071 18.2499 3.92093C18.4886 3.14911 18.4135 2.31427 18.0408 1.59745C17.6682 0.880642 17.0279 0.339632 16.259 0.0917323C16.0775 0.0492723 15.8917 0.027832 15.7053 0.027832C14.9958 0.075912 14.3227 0.359462 13.7927 0.833512C13.2626 1.30757 12.906 1.945 12.7794 2.64473C12.5406 3.41652 12.6156 4.25134 12.9882 4.96817C13.3608 5.685 14.001 6.22606 14.7699 6.47403ZM14.532 3.05403C14.5731 2.75206 14.7087 2.47085 14.9194 2.25066C15.1301 2.03047 15.4051 1.88261 15.705 1.82823C15.7538 1.82815 15.8024 1.83376 15.8499 1.84493C15.9659 1.8798 16.0731 1.9392 16.1642 2.01912C16.2552 2.09904 16.328 2.19761 16.3777 2.30813C16.557 2.68324 16.5991 3.10939 16.4966 3.51233C16.4555 3.81428 16.3198 4.09547 16.1092 4.31563C15.8985 4.5358 15.6235 4.68366 15.3237 4.73803C15.2749 4.73812 15.2263 4.73251 15.1788 4.72133C15.0627 4.68647 14.9555 4.62706 14.8645 4.54714C14.7734 4.46723 14.7005 4.36866 14.6509 4.25813C14.4715 3.88297 14.4293 3.45675 14.5319 3.05373L14.532 3.05403ZM8.67622 6.53783C8.86262 6.53781 9.0484 6.5164 9.22992 6.47403C9.99887 6.22612 10.6391 5.68508 11.0117 4.96825C11.3844 4.25141 11.4595 3.41656 11.2207 2.64473C11.094 1.94501 10.7375 1.3076 10.2074 0.833542C9.67747 0.359492 9.00438 0.075932 8.29492 0.027832C8.10852 0.027832 7.92273 0.0492723 7.74122 0.0917323C6.97221 0.339542 6.33188 0.880522 5.95911 1.59735C5.58634 2.31417 5.51117 3.14905 5.74992 3.92093C5.87658 4.62073 6.23324 5.25821 6.76335 5.73227C7.29347 6.20633 7.96668 6.48984 8.67622 6.53783ZM7.62222 2.30783C7.67184 2.19731 7.74464 2.09875 7.83569 2.01883C7.92674 1.93891 8.0339 1.8795 8.14992 1.84463C8.19737 1.83345 8.24597 1.82785 8.29472 1.82793C8.59463 1.88225 8.86966 2.0301 9.08041 2.25029C9.29115 2.47048 9.4268 2.75173 9.46792 3.05373C9.57042 3.45665 9.52835 3.88275 9.34902 4.25783C9.29937 4.36836 9.22653 4.46693 9.13545 4.54684C9.04437 4.62676 8.93717 4.68617 8.82112 4.72103C8.77364 4.73221 8.72501 4.73782 8.67622 4.73773C8.37638 4.68336 8.10143 4.5355 7.89075 4.31534C7.68006 4.09517 7.54445 3.81398 7.50332 3.51203C7.40078 3.10909 7.44286 2.68294 7.62222 2.30783ZM21.5955 5.88093C21.3032 5.76284 20.9908 5.70239 20.6755 5.70293C20.0311 5.73738 19.4112 5.96101 18.8933 6.34587C18.3754 6.73072 17.9824 7.25973 17.7635 7.86673C17.4085 8.5925 17.3539 9.4289 17.6116 10.1947C17.8693 10.9604 18.4184 11.5937 19.1399 11.9572C19.4322 12.0752 19.7446 12.1356 20.0599 12.1351C20.7042 12.1007 21.3241 11.8771 21.842 11.4923C22.36 11.1074 22.7529 10.5784 22.9718 9.9714C23.3268 9.2457 23.3814 8.4093 23.1237 7.64353C22.8661 6.8778 22.317 6.24449 21.5955 5.88093ZM21.303 9.297C21.2146 9.5696 21.0511 9.8117 20.8311 9.9954C20.6112 10.179 20.3438 10.2969 20.0599 10.3352C19.9757 10.3358 19.8923 10.3199 19.8143 10.2883C19.5464 10.0954 19.3593 9.8103 19.2888 9.4879C19.2183 9.1654 19.2694 8.8282 19.4324 8.5411C19.5207 8.2686 19.6843 8.0265 19.9042 7.8428C20.1242 7.65912 20.3915 7.54131 20.6755 7.50293C20.7596 7.50232 20.843 7.51826 20.921 7.54983C21.0302 7.60219 21.127 7.67743 21.2046 7.77044C21.2823 7.86345 21.339 7.97207 21.371 8.0889C21.4904 8.4872 21.4664 8.9147 21.303 9.297ZM6.23622 7.86673C6.01734 7.25971 5.62436 6.7307 5.10642 6.34584C4.58849 5.96097 3.96858 5.73735 3.32422 5.70293C3.00895 5.70244 2.69656 5.76288 2.40422 5.88093C1.68284 6.24447 1.13382 6.87768 0.876166 7.6433C0.618515 8.4089 0.673004 9.2452 1.02782 9.9709C1.24662 10.5781 1.63958 11.1072 2.15755 11.4921C2.67552 11.8771 3.29549 12.1007 3.93992 12.1351C4.25518 12.1356 4.56757 12.0752 4.85992 11.9572C5.58141 11.5937 6.13051 10.9604 6.38815 10.1946C6.64579 9.4289 6.5912 8.5925 6.23622 7.86673ZM4.18542 10.2883C4.1074 10.3199 4.02397 10.3358 3.93982 10.3352C3.65586 10.2968 3.38852 10.179 3.16861 9.9953C2.94869 9.8116 2.78515 9.5695 2.69682 9.2969C2.53333 8.9147 2.50916 8.4872 2.62852 8.0889C2.66052 7.97208 2.71727 7.86347 2.79491 7.77045C2.87255 7.67744 2.96927 7.6022 3.07852 7.54983C3.15667 7.51827 3.24024 7.50234 3.32452 7.50293C3.60841 7.54136 3.87566 7.65918 4.09552 7.84284C4.31537 8.0265 4.47888 8.2685 4.56722 8.541C4.73018 8.8281 4.78133 9.1653 4.71086 9.4878C4.64039 9.8103 4.45327 10.0954 4.18542 10.2883ZM16.8854 11.8342C16.3939 10.9723 15.6831 10.2557 14.8251 9.7573C13.9672 9.2588 12.9926 8.9963 12.0004 8.9963C11.0081 8.9963 10.0336 9.2588 9.17566 9.7573C8.3177 10.2557 7.6069 10.9723 7.11542 11.8342L5.63292 14.4342C5.22695 15.126 5.06401 15.9337 5.17001 16.7287C5.27601 17.5238 5.64486 18.2605 6.21789 18.8218C6.79091 19.383 7.53518 19.7365 8.33226 19.8259C9.12934 19.9154 9.93345 19.7357 10.6166 19.3154C11.0349 19.0652 11.5132 18.9331 12.0006 18.9331C12.488 18.9331 12.9663 19.0652 13.3846 19.3154C14.0678 19.7357 14.8719 19.9154 15.6689 19.8259C16.466 19.7365 17.2103 19.383 17.7833 18.8218C18.3563 18.2605 18.7252 17.5238 18.8312 16.7287C18.9372 15.9337 18.7743 15.126 18.3683 14.4342L16.8854 11.8342ZM16.6511 16.9942C16.5099 17.2453 16.3064 17.4559 16.0603 17.6056C15.8141 17.7553 15.5336 17.8392 15.2457 17.8491C14.9497 17.8436 14.6609 17.7571 14.4106 17.5991C13.682 17.1635 12.8491 16.9334 12.0002 16.9334C11.1513 16.9334 10.3183 17.1635 9.58982 17.5991C9.3394 17.7569 9.05062 17.8431 8.75472 17.8485C8.4668 17.8386 8.18629 17.7547 7.94018 17.6049C7.69406 17.4552 7.49062 17.2446 7.34942 16.9935C7.2074 16.7558 7.13412 16.4834 7.13774 16.2065C7.14136 15.9296 7.22173 15.6591 7.36992 15.4252L8.85242 12.8247C9.16906 12.2693 9.62706 11.8075 10.1799 11.4863C10.7327 11.165 11.3607 10.9958 12.0001 10.9958C12.6395 10.9958 13.2675 11.165 13.8203 11.4863C14.3731 11.8075 14.8311 12.2693 15.1478 12.8247L16.6303 15.4247C16.7786 15.6587 16.8591 15.9293 16.8627 16.2064C16.8663 16.4834 16.793 16.756 16.6508 16.9938L16.6511 16.9942Z" class="fill-target" />
</svg>
