<svg width="195" height="45" viewBox="0 0 195 45" fill="none" xmlns="http://www.w3.org/2000/svg">
  <path d="M10 30.5209V14.5476H17.3412C18.4964 14.5476 19.4691 14.7073 20.2595 15.0268C21.0651 15.3463 21.673 15.795 22.0834 16.3731C22.509 16.9512 22.7218 17.6282 22.7218 18.404C22.7218 19.3624 22.5014 20.1534 22.0606 20.7772C21.635 21.4009 21.0043 21.8192 20.1683 22.0322L20.0999 21.5986C20.7991 21.766 21.407 22.0398 21.9238 22.4201C22.4406 22.7852 22.8434 23.234 23.1322 23.7665C23.4209 24.2989 23.5653 24.9074 23.5653 25.592C23.5653 26.4287 23.4133 27.1589 23.1094 27.7826C22.8054 28.3911 22.3722 28.9007 21.8098 29.3115C21.2626 29.7222 20.6243 30.0265 19.8947 30.2242C19.1804 30.422 18.4052 30.5209 17.5692 30.5209H10ZM14.5598 26.6416H17.4324C17.7212 26.6416 17.9644 26.596 18.162 26.5047C18.3596 26.3982 18.5116 26.2461 18.618 26.0484C18.7244 25.8354 18.7776 25.5844 18.7776 25.2953C18.7776 25.0367 18.7168 24.8237 18.5952 24.6564C18.4888 24.4738 18.3292 24.3369 18.1164 24.2457C17.9036 24.1392 17.6376 24.0859 17.3184 24.0859H14.5598V26.6416ZM14.5598 20.8H16.4977C16.8473 20.8 17.1285 20.7543 17.3412 20.6631C17.5692 20.5718 17.7288 20.4425 17.82 20.2751C17.9264 20.0926 17.9796 19.872 17.9796 19.6134C17.9796 19.2635 17.858 18.9821 17.6148 18.7691C17.3868 18.5409 16.9993 18.4268 16.4521 18.4268H14.5598V20.8Z" fill="black"/>
  <path d="M34.4686 30.5209L29.5213 23.3557L23.1832 14.5476H29.0881L33.9215 21.6215L40.3735 30.5209H34.4686ZM34.2862 23.1047L30 21.3705L33.0412 17.3632C34.8882 14.9294 37.7675 13.5 40.8227 13.5L34.2862 23.1047Z" fill="black"/>
  <path d="M29.1793 21.8953L33.4655 23.6295L30.1511 27.9968C28.4761 30.2039 25.8663 31.5 23.0972 31.5H22.6428L29.1793 21.8953Z" fill="black"/>
  <path d="M58.1628 18.1C58.1628 20.6405 56.2019 22.7 53.7828 22.7C51.3639 22.7 49.4028 20.6404 49.4028 18.1C49.4028 15.5594 51.3639 13.5 53.7828 13.5C56.2019 13.5 58.1628 15.5594 58.1628 18.1Z" fill="#92B8A4"/>
  <path d="M62.5826 28.44C62.0627 24.3 56.7026 22.98 56.0626 22.84C54.7426 23.8801 52.9026 23.8801 51.5826 22.84C50.9426 22.9801 45.5826 24.3201 45.0626 28.44C45.0226 28.86 45.2026 29.2601 45.5426 29.5C46.5226 30.18 49.0226 31.5 53.8226 31.5C58.6426 31.5 61.1226 30.2001 62.1026 29.5C62.4426 29.2601 62.6225 28.86 62.5826 28.44H62.5826ZM58.5426 28.1401C57.9026 28.94 56.8627 29.6801 56.8627 29.6801C56.8627 29.68 55.8226 28.9 55.1826 28.1401C54.5425 27.38 54.9225 26.2001 55.7426 26.2001C56.4426 26.2001 56.7826 26.6202 56.8625 26.7401C56.9425 26.6401 57.2826 26.2001 57.9825 26.2001C58.7826 26.18 59.1626 27.36 58.5426 28.1401Z" fill="#92B8A4"/>
  <path d="M73.4696 27.7012L77.9321 14.8547H80.1061L74.4994 30H72.9495L73.4696 27.7012ZM69.2984 14.8547L73.7193 27.7012L74.2706 30H72.7207L67.1244 14.8547H69.2984ZM93.6599 21.9489V22.9058C93.6599 24.0431 93.5178 25.0625 93.2334 25.964C92.9491 26.8655 92.54 27.6318 92.006 28.2629C91.472 28.8939 90.8306 29.3759 90.0816 29.7087C89.3396 30.0416 88.5075 30.208 87.5851 30.208C86.6906 30.208 85.8688 30.0416 85.1199 29.7087C84.3779 29.3759 83.7329 28.8939 83.1851 28.2629C82.6442 27.6318 82.2246 26.8655 81.9265 25.964C81.6283 25.0625 81.4792 24.0431 81.4792 22.9058V21.9489C81.4792 20.8116 81.6248 19.7956 81.9161 18.9011C82.2142 17.9996 82.6338 17.2333 83.1747 16.6022C83.7156 15.9642 84.3571 15.4788 85.0991 15.1459C85.848 14.8131 86.6698 14.6466 87.5643 14.6466C88.4867 14.6466 89.3188 14.8131 90.0608 15.1459C90.8098 15.4788 91.4512 15.9642 91.9852 16.6022C92.5261 17.2333 92.9387 17.9996 93.223 18.9011C93.5143 19.7956 93.6599 20.8116 93.6599 21.9489ZM91.6731 22.9058V21.928C91.6731 21.0265 91.5795 20.2291 91.3923 19.5356C91.212 18.8421 90.945 18.2596 90.5913 17.7881C90.2377 17.3165 89.8042 16.9594 89.2911 16.7166C88.7848 16.4739 88.2093 16.3526 87.5643 16.3526C86.9402 16.3526 86.375 16.4739 85.8688 16.7166C85.3695 16.9594 84.9396 17.3165 84.579 17.7881C84.2253 18.2596 83.9514 18.8421 83.7572 19.5356C83.563 20.2291 83.466 21.0265 83.466 21.928V22.9058C83.466 23.8143 83.563 24.6187 83.7572 25.3191C83.9514 26.0126 84.2288 26.5985 84.5894 27.077C84.9569 27.5486 85.3903 27.9057 85.8896 28.1484C86.3958 28.3912 86.961 28.5125 87.5851 28.5125C88.237 28.5125 88.816 28.3912 89.3223 28.1484C89.8285 27.9057 90.255 27.5486 90.6017 27.077C90.9554 26.5985 91.2224 26.0126 91.4027 25.3191C91.583 24.6187 91.6731 23.8143 91.6731 22.9058ZM105.851 28.3669V30H98.2784V28.3669H105.851ZM98.6737 14.8547V30H96.6661V14.8547H98.6737ZM116.253 14.8547H118.25V25.1007C118.25 26.2379 117.997 27.1845 117.491 27.9404C116.985 28.6963 116.312 29.2649 115.473 29.6463C114.641 30.0208 113.736 30.208 112.758 30.208C111.732 30.208 110.802 30.0208 109.97 29.6463C109.145 29.2649 108.49 28.6963 108.004 27.9404C107.526 27.1845 107.287 26.2379 107.287 25.1007V14.8547H109.273V25.1007C109.273 25.8912 109.419 26.5431 109.71 27.0562C110.001 27.5694 110.407 27.9508 110.927 28.2005C111.454 28.4501 112.065 28.5749 112.758 28.5749C113.458 28.5749 114.069 28.4501 114.589 28.2005C115.116 27.9508 115.525 27.5694 115.816 27.0562C116.107 26.5431 116.253 25.8912 116.253 25.1007V14.8547ZM133.052 14.8547V30H131.034L123.41 18.3186V30H121.402V14.8547H123.41L131.066 26.5673V14.8547H133.052ZM141.894 14.8547V30H139.918V14.8547H141.894ZM146.762 14.8547V16.4982H135.06V14.8547H146.762ZM158.631 28.3669V30H150.611V28.3669H158.631ZM151.017 14.8547V30H149.009V14.8547H151.017ZM157.57 21.3663V22.9995H150.611V21.3663H157.57ZM158.527 14.8547V16.4982H150.611V14.8547H158.527ZM170.739 28.3669V30H162.719V28.3669H170.739ZM163.124 14.8547V30H161.117V14.8547H163.124ZM169.678 21.3663V22.9995H162.719V21.3663H169.678ZM170.635 14.8547V16.4982H162.719V14.8547H170.635ZM173.225 14.8547H178.239C179.376 14.8547 180.336 15.0281 181.12 15.3748C181.91 15.7215 182.51 16.2347 182.919 16.9143C183.336 17.5869 183.544 18.4156 183.544 19.4004C183.544 20.0938 183.401 20.7284 183.117 21.3039C182.84 21.8726 182.438 22.358 181.91 22.7602C181.39 23.1555 180.766 23.4502 180.038 23.6444L179.476 23.8628H174.764L174.743 22.2297H178.301C179.022 22.2297 179.622 22.1049 180.101 21.8552C180.579 21.5987 180.94 21.2554 181.182 20.8254C181.425 20.3955 181.546 19.9205 181.546 19.4004C181.546 18.8179 181.432 18.3082 181.203 17.8713C180.974 17.4344 180.614 17.0981 180.121 16.8623C179.636 16.6196 179.008 16.4982 178.239 16.4982H175.232V30H173.225V14.8547ZM182.077 30L178.395 23.1347L180.485 23.1243L184.22 29.8752V30H182.077Z" fill="black"/>
</svg>
