<svg width="15" height="18" viewBox="0 0 15 18" fill="none" xmlns="http://www.w3.org/2000/svg">
<path d="M7.5 7.75C8.19221 7.75 8.86894 7.54473 9.44451 7.16015C10.0201 6.77556 10.4687 6.22894 10.7336 5.5894C10.9985 4.94985 11.0678 4.24612 10.9327 3.56719C10.7977 2.88826 10.4643 2.26461 9.97485 1.77512C9.48537 1.28564 8.86176 0.952301 8.18285 0.817253C7.50385 0.682206 6.80018 0.751515 6.16064 1.01642C5.52107 1.28133 4.97444 1.72993 4.58986 2.30551C4.20528 2.88108 4 3.55777 4 4.25C4.00104 5.17794 4.37012 6.06758 5.02628 6.72372C5.68243 7.37988 6.57206 7.74896 7.5 7.75ZM7.5 2.5C7.84615 2.5 8.18443 2.60264 8.47221 2.79493C8.76 2.98723 8.98435 3.26053 9.11683 3.5803C9.24921 3.90008 9.28386 4.25194 9.2164 4.59141C9.14885 4.93087 8.98216 5.2427 8.73742 5.48744C8.49269 5.73218 8.18084 5.89885 7.84142 5.96637C7.50192 6.0339 7.15009 5.99925 6.83028 5.86679C6.51055 5.73434 6.2372 5.51004 6.04496 5.22225C5.85264 4.93446 5.75 4.59612 5.75 4.25C5.75052 3.78604 5.93506 3.34123 6.26319 3.01315C6.59123 2.68508 7.03608 2.50053 7.5 2.5ZM14.2436 12.3036C12.4538 10.5176 10.0285 9.51452 7.5 9.51452C4.97149 9.51452 2.54623 10.5176 0.756375 12.3036L0.5 12.56V17.375H14.5V12.56L14.2436 12.3036ZM12.75 15.625H2.25V13.296C3.68609 11.9889 5.55813 11.2645 7.5 11.2645C9.44189 11.2645 11.3139 11.9889 12.75 13.296V15.625Z" class="fill-target" />
</svg>
