<svg width="28" height="30" viewBox="0 0 28 30" fill="none" xmlns="http://www.w3.org/2000/svg">
  <path d="M12.1667 19.25V22.0834H15V19.25H12.1667ZM12.1667 13.5834V16.4167H15V13.5834H12.1667ZM12.1667 7.91669V10.75H15V7.91669H12.1667ZM17.8334 19.25V22.0834H20.6667V19.25H17.8334ZM17.8334 13.5834V16.4167H20.6667V13.5834H17.8334ZM17.8334 7.91669V10.75H20.6667V7.91669H17.8334ZM5.08337 6.50002H2.25004C1.87431 6.50002 1.51398 6.64934 1.2483 6.91496C0.982634 7.18059 0.833374 7.54099 0.833374 7.91669C0.833374 8.29239 0.982634 8.65279 1.2483 8.91841C1.51398 9.18404 1.87431 9.33335 2.25004 9.33335H5.08337L5.08337 20.6667H2.25004C1.87431 20.6667 1.51398 20.8159 1.2483 21.0816C0.982634 21.3473 0.833374 21.7076 0.833374 22.0834C0.833374 22.4591 0.982634 22.8194 1.2483 23.0851C1.51398 23.3508 1.87431 23.5 2.25004 23.5H5.08337V29.1667H27.75V0.833351H5.08337V6.50002ZM24.9167 3.66669V26.3334H7.91671L7.91671 3.66669H24.9167Z" class="bxi-fill-primary" />
</svg>