<svg width="44" height="48" viewBox="0 0 44 48" fill="none" xmlns="http://www.w3.org/2000/svg">
<path d="M40.9444 23.9555L37.6444 12.4666C37.0333 10.5111 35.3222 9.0444 33.2444 8.92218C32.8778 10.5111 32.3889 12.1 31.7778 13.3222C32.5111 13.5666 33.1222 14.3 33.2444 15.1555L34.9556 23.5888H8.92222L10.6333 15.1555C10.7556 14.3 11.3667 13.6888 12.1 13.3222C11.4889 11.9777 11 10.5111 10.7556 8.92218C8.67778 9.0444 6.96667 10.3888 6.35556 12.4666L3.05556 23.9555C1.22222 24.5666 0 26.4 0 28.4777V40.0888C0 40.4555 0.244444 40.7 0.611111 40.7H1.22222V44.9777C1.22222 46.3222 2.32222 47.4222 3.66667 47.4222H6.11111C7.45556 47.4222 8.55556 46.3222 8.55556 44.9777V40.7H35.4444V44.9777C35.4444 46.3222 36.5444 47.4222 37.8889 47.4222H40.3333C41.6778 47.4222 42.7778 46.3222 42.7778 44.9777V40.7H43.3889C43.7556 40.7 44 40.4555 44 40.0888V28.4777C44 26.4 42.7778 24.5666 40.9444 23.9555ZM8.55556 35.8111C6.47778 35.8111 4.88889 34.2222 4.88889 32.1444C4.88889 30.0666 6.47778 28.4777 8.55556 28.4777C10.6333 28.4777 12.2222 30.0666 12.2222 32.1444C12.2222 34.1 10.6333 35.8111 8.55556 35.8111ZM25.6667 33.9777H18.3333C17.3556 33.9777 16.5 33.1222 16.5 32.1444C16.5 31.1666 17.3556 30.3111 18.3333 30.3111H25.6667C26.6444 30.3111 27.5 31.1666 27.5 32.1444C27.5 33.1222 26.6444 33.9777 25.6667 33.9777ZM35.4444 35.8111C33.3667 35.8111 31.7778 34.2222 31.7778 32.1444C31.7778 30.0666 33.3667 28.4777 35.4444 28.4777C37.5222 28.4777 39.1111 30.0666 39.1111 32.1444C39.1111 34.1 37.5222 35.8111 35.4444 35.8111Z" class="bxi-fill-secondary" />
<path d="M29.9444 4.03332C26.8888 3.66665 23.8333 1.34443 22.6111 0.24443C22.2444 -1.49154e-05 21.7555 -1.49154e-05 21.3888 0.24443C20.1666 1.34443 17.2333 3.66665 14.0555 4.03332C13.5666 4.03332 13.2 4.52221 13.2 5.0111C13.5666 14.4222 19.8 18.4555 21.5111 19.4333C21.7555 19.5555 22.1222 19.5555 22.3666 19.4333C24.0777 18.4555 30.3111 14.3 30.6777 5.0111C30.7999 4.52221 30.4333 4.03332 29.9444 4.03332ZM21.9999 12.2222C20.6555 12.2222 19.5555 11.1222 19.5555 9.77776C19.5555 8.43332 20.6555 7.33332 21.9999 7.33332C23.3444 7.33332 24.4444 8.43332 24.4444 9.77776C24.4444 11.1222 23.3444 12.2222 21.9999 12.2222Z" class="bxi-fill-primary" />
</svg>
