<svg width="45" height="46" viewBox="0 0 45 46" fill="none" xmlns="http://www.w3.org/2000/svg">
<path d="M42.3995 17.5375C40.7035 17.425 39.2337 18.6625 39.2337 20.35V27.1C39.1206 28.5625 38.5553 30.025 37.5377 31.0375L34.7111 33.85C34.1457 34.4125 33.2412 34.4125 32.6759 33.85C32.1106 33.2875 32.1106 32.3875 32.6759 31.825L35.5025 29.0125C36.5201 28 36.6332 26.5375 35.8417 25.4125C34.8241 24.175 33.0151 24.175 31.9975 25.1875L26.3442 30.8125C25.1005 32.05 24.309 33.85 24.309 35.5375V38.9125C24.309 39.25 24.5352 39.475 24.8744 39.475H36.5201C36.6332 39.475 36.8593 39.3625 36.9724 39.25L43.304 31.825C44.3216 30.5875 44.8869 29.0125 44.8869 27.4375V20.4625C45 19.1125 43.8693 17.7625 42.3995 17.5375ZM12.8894 25.1875C11.7588 24.0625 10.0628 24.175 9.04523 25.4125C8.1407 26.425 8.36683 28 9.38442 29.0125L12.2111 31.825C12.7764 32.3875 12.7764 33.2875 12.2111 33.85C11.6457 34.4125 10.7412 34.4125 10.1759 33.85L7.34925 31.0375C6.33166 30.025 5.65327 28.5625 5.65327 27.1V20.35C5.65327 18.6625 4.18342 17.425 2.48744 17.5375C1.01759 17.7625 0 19.1125 0 20.575V27.55C0 29.125 0.565327 30.7 1.58291 31.9375L7.91457 39.25C8.02764 39.3625 8.1407 39.475 8.36683 39.475H20.0126C20.3518 39.475 20.5779 39.25 20.5779 38.9125V35.5375C20.5779 33.7375 19.8995 32.05 18.5427 30.8125L12.8894 25.1875Z" class="bxi-fill-secondary" />
<path d="M36.294 42.625H24.6483C24.3091 42.625 24.083 42.85 24.083 43.1875V45.4375C24.083 45.775 24.3091 46 24.6483 46H36.294C36.6332 46 36.8593 45.775 36.8593 45.4375V43.1875C36.8593 42.85 36.6332 42.625 36.294 42.625ZM20.3518 42.625H8.70607C8.36688 42.625 8.14075 42.85 8.14075 43.1875V45.4375C8.14075 45.775 8.36688 46 8.70607 46H20.3518C20.691 46 20.9171 45.775 20.9171 45.4375V43.1875C20.9171 42.85 20.5779 42.625 20.3518 42.625Z" class="bxi-fill-secondary" />
<path d="M28.3356 0C27.1659 0.0562989 26.0264 0.393638 25.0115 0.984038C23.9965 1.57443 23.1356 2.40085 22.5 3.39474C21.8644 2.40086 21.0035 1.57445 19.9886 0.984063C18.9737 0.393676 17.8342 0.0563242 16.6645 0C12.4455 0 10 3.2832 10 7.33326C10 13.3333 18.0729 21.0001 22.5 24C26.9271 21.0001 35 13.3333 35 7.33326C35 3.2832 32.5545 0 28.3356 0Z" class="bxi-fill-primary" />
</svg>
