<svg width="48" height="47" viewBox="0 0 48 47" fill="none" xmlns="http://www.w3.org/2000/svg">
<path d="M45.8698 5.36336H23.858C23.858 5.5045 23.858 5.78678 23.858 5.92792C23.716 8.6096 23.2899 11.009 22.5799 13.1261H27.4083C27.8343 13.1261 28.1183 13.4084 28.1183 13.8318V18.0661C28.1183 18.4895 27.8343 18.7718 27.4083 18.7718H20.3077C20.1657 18.7718 20.0237 18.7718 19.8817 18.6306C18.4615 20.7477 16.7574 22.4414 15.3373 23.5706V46.2943C15.3373 46.7177 15.6213 47 16.0473 47H44.4497C44.8757 47 45.1598 46.7177 45.1598 46.2943V9.59759H45.8698C47.0059 9.59759 48 8.6096 48 7.48048C48 6.2102 47.0059 5.36336 45.8698 5.36336ZM28.1183 40.6486C28.1183 41.0721 27.8343 41.3544 27.4083 41.3544H20.3077C19.8817 41.3544 19.5976 41.0721 19.5976 40.6486V36.4144C19.5976 35.991 19.8817 35.7087 20.3077 35.7087H27.4083C27.8343 35.7087 28.1183 35.991 28.1183 36.4144V40.6486ZM28.1183 29.3574C28.1183 29.7808 27.8343 30.0631 27.4083 30.0631H20.3077C19.8817 30.0631 19.5976 29.7808 19.5976 29.3574V25.1231C19.5976 24.6997 19.8817 24.4174 20.3077 24.4174H27.4083C27.8343 24.4174 28.1183 24.6997 28.1183 25.1231V29.3574ZM40.8994 40.6486C40.8994 41.0721 40.6154 41.3544 40.1893 41.3544H33.0888C32.6627 41.3544 32.3787 41.0721 32.3787 40.6486V36.4144C32.3787 35.991 32.6627 35.7087 33.0888 35.7087H40.1893C40.6154 35.7087 40.8994 35.991 40.8994 36.4144V40.6486ZM40.8994 29.3574C40.8994 29.7808 40.6154 30.0631 40.1893 30.0631H33.0888C32.6627 30.0631 32.3787 29.7808 32.3787 29.3574V25.1231C32.3787 24.6997 32.6627 24.4174 33.0888 24.4174H40.1893C40.6154 24.4174 40.8994 24.6997 40.8994 25.1231V29.3574ZM40.8994 18.0661C40.8994 18.4895 40.6154 18.7718 40.1893 18.7718H33.0888C32.6627 18.7718 32.3787 18.4895 32.3787 18.0661V13.8318C32.3787 13.4084 32.6627 13.1261 33.0888 13.1261H40.1893C40.6154 13.1261 40.8994 13.4084 40.8994 13.8318V18.0661Z" class="bxi-fill-secondary" />
<path d="M19.3136 4.65765C15.7633 4.23423 12.213 1.55255 10.7929 0.282276C10.3669 -6.29574e-06 9.79882 -6.29574e-06 9.37278 0.282276C7.95266 1.55255 4.54438 4.23423 0.852071 4.65765C0.426036 4.65765 0 5.22222 0 5.78678C0.426036 16.6546 7.66864 21.3123 9.65681 22.4414C9.94083 22.5826 10.3669 22.5826 10.6509 22.4414C12.6391 21.3123 19.8817 16.5135 20.3077 5.78678C20.3077 5.22222 19.8817 4.65765 19.3136 4.65765ZM10.0828 14.1141C8.52071 14.1141 7.2426 12.8438 7.2426 11.2913C7.2426 9.73873 8.52071 8.46846 10.0828 8.46846C11.645 8.46846 12.9231 9.73873 12.9231 11.2913C12.9231 12.8438 11.787 14.1141 10.0828 14.1141Z" class="bxi-fill-primary" />
</svg>
