<svg width="44" height="48" viewBox="0 0 44 48" fill="none" xmlns="http://www.w3.org/2000/svg">
<path d="M41.7243 9.81153C34.1786 8.85334 26.8725 3.22403 23.8782 0.589026C23.0398 -0.12961 21.7223 -0.12961 20.8839 0.589026C17.8895 3.22403 10.5834 8.85334 3.03772 9.81153C1.83999 9.9313 0.881812 11.0093 1.00158 12.207C1.95977 35.2034 17.0511 45.2643 21.363 47.6597C22.0816 48.019 22.92 48.019 23.6386 47.6597C27.9505 45.2643 43.0418 35.2034 44 12.207C43.8802 11.0093 43.0418 9.9313 41.7243 9.81153ZM22.4409 35.3231C16.0929 35.3231 11.0625 30.1729 11.0625 23.9447C11.0625 17.5968 16.2127 12.5663 22.4409 12.5663C28.7889 12.5663 33.8193 17.7165 33.8193 23.9447C33.8193 30.2927 28.6691 35.3231 22.4409 35.3231Z" class="bxi-fill-secondary" />
<path d="M24.477 23.3458L21.7223 21.9085C21.1234 21.5492 21.1234 20.9504 21.2432 20.8306C21.2432 20.591 21.4827 20.112 22.0816 19.9922C22.92 19.8724 23.6386 20.3515 23.8782 21.0701C24.2375 21.7888 25.0759 22.1481 25.7945 21.7888C26.5132 21.4295 26.8725 20.591 26.5132 19.8724C26.0341 18.7945 25.1957 17.956 24.1177 17.3572V16.7583C24.1177 15.9199 23.3991 15.321 22.6804 15.321C21.842 15.321 21.2432 16.0397 21.2432 16.7583V17.2374C19.6861 17.5967 18.6082 18.7945 18.2489 20.3515C17.8895 22.1481 18.7279 23.8249 20.4048 24.6633L23.1595 26.1006C23.7584 26.4599 23.7584 27.0588 23.6386 27.1785C23.6386 27.4181 23.5189 27.8972 22.92 28.017H22.8002C21.9618 28.1367 21.2432 27.6576 21.0036 26.939C20.6443 26.2204 19.8059 25.861 19.0873 26.2204C18.3686 26.5797 18.0093 27.4181 18.3686 28.1367C18.9675 29.4542 20.0454 30.4124 21.3629 30.8915V31.131C21.3629 31.9695 22.0816 32.5683 22.8002 32.5683C23.6386 32.5683 24.2375 31.8497 24.2375 31.131V30.652C25.555 30.1729 26.3934 29.0949 26.6329 27.6576C26.8725 25.861 26.0341 24.1842 24.477 23.3458Z" class="bxi-fill-primary" />
</svg>
