<svg width="194" height="45" viewBox="0 0 194 45" fill="none" xmlns="http://www.w3.org/2000/svg">
<path d="M10 30.5209V14.5476H17.3412C18.4964 14.5476 19.4691 14.7073 20.2595 15.0268C21.0651 15.3463 21.673 15.795 22.0834 16.3731C22.509 16.9512 22.7218 17.6282 22.7218 18.404C22.7218 19.3624 22.5014 20.1534 22.0606 20.7772C21.635 21.4009 21.0043 21.8192 20.1683 22.0322L20.0999 21.5986C20.7991 21.766 21.407 22.0398 21.9238 22.4201C22.4406 22.7852 22.8434 23.234 23.1322 23.7665C23.4209 24.2989 23.5653 24.9074 23.5653 25.592C23.5653 26.4287 23.4133 27.1589 23.1094 27.7826C22.8054 28.3911 22.3722 28.9007 21.8098 29.3115C21.2626 29.7222 20.6243 30.0265 19.8947 30.2242C19.1804 30.422 18.4052 30.5209 17.5692 30.5209H10ZM14.5598 26.6416H17.4324C17.7212 26.6416 17.9644 26.596 18.162 26.5047C18.3596 26.3982 18.5116 26.2461 18.618 26.0484C18.7244 25.8354 18.7776 25.5844 18.7776 25.2953C18.7776 25.0367 18.7168 24.8237 18.5952 24.6564C18.4888 24.4738 18.3292 24.3369 18.1164 24.2457C17.9036 24.1392 17.6376 24.0859 17.3184 24.0859H14.5598V26.6416ZM14.5598 20.8H16.4977C16.8473 20.8 17.1285 20.7543 17.3412 20.6631C17.5692 20.5718 17.7288 20.4425 17.82 20.2751C17.9264 20.0926 17.9796 19.872 17.9796 19.6134C17.9796 19.2635 17.858 18.9821 17.6148 18.7691C17.3868 18.5409 16.9993 18.4268 16.4521 18.4268H14.5598V20.8Z" fill="black"/>
<path d="M34.4686 30.5209L29.5213 23.3557L23.1832 14.5476H29.0881L33.9215 21.6215L40.3735 30.5209H34.4686ZM34.2862 23.1047L30 21.3705L33.0412 17.3632C34.8882 14.9294 37.7675 13.5 40.8227 13.5L34.2862 23.1047Z" fill="black"/>
<path d="M29.1793 21.8953L33.4655 23.6295L30.1511 27.9968C28.4761 30.2039 25.8663 31.5 23.0972 31.5H22.6428L29.1793 21.8953Z" fill="black"/>
<path d="M60.1889 21.943L56.2812 22.8061V27.1374C56.2812 27.9063 56.5637 28.6282 57.0973 29.1774C57.9447 30.072 58.9334 30.8252 60.0005 31.4058L60.1888 31.5L60.3771 31.4058C61.46 30.8252 62.4329 30.0719 63.296 29.1774C63.8139 28.6282 64.1121 27.8906 64.1121 27.1374V22.8061L60.1889 21.943Z" fill="#EA591A"/>
<path d="M55.4497 22.1313L60.1888 21.0956L60.2673 21.1113V18.7573L61.2716 19.2752C61.3972 19.3694 61.5541 19.4164 61.7267 19.4164C61.9778 19.4164 62.2289 19.2909 62.3702 19.0869C62.4957 18.9143 62.5428 18.6945 62.5114 18.4905C62.48 18.2866 62.3702 18.0982 62.1976 17.957L62.1819 17.9413L53.9745 13.6412C53.7077 13.4529 53.3468 13.4529 53.08 13.6412L44.8727 17.9567L44.857 17.9724C44.6843 18.098 44.5745 18.2863 44.5431 18.506C44.5117 18.71 44.5588 18.9297 44.6843 19.1023C44.9354 19.4476 45.4219 19.526 45.7829 19.2906L46.7872 18.7727V27.7333C46.7872 27.9844 46.9912 28.1885 47.2423 28.1885H55.6068C55.5126 27.8589 55.4655 27.5137 55.4655 27.1527V22.131L55.4497 22.1313Z" fill="#EA591A"/>
<path d="M71.7339 14.8547V30H69.7263V14.8547H71.7339ZM87.0352 14.8547V30H85.0173L77.3926 18.3186V30H75.385V14.8547H77.3926L85.0485 26.5673V14.8547H87.0352ZM98.6647 26.1721C98.6647 25.8184 98.6092 25.5063 98.4983 25.2359C98.3942 24.9585 98.207 24.7088 97.9365 24.4869C97.673 24.265 97.3055 24.0535 96.8339 23.8524C96.3693 23.6513 95.7799 23.4467 95.0656 23.2387C94.3166 23.0168 93.6405 22.7706 93.0372 22.5002C92.4339 22.2228 91.9173 21.9072 91.4873 21.5536C91.0574 21.1999 90.728 20.7942 90.4991 20.3365C90.2703 19.8789 90.1558 19.3553 90.1558 18.7658C90.1558 18.1764 90.2772 17.632 90.5199 17.1327C90.7626 16.6334 91.1094 16.2 91.5601 15.8325C92.0178 15.458 92.5622 15.1667 93.1932 14.9587C93.8243 14.7507 94.5282 14.6466 95.3048 14.6466C96.4421 14.6466 97.406 14.8651 98.1966 15.302C98.9941 15.7319 99.6009 16.2971 100.017 16.9975C100.433 17.691 100.641 18.433 100.641 19.2235H98.6439C98.6439 18.6549 98.5225 18.1521 98.2798 17.7152C98.0371 17.2714 97.6696 16.9247 97.1772 16.675C96.6848 16.4185 96.0607 16.2902 95.3048 16.2902C94.5906 16.2902 94.0011 16.3977 93.5365 16.6126C93.0719 16.8276 92.7251 17.1189 92.4963 17.4864C92.2744 17.8539 92.1634 18.2735 92.1634 18.745C92.1634 19.064 92.2293 19.3553 92.3611 19.6188C92.4998 19.8754 92.7113 20.1146 92.9956 20.3365C93.2868 20.5585 93.6544 20.763 94.0982 20.9503C94.549 21.1375 95.0864 21.3178 95.7105 21.4912C96.5704 21.7339 97.3124 22.0043 97.9365 22.3025C98.5607 22.6007 99.0738 22.937 99.476 23.3115C99.8852 23.6791 100.187 24.0986 100.381 24.5702C100.582 25.0348 100.683 25.5618 100.683 26.1513C100.683 26.7684 100.558 27.3267 100.308 27.826C100.059 28.3253 99.7014 28.7518 99.2368 29.1054C98.7722 29.4591 98.2139 29.733 97.5621 29.9272C96.9171 30.1144 96.1959 30.208 95.3985 30.208C94.6981 30.208 94.0081 30.111 93.3285 29.9168C92.6558 29.7226 92.0421 29.4314 91.4873 29.043C90.9395 28.6547 90.4991 28.1762 90.1662 27.6075C89.8403 27.032 89.6774 26.3662 89.6774 25.6104H91.6745C91.6745 26.1305 91.7751 26.5777 91.9762 26.9522C92.1773 27.3198 92.4512 27.6249 92.798 27.8676C93.1516 28.1103 93.5504 28.2906 93.9942 28.4085C94.4449 28.5194 94.913 28.5749 95.3985 28.5749C96.0989 28.5749 96.6918 28.4778 97.1772 28.2837C97.6626 28.0895 98.0302 27.8121 98.2798 27.4515C98.5364 27.0909 98.6647 26.6644 98.6647 26.1721ZM111.906 14.8547H113.904V25.1007C113.904 26.2379 113.65 27.1845 113.144 27.9404C112.638 28.6963 111.965 29.2649 111.126 29.6463C110.294 30.0208 109.389 30.208 108.411 30.208C107.385 30.208 106.456 30.0208 105.624 29.6463C104.798 29.2649 104.143 28.6963 103.658 27.9404C103.179 27.1845 102.94 26.2379 102.94 25.1007V14.8547H104.927V25.1007C104.927 25.8912 105.072 26.5431 105.364 27.0562C105.655 27.5694 106.061 27.9508 106.581 28.2005C107.108 28.4501 107.718 28.5749 108.411 28.5749C109.112 28.5749 109.722 28.4501 110.242 28.2005C110.769 27.9508 111.178 27.5694 111.47 27.0562C111.761 26.5431 111.906 25.8912 111.906 25.1007V14.8547ZM117.055 14.8547H122.069C123.206 14.8547 124.167 15.0281 124.951 15.3748C125.741 15.7215 126.341 16.2347 126.75 16.9143C127.166 17.5869 127.374 18.4156 127.374 19.4004C127.374 20.0938 127.232 20.7284 126.948 21.3039C126.67 21.8726 126.268 22.358 125.741 22.7602C125.221 23.1555 124.597 23.4502 123.869 23.6444L123.307 23.8628H118.595L118.574 22.2297H122.132C122.853 22.2297 123.453 22.1049 123.931 21.8552C124.41 21.5987 124.77 21.2554 125.013 20.8254C125.256 20.3955 125.377 19.9205 125.377 19.4004C125.377 18.8179 125.263 18.3082 125.034 17.8713C124.805 17.4344 124.444 17.0981 123.952 16.8623C123.467 16.6196 122.839 16.4982 122.069 16.4982H119.063V30H117.055V14.8547ZM125.908 30L122.225 23.1347L124.316 23.1243L128.05 29.8752V30H125.908ZM135.789 16.1965L130.776 30H128.726L134.5 14.8547H135.821L135.789 16.1965ZM139.992 30L134.968 16.1965L134.936 14.8547H136.258L142.051 30H139.992ZM139.732 24.3933V26.0368H131.223V24.3933H139.732ZM155.73 14.8547V30H153.712L146.087 18.3186V30H144.08V14.8547H146.087L153.743 26.5673V14.8547H155.73ZM168.431 25.1839H170.428C170.324 26.1409 170.05 26.9973 169.606 27.7532C169.163 28.509 168.535 29.1089 167.724 29.5527C166.912 29.9896 165.9 30.208 164.686 30.208C163.799 30.208 162.991 30.0416 162.263 29.7087C161.541 29.3759 160.921 28.9043 160.401 28.2941C159.88 27.6769 159.478 26.9383 159.194 26.0784C158.917 25.2116 158.778 24.2477 158.778 23.1867V21.6784C158.778 20.6174 158.917 19.6569 159.194 18.797C159.478 17.9302 159.884 17.1882 160.411 16.571C160.945 15.9538 161.586 15.4788 162.335 15.1459C163.084 14.8131 163.927 14.6466 164.863 14.6466C166.007 14.6466 166.975 14.8616 167.765 15.2916C168.556 15.7215 169.169 16.3179 169.606 17.0807C170.05 17.8366 170.324 18.7138 170.428 19.7124H168.431C168.334 19.0051 168.154 18.3983 167.89 17.8921C167.626 17.3789 167.252 16.9836 166.767 16.7062C166.281 16.4289 165.647 16.2902 164.863 16.2902C164.19 16.2902 163.597 16.4185 163.084 16.675C162.578 16.9316 162.152 17.2957 161.805 17.7672C161.465 18.2388 161.208 18.804 161.035 19.4628C160.862 20.1216 160.775 20.8532 160.775 21.6576V23.1867C160.775 23.9287 160.851 24.6256 161.004 25.2775C161.163 25.9294 161.403 26.5015 161.722 26.9938C162.041 27.4862 162.446 27.8745 162.939 28.1588C163.431 28.4362 164.014 28.5749 164.686 28.5749C165.539 28.5749 166.219 28.4397 166.725 28.1692C167.231 27.8988 167.613 27.5105 167.869 27.0042C168.133 26.498 168.32 25.8912 168.431 25.1839ZM182.786 28.3669V30H174.766V28.3669H182.786ZM175.171 14.8547V30H173.164V14.8547H175.171ZM181.725 21.3663V22.9995H174.766V21.3663H181.725ZM182.682 14.8547V16.4982H174.766V14.8547H182.682Z" fill="black"/>
</svg>
