<svg width="45" height="48" viewBox="0 0 45 48" fill="none" xmlns="http://www.w3.org/2000/svg">
<path d="M42.4286 44.1804H5.78575C4.75718 44.1804 3.85718 45.0717 3.85718 46.0902C3.85718 47.1088 4.75718 48 5.78575 48H42.4286C43.4572 48 44.3572 47.1088 44.3572 46.0902C44.3572 45.0717 43.4572 44.1804 42.4286 44.1804Z" class="bxi-fill-secondary"/>
<rect x="5" y="9" width="38" height="24" class="bxi-fill-primary" />
<path d="M42.4286 0H5.14286C3.72857 0 2.57143 1.14589 2.57143 2.54642V5.22016C1.15714 5.4748 0 6.74801 0 8.27586V14.6419C0 16.1698 1.15714 17.443 2.57143 17.6976V24.191C1.15714 24.4456 0 25.7188 0 27.2467V32.3395C0 33.8674 1.15714 35.1406 2.57143 35.3952V38.1963C2.57143 39.5968 3.72857 40.7427 5.14286 40.7427H42.4286C43.8429 40.7427 45 39.5968 45 38.1963V2.54642C45 1.14589 43.8429 0 42.4286 0ZM13.1143 20.626V27.374C13.1143 28.2653 12.3429 28.9019 11.5714 28.9019C10.8 28.9019 10.0286 28.1379 10.0286 27.374V20.626C8.74286 19.9894 7.71429 18.7162 7.71429 17.1883C7.71429 15.0239 9.38571 13.3687 11.5714 13.3687C13.7571 13.3687 15.4286 15.0239 15.4286 17.1883C15.4286 18.7162 14.5286 19.9894 13.1143 20.626ZM39.2143 21.8992H37.1571C37.0286 22.6631 36.6429 23.2997 36.2571 23.9363L37.8 25.4642C38.4429 26.1008 38.4429 27.1194 37.8 27.756C37.5429 28.0106 37.0286 28.2653 36.6429 28.2653C36.2571 28.2653 35.8714 28.1379 35.4857 27.756L33.9429 26.2281C33.3 26.6101 32.5286 26.8647 31.8857 27.1194V29.2838C31.8857 30.1751 31.1143 30.8117 30.3429 30.8117C29.4429 30.8117 28.8 30.0477 28.8 29.2838V27.2467C28.0286 27.1194 27.3857 26.7374 26.7429 26.3554L25.2 27.8833C24.9429 28.1379 24.4286 28.3926 24.0429 28.3926C23.6571 28.3926 23.2714 28.2653 22.8857 27.8833C22.2429 27.2467 22.2429 26.2281 22.8857 25.5915L24.4286 24.0637C24.0429 23.4271 23.7857 22.6631 23.5286 22.0265H21.4714C20.5714 22.0265 19.8 21.2626 19.8 20.4987C19.8 19.6074 20.5714 18.9708 21.4714 18.9708H23.5286C23.6571 18.2069 24.0429 17.5703 24.4286 16.9337L22.8857 15.4058C22.2429 14.7692 22.2429 13.7507 22.8857 13.1141C23.5286 12.4775 24.5571 12.4775 25.2 13.1141L26.7429 14.6419C27.3857 14.2599 28.1571 14.0053 28.8 13.7507V11.4589C28.8 10.5676 29.5714 9.93104 30.3429 9.93104C31.2429 9.93104 31.8857 10.695 31.8857 11.4589V13.496C32.6571 13.6233 33.3 14.0053 33.9429 14.3873L35.4857 12.8594C36.1286 12.2228 37.1571 12.2228 37.8 12.8594C38.4429 13.496 38.4429 14.5146 37.8 15.1512L36.2571 16.679C36.6429 17.3157 36.9 18.0796 37.1571 18.7162H39.2143C40.1143 18.7162 40.7571 19.4801 40.7571 20.244C40.7571 21.2626 40.1143 21.8992 39.2143 21.8992ZM30.2143 17.1883C28.4143 17.1883 27 18.5889 27 20.3714C27 22.1538 28.4143 23.5544 30.2143 23.5544C32.0143 23.5544 33.4286 22.1538 33.4286 20.3714C33.4286 18.5889 32.0143 17.1883 30.2143 17.1883Z" class="bxi-fill-secondary"/>
</svg>
