<svg width="49" height="47" viewBox="0 0 49 47" fill="none" xmlns="http://www.w3.org/2000/svg">
<path d="M24.9298 39.7218L25.2982 33.6772C23.7018 32.0735 23.9474 29.853 24.0702 28.3727C24.0702 28.126 24.0702 27.8793 24.193 27.6325C24.0702 27.5092 23.8246 27.3858 23.7018 27.1391C22.5965 26.2756 20.7544 24.7953 20.7544 22.4514C20.7544 20.1076 22.4737 18.7507 23.7018 17.7638C23.8246 17.6404 24.0702 17.5171 24.193 17.2703C24.193 17.0236 24.193 16.7769 24.0702 16.5302C23.9474 15.0499 23.7018 12.9528 25.2982 11.2257C25.6667 10.8556 26.0351 10.6089 26.5263 10.3622L26.6491 7.64829C26.7719 4.81102 24.4386 0 21.3684 0C18.2982 0 15.8421 4.81102 15.9649 7.89501L16.3333 15.5433L0 25.5354V32.3202L17.0702 27.0157L17.6842 39.7218L11.1754 42.4357V47H31.4386V42.4357L24.9298 39.7218Z" class="bxi-fill-secondary" />
<path d="M45.6842 18.7507C45.0702 17.3937 46.2983 14.6798 45.3158 13.6929C44.3334 12.706 41.6316 13.8163 40.2807 13.3228C38.9298 12.706 37.9474 9.86877 36.3509 9.86877C34.7544 9.86877 33.772 12.5827 32.5439 13.1995C31.193 13.8163 28.4913 12.5827 27.5088 13.5696C26.5263 14.5564 27.6316 17.2703 27.1404 18.6273C26.5263 19.9843 23.8246 20.9711 23.8246 22.4515C23.8246 24.0551 26.5263 25.042 27.1404 26.2756C27.7544 27.6326 26.5263 30.3465 27.5088 31.3333C28.4913 32.3202 31.193 31.21 32.5439 31.7034C33.8948 32.3202 34.8772 35.0341 36.3509 35.0341C37.9474 35.0341 38.9298 32.3202 40.1579 31.7034C41.5088 31.0866 44.2105 32.3202 45.193 31.3333C46.1755 30.3465 45.0702 27.6326 45.5614 26.2756C46.1755 24.9186 48.8772 23.9318 48.8772 22.4515C49 20.9711 46.2983 19.9843 45.6842 18.7507ZM36.3509 29.7297C35.3684 29.7297 34.5088 28.8662 34.5088 27.8793C34.5088 26.8924 35.3684 26.0289 36.3509 26.0289C37.3334 26.0289 38.193 26.8924 38.193 27.8793C38.193 28.9895 37.4562 29.7297 36.3509 29.7297ZM38.193 22.8215C38.193 23.8084 37.3334 24.6719 36.3509 24.6719C35.3684 24.6719 34.5088 23.8084 34.5088 22.8215V17.147C34.5088 16.1601 35.3684 15.2966 36.3509 15.2966C37.3334 15.2966 38.193 16.1601 38.193 17.147V22.8215Z" class="bxi-fill-primary" />
</svg>
