<svg width="146" height="45" viewBox="0 0 146 45" fill="none" xmlns="http://www.w3.org/2000/svg">
<path d="M10 30.5209V14.5476H17.3412C18.4964 14.5476 19.4691 14.7073 20.2595 15.0268C21.0651 15.3463 21.673 15.795 22.0834 16.3731C22.509 16.9512 22.7218 17.6282 22.7218 18.404C22.7218 19.3624 22.5014 20.1534 22.0606 20.7772C21.635 21.4009 21.0043 21.8192 20.1683 22.0322L20.0999 21.5986C20.7991 21.766 21.407 22.0398 21.9238 22.4201C22.4406 22.7852 22.8434 23.234 23.1322 23.7665C23.4209 24.2989 23.5653 24.9074 23.5653 25.592C23.5653 26.4287 23.4133 27.1589 23.1094 27.7826C22.8054 28.3911 22.3722 28.9007 21.8098 29.3115C21.2626 29.7222 20.6243 30.0265 19.8947 30.2242C19.1804 30.422 18.4052 30.5209 17.5692 30.5209H10ZM14.5598 26.6416H17.4324C17.7212 26.6416 17.9644 26.596 18.162 26.5047C18.3596 26.3982 18.5116 26.2461 18.618 26.0484C18.7244 25.8354 18.7776 25.5844 18.7776 25.2953C18.7776 25.0367 18.7168 24.8237 18.5952 24.6564C18.4888 24.4738 18.3292 24.3369 18.1164 24.2457C17.9036 24.1392 17.6376 24.0859 17.3184 24.0859H14.5598V26.6416ZM14.5598 20.8H16.4977C16.8473 20.8 17.1285 20.7543 17.3412 20.6631C17.5692 20.5718 17.7288 20.4425 17.82 20.2751C17.9264 20.0926 17.9796 19.872 17.9796 19.6134C17.9796 19.2635 17.858 18.9821 17.6148 18.7691C17.3868 18.5409 16.9993 18.4268 16.4521 18.4268H14.5598V20.8Z" fill="black"/>
<path d="M34.4686 30.5209L29.5213 23.3557L23.1832 14.5476H29.0881L33.9215 21.6215L40.3735 30.5209H34.4686ZM34.2862 23.1047L30 21.3705L33.0412 17.3632C34.8882 14.9294 37.7675 13.5 40.8227 13.5L34.2862 23.1047Z" fill="black"/>
<path d="M29.1793 21.8953L33.4655 23.6295L30.1511 27.9968C28.4761 30.2039 25.8663 31.5 23.0972 31.5H22.6428L29.1793 21.8953Z" fill="black"/>
<path fill-rule="evenodd" clip-rule="evenodd" d="M56.9521 20.4333L52.0738 17.2072C51.6593 16.9328 50.9868 16.9328 50.5723 17.2072L45.6937 20.4333C45.2791 20.7077 44.9429 21.3327 44.9429 21.8304V29.5996C44.9429 30.0965 45.3459 30.5 45.843 30.5H56.8023C57.2997 30.5 57.7027 30.0965 57.7027 29.5996V21.8304C57.7027 21.3327 57.3665 20.7077 56.952 20.4333H56.9521ZM52.1008 24.9021L53.0617 28.7522C53.0962 28.8887 53.0099 28.9984 52.8693 28.9984H49.7763C49.6355 28.9984 49.5495 28.8885 49.5837 28.7522L50.5447 24.9021C50.5786 24.7668 50.5006 24.6121 50.3811 24.539C49.8659 24.2215 49.5221 23.6527 49.5221 23.004C49.5221 22.0097 50.3283 21.2032 51.3226 21.2032C52.3169 21.2032 53.1234 22.0094 53.1234 23.004C53.1234 23.6527 52.7796 24.2216 52.2644 24.539C52.1448 24.6121 52.067 24.7668 52.1008 24.9021H52.1008Z" fill="#2099D3"/>
<path fill-rule="evenodd" clip-rule="evenodd" d="M45.1967 19.6825L50.0753 16.4567C50.7672 15.9985 51.878 15.9985 52.5705 16.4567L57.4484 19.6825C57.5368 19.7405 57.6216 19.8083 57.703 19.8812V17.3288C57.703 16.8315 57.3667 16.2059 56.9521 15.9316L52.0738 12.7058C51.6593 12.4314 50.9868 12.4314 50.5723 12.7058L45.6937 15.9316C45.2791 16.2059 44.9429 16.8315 44.9429 17.3288V19.8812C45.0237 19.8083 45.1085 19.7405 45.1969 19.6825H45.1967Z" fill="#2099D3"/>
<path d="M63.5807 14.8547H68.5945C69.7317 14.8547 70.6922 15.0281 71.4758 15.3748C72.2664 15.7215 72.8662 16.2347 73.2754 16.9143C73.6914 17.5869 73.8995 18.4156 73.8995 19.4004C73.8995 20.0938 73.7573 20.7284 73.473 21.3039C73.1956 21.8726 72.7934 22.358 72.2664 22.7602C71.7463 23.1555 71.1221 23.4502 70.394 23.6444L69.8323 23.8628H65.1202L65.0994 22.2297H68.6569C69.3781 22.2297 69.9779 22.1049 70.4564 21.8552C70.9349 21.5987 71.2955 21.2554 71.5382 20.8254C71.7809 20.3955 71.9023 19.9205 71.9023 19.4004C71.9023 18.8179 71.7879 18.3082 71.559 17.8713C71.3302 17.4344 70.9696 17.0981 70.4772 16.8623C69.9918 16.6196 69.3642 16.4982 68.5945 16.4982H65.5883V30H63.5807V14.8547ZM72.4328 30L68.7505 23.1347L70.8413 23.1243L74.5756 29.8752V30H72.4328ZM86.3299 28.3669V30H78.3099V28.3669H86.3299ZM78.7156 14.8547V30H76.708V14.8547H78.7156ZM85.2689 21.3663V22.9995H78.3099V21.3663H85.2689ZM86.2258 14.8547V16.4982H78.3099V14.8547H86.2258ZM94.4226 16.1965L89.4089 30H87.3597L93.1328 14.8547H94.4538L94.4226 16.1965ZM98.625 30L93.6009 16.1965L93.5697 14.8547H94.8907L100.685 30H98.625ZM98.365 24.3933V26.0368H89.8561V24.3933H98.365ZM111.898 28.3669V30H104.325V28.3669H111.898ZM104.721 14.8547V30H102.713V14.8547H104.721ZM116.922 14.8547V30H114.946V14.8547H116.922ZM121.79 14.8547V16.4982H110.088V14.8547H121.79ZM124.9 14.8547L128.832 22.4586L132.775 14.8547H135.053L129.831 24.3413V30H127.823V24.3413L122.602 14.8547H124.9Z" fill="black"/>
</svg>
