<svg width="200" height="45" viewBox="0 0 200 45" fill="none" xmlns="http://www.w3.org/2000/svg">
<path d="M10 30.5209V14.5476H17.3412C18.4964 14.5476 19.4691 14.7073 20.2595 15.0268C21.0651 15.3463 21.673 15.795 22.0834 16.3731C22.509 16.9512 22.7218 17.6282 22.7218 18.404C22.7218 19.3624 22.5014 20.1534 22.0606 20.7772C21.635 21.4009 21.0043 21.8192 20.1683 22.0322L20.0999 21.5986C20.7991 21.766 21.407 22.0398 21.9238 22.4201C22.4406 22.7852 22.8434 23.234 23.1322 23.7665C23.4209 24.2989 23.5653 24.9074 23.5653 25.592C23.5653 26.4287 23.4133 27.1589 23.1094 27.7826C22.8054 28.3911 22.3722 28.9007 21.8098 29.3115C21.2626 29.7222 20.6243 30.0265 19.8947 30.2242C19.1804 30.422 18.4052 30.5209 17.5692 30.5209H10ZM14.5598 26.6416H17.4324C17.7212 26.6416 17.9644 26.596 18.162 26.5047C18.3596 26.3982 18.5116 26.2461 18.618 26.0484C18.7244 25.8354 18.7776 25.5844 18.7776 25.2953C18.7776 25.0367 18.7168 24.8237 18.5952 24.6564C18.4888 24.4738 18.3292 24.3369 18.1164 24.2457C17.9036 24.1392 17.6376 24.0859 17.3184 24.0859H14.5598V26.6416ZM14.5598 20.8H16.4977C16.8473 20.8 17.1285 20.7543 17.3412 20.6631C17.5692 20.5718 17.7288 20.4425 17.82 20.2751C17.9264 20.0926 17.9796 19.872 17.9796 19.6134C17.9796 19.2635 17.858 18.9821 17.6148 18.7691C17.3868 18.5409 16.9993 18.4268 16.4521 18.4268H14.5598V20.8Z" fill="black"/>
<path d="M34.4686 30.5209L29.5213 23.3557L23.1832 14.5476H29.0881L33.9215 21.6215L40.3735 30.5209H34.4686ZM34.2862 23.1047L30 21.3705L33.0412 17.3632C34.8882 14.9294 37.7675 13.5 40.8227 13.5L34.2862 23.1047Z" fill="black"/>
<path d="M29.1793 21.8953L33.4655 23.6295L30.1511 27.9968C28.4761 30.2039 25.8663 31.5 23.0972 31.5H22.6428L29.1793 21.8953Z" fill="black"/>
<path d="M57.6128 25.7928L57.4055 25.7045L51.6748 23.2579C50.9866 22.9642 50.4287 23.3328 50.4287 24.081V26.7282C50.4287 28.8665 53.7379 30.6 57.82 30.6C61.9025 30.6 65.2119 28.8665 65.2119 26.7282V24.081C65.2119 23.3328 64.654 22.9642 63.9658 23.2579L58.2343 25.7045C58.2343 25.7045 58.1415 25.7442 58.0271 25.7928C57.9127 25.8415 57.727 25.8415 57.6127 25.7928H57.6128Z" fill="#4663E3"/>
<path d="M56.5736 13.7206L45.5435 18.429C44.8553 18.7227 44.8553 19.199 45.5435 19.493L56.5736 24.2018C57.2619 24.4955 58.3775 24.4955 59.0655 24.2018L65.2114 21.5781L70.0958 19.493C70.7839 19.1993 70.7839 18.723 70.0958 18.429L59.0658 13.7206C58.3775 13.4265 57.2619 13.4265 56.5736 13.7206Z" fill="#4663E3"/>
<path d="M69.3423 18.6762H70.3982V26.5804H69.3423V18.6762Z" fill="#4663E3"/>
<path d="M70.6181 27.4284C70.6181 27.7221 70.2831 27.9602 69.8698 27.9602C69.4566 27.9602 69.1221 27.7221 69.1221 27.4284V26.1345C69.1221 25.8406 69.4566 25.6027 69.8698 25.6027C70.2831 25.6027 70.6181 25.8404 70.6181 26.1345V27.4284Z" fill="#4663E3"/>
<path d="M86.2025 28.3669V30H78.1826V28.3669H86.2025ZM78.5883 14.8547V30H76.5807V14.8547H78.5883ZM85.1415 21.3663V22.9995H78.1826V21.3663H85.1415ZM86.0985 14.8547V16.4982H78.1826V14.8547H86.0985ZM92.787 30H89.6248L89.6456 28.3669H92.787C93.8688 28.3669 94.7703 28.1415 95.4915 27.6908C96.2127 27.2331 96.7536 26.5951 97.1142 25.7768C97.4818 24.9516 97.6655 23.9876 97.6655 22.885V21.9593C97.6655 21.0924 97.5615 20.3227 97.3535 19.65C97.1454 18.9704 96.8403 18.3983 96.4381 17.9337C96.0359 17.4621 95.5435 17.105 94.961 16.8623C94.3854 16.6196 93.7232 16.4982 92.9742 16.4982H89.5624V14.8547H92.9742C93.9659 14.8547 94.8709 15.0211 95.6892 15.354C96.5075 15.6799 97.2113 16.1549 97.8008 16.7791C98.3972 17.3962 98.8548 18.1452 99.1738 19.0259C99.4928 19.8997 99.6523 20.8844 99.6523 21.9801V22.885C99.6523 23.9807 99.4928 24.9689 99.1738 25.8496C98.8548 26.7234 98.3937 27.4688 97.7904 28.086C97.194 28.7032 96.4728 29.1782 95.6268 29.5111C94.7877 29.837 93.8411 30 92.787 30ZM90.6962 14.8547V30H88.6886V14.8547H90.6962ZM111.334 14.8547H113.331V25.1007C113.331 26.2379 113.078 27.1845 112.572 27.9404C112.065 28.6963 111.393 29.2649 110.554 29.6463C109.721 30.0208 108.816 30.208 107.839 30.208C106.812 30.208 105.883 30.0208 105.051 29.6463C104.226 29.2649 103.57 28.6963 103.085 27.9404C102.606 27.1845 102.367 26.2379 102.367 25.1007V14.8547H104.354V25.1007C104.354 25.8912 104.5 26.5431 104.791 27.0562C105.082 27.5694 105.488 27.9508 106.008 28.2005C106.535 28.4501 107.145 28.5749 107.839 28.5749C108.539 28.5749 109.149 28.4501 109.669 28.2005C110.196 27.9508 110.606 27.5694 110.897 27.0562C111.188 26.5431 111.334 25.8912 111.334 25.1007V14.8547ZM125.626 25.1839H127.623C127.519 26.1409 127.245 26.9973 126.802 27.7532C126.358 28.509 125.73 29.1089 124.919 29.5527C124.107 29.9896 123.095 30.208 121.881 30.208C120.994 30.208 120.186 30.0416 119.458 29.7087C118.737 29.3759 118.116 28.9043 117.596 28.2941C117.076 27.6769 116.673 26.9383 116.389 26.0784C116.112 25.2116 115.973 24.2477 115.973 23.1867V21.6784C115.973 20.6174 116.112 19.6569 116.389 18.797C116.673 17.9302 117.079 17.1882 117.606 16.571C118.14 15.9538 118.782 15.4788 119.531 15.1459C120.279 14.8131 121.122 14.6466 122.058 14.6466C123.202 14.6466 124.17 14.8616 124.96 15.2916C125.751 15.7215 126.365 16.3179 126.802 17.0807C127.245 17.8366 127.519 18.7138 127.623 19.7124H125.626C125.529 19.0051 125.349 18.3983 125.085 17.8921C124.822 17.3789 124.447 16.9836 123.962 16.7062C123.476 16.4289 122.842 16.2902 122.058 16.2902C121.386 16.2902 120.793 16.4185 120.279 16.675C119.773 16.9316 119.347 17.2957 119 17.7672C118.66 18.2388 118.404 18.804 118.23 19.4628C118.057 20.1216 117.97 20.8532 117.97 21.6576V23.1867C117.97 23.9287 118.047 24.6256 118.199 25.2775C118.359 25.9294 118.598 26.5015 118.917 26.9938C119.236 27.4862 119.642 27.8745 120.134 28.1588C120.626 28.4362 121.209 28.5749 121.881 28.5749C122.734 28.5749 123.414 28.4397 123.92 28.1692C124.426 27.8988 124.808 27.5105 125.064 27.0042C125.328 26.498 125.515 25.8912 125.626 25.1839ZM135.966 16.1965L130.952 30H128.903L134.676 14.8547H135.997L135.966 16.1965ZM140.168 30L135.144 16.1965L135.113 14.8547H136.434L142.228 30H140.168ZM139.908 24.3933V26.0368H131.399V24.3933H139.908ZM148.5 14.8547V30H146.524V14.8547H148.5ZM153.368 14.8547V16.4982H141.666V14.8547H153.368ZM157.768 14.8547V30H155.761V14.8547H157.768ZM173.08 21.9489V22.9058C173.08 24.0431 172.938 25.0625 172.654 25.964C172.369 26.8655 171.96 27.6318 171.426 28.2629C170.892 28.8939 170.251 29.3759 169.502 29.7087C168.76 30.0416 167.928 30.208 167.005 30.208C166.111 30.208 165.289 30.0416 164.54 29.7087C163.798 29.3759 163.153 28.8939 162.605 28.2629C162.064 27.6318 161.645 26.8655 161.347 25.964C161.048 25.0625 160.899 24.0431 160.899 22.9058V21.9489C160.899 20.8116 161.045 19.7956 161.336 18.9011C161.634 17.9996 162.054 17.2333 162.595 16.6022C163.136 15.9642 163.777 15.4788 164.519 15.1459C165.268 14.8131 166.09 14.6466 166.984 14.6466C167.907 14.6466 168.739 14.8131 169.481 15.1459C170.23 15.4788 170.871 15.9642 171.405 16.6022C171.946 17.2333 172.359 17.9996 172.643 18.9011C172.934 19.7956 173.08 20.8116 173.08 21.9489ZM171.093 22.9058V21.928C171.093 21.0265 171 20.2291 170.812 19.5356C170.632 18.8421 170.365 18.2596 170.011 17.7881C169.658 17.3165 169.224 16.9594 168.711 16.7166C168.205 16.4739 167.629 16.3526 166.984 16.3526C166.36 16.3526 165.795 16.4739 165.289 16.7166C164.79 16.9594 164.36 17.3165 163.999 17.7881C163.645 18.2596 163.372 18.8421 163.177 19.5356C162.983 20.2291 162.886 21.0265 162.886 21.928V22.9058C162.886 23.8143 162.983 24.6187 163.177 25.3191C163.372 26.0126 163.649 26.5985 164.009 27.077C164.377 27.5486 164.81 27.9057 165.31 28.1484C165.816 28.3912 166.381 28.5125 167.005 28.5125C167.657 28.5125 168.236 28.3912 168.742 28.1484C169.249 27.9057 169.675 27.5486 170.022 27.077C170.376 26.5985 170.643 26.0126 170.823 25.3191C171.003 24.6187 171.093 23.8143 171.093 22.9058ZM187.736 14.8547V30H185.718L178.094 18.3186V30H176.086V14.8547H178.094L185.75 26.5673V14.8547H187.736Z" fill="black"/>
</svg>
