<svg xmlns="http://www.w3.org/2000/svg" xmlns:xlink="http://www.w3.org/1999/xlink" width="162px" height="33px" viewBox="0 0 162 33" version="1.1">
    <!-- Generator: Sketch 42 (36781) - http://www.bohemiancoding.com/sketch -->
    <title>remix-button</title>
    <desc>Created with Sketch.</desc>
    <defs>
        <linearGradient x1="50%" y1="0%" x2="50%" y2="99.1210938%" id="linearGradient-1">
            <stop stop-color="#E659FF" offset="0%"/>
            <stop stop-color="#0037FF" offset="100%"/>
        </linearGradient>
        <path d="M12.677428,19.6209933 C12.9647327,20.2340324 12.8959094,20.8140878 12.8959094,20.8140878 C12.8959094,20.8140878 12.6010466,20.899799 12.0445669,20.9070919 C11.8383221,20.9538132 11.0142042,21.0997573 9.67732397,20.8260099 C8.12040034,20.5072051 7.40050272,18.9027286 7.40050272,18.9027286 C7.40050272,18.9027286 7.41555866,18.8882491 7.44531023,18.8637355 C7.35738899,18.8481765 7.30649065,18.8429555 7.29688694,18.8511911 C6.29203737,19.0400588 5.76709192,19.0189824 5.00138116,19.0189824 C4.23567041,19.0189824 1.20496962,17.9079415 0.228491379,16.7166884 C0.228491379,16.7166884 1.74446628,16.3590959 1.74446628,16.0569508 C1.74446628,15.7548057 0.0127431533,15.1964328 0.0127431533,15.1964328 C0.0127431533,15.1964328 -0.249632109,13.8026791 1.60670769,12.4108499 C2.82381974,11.4982949 3.8400927,10.9000638 4.83567373,10.5744902 C3.87115698,10.4500514 1.14499911,9.40262158 0.228491379,8.28452939 C0.228491379,8.28452939 1.74446628,7.92693686 1.74446628,7.62479175 C1.74446628,7.32264665 0.0127431533,6.76427382 0.0127431533,6.76427382 C0.0127431533,6.76427382 -0.249632109,5.37052012 1.60670769,3.97869086 C3.46304749,2.58686159 4.85218813,1.92622397 6.41328745,1.84894688 C7.97438676,1.77166979 8.49776619,1.77166979 8.49776619,1.77166979 C8.49776619,1.77166979 9.85677043,3.89216252e-17 10.5707047,0 C10.9275922,0 16.1567606,1.07309012 16.6096962,1.77166979 C17.0626318,2.47024945 17.2830438,2.41942818 17.514532,2.58686159 C17.7460203,2.75429501 17.6001827,2.62040032 18.6491589,2.84669256 C21.2729622,3.41271717 20.9150315,3.63493303 22.864461,3.97869086 C23.6534489,4.11781913 27.2690417,2.40219161 27.6101013,2.56881883 C27.7689044,2.64640324 27.8935552,4.12196446 27.2727932,5.0894432 C26.6520313,6.05692194 27.7711101,6.85613185 27.2685613,8.06764613 C26.7660124,9.27916041 27.84409,10.1766983 27.6101013,10.5868234 C27.3761127,10.9969484 23.5368954,9.24459 22.864461,9.37129358 C22.2626077,9.4846979 20.5530619,10.2605977 17.2145832,10.8541376 C17.3242712,10.9176286 17.4184475,10.9495235 17.514532,11.0190206 C17.7460203,11.186454 17.6001827,11.0525593 18.6491589,11.2788516 C21.2729622,11.8448762 20.9150315,12.067092 22.864461,12.4108499 C23.6534489,12.5499782 27.2690417,10.8343506 27.6101013,11.0009778 C27.7689044,11.0785623 27.8935552,12.5541235 27.2727932,13.5216022 C26.6520313,14.489081 27.7711101,15.2882909 27.2685613,16.4998051 C26.7660124,17.7113194 27.84409,18.6088574 27.6101013,19.0189824 C27.3761127,19.4291074 23.5368954,17.676749 22.864461,17.8034526 C22.1920266,17.9301562 20.1368608,18.8838521 15.9719947,19.4862286 C14.8626123,19.6466818 13.7356896,19.6706271 12.677428,19.6209933 Z" id="path-2"/>
        <linearGradient x1="1.70866321%" y1="35.7585593%" x2="73.1482182%" y2="74.1711318%" id="linearGradient-4">
            <stop stop-color="#F1A5FF" offset="0%"/>
            <stop stop-color="#FF686C" offset="100%"/>
        </linearGradient>
        <linearGradient x1="26.3844255%" y1="17.5301761%" x2="73.1482182%" y2="74.1711318%" id="linearGradient-5">
            <stop stop-color="#F1A5FF" offset="0%"/>
            <stop stop-color="#FF686C" offset="100%"/>
        </linearGradient>
    </defs>
    <g id="remix-buttons" stroke="none" stroke-width="1" fill="none" fill-rule="evenodd">
        <g id="remix-button">
            <path d="M2,4.99428189 L2,28.0057181 C2,29.6594313 3.3421471,31 4.99776945,31 L157.002231,31 C158.65791,31 160,29.6594143 160,28.0057181 L160,4.99428189 C160,3.3405687 158.657853,2 157.002231,2 L4.99776945,2 C3.34208985,2 2,3.34058566 2,4.99428189 Z M0,4.99428189 C0,2.23548082 2.23805505,0 4.99776945,0 L157.002231,0 C159.761906,0 162,2.2354818 162,4.99428189 L162,28.0057181 C162,30.7645192 159.761945,33 157.002231,33 L4.99776945,33 C2.23809432,33 0,30.7645182 0,28.0057181 L0,4.99428189 Z" id="Rectangle-864-Copy-20" fill="#222222" fill-rule="nonzero"/>
            <path d="M46.898,21 L45.176,21 L45.176,10.64 L48.886,10.64 C51.35,10.64 52.778,11.634 52.778,13.748 C52.778,15.4 51.924,16.338 50.482,16.688 L52.918,21 L51.042,21 L48.718,16.912 L46.898,16.912 L46.898,21 Z M46.898,12.236 L46.898,15.386 L48.816,15.386 C50.272,15.386 51.056,15.022 51.056,13.79 C51.056,12.6 50.286,12.236 48.802,12.236 L46.898,12.236 Z M57.804,21.154 C55.942,21.154 54.22,20.02 54.22,17.29 C54.22,14.462 56.222,13.426 57.762,13.426 C59.428,13.426 61.024,14.42 61.024,17.444 L61.024,17.85 L55.942,17.85 C56.012,19.194 56.838,19.782 57.93,19.782 C58.896,19.782 59.456,19.46 60.016,18.914 L60.926,19.81 C60.156,20.664 59.134,21.154 57.804,21.154 Z M55.97,16.562 L59.442,16.562 C59.344,15.428 58.784,14.826 57.748,14.826 C56.908,14.826 56.138,15.302 55.97,16.562 Z M64.258,21 L64.258,15.862 C64.902,15.288 65.476,14.896 66.162,14.896 C66.974,14.896 67.212,15.274 67.212,16.1 L67.212,21 L68.934,21 L68.934,15.862 C69.578,15.288 70.138,14.896 70.838,14.896 C71.65,14.896 71.888,15.274 71.888,16.1 L71.888,21 L73.61,21 L73.61,15.666 C73.61,14.336 72.952,13.426 71.44,13.426 C70.306,13.426 69.424,14 68.836,14.644 C68.542,13.916 68.052,13.426 66.806,13.426 C65.672,13.426 64.832,13.958 64.258,14.588 L64.258,13.566 L62.536,13.566 L62.536,21 L64.258,21 Z M77.278,21 L77.278,13.566 L75.542,13.566 L75.542,21 L77.278,21 Z M77.292,12.278 L77.292,10.78 L75.528,10.78 L75.528,12.278 L77.292,12.278 Z M80.344,21 L82.024,18.396 L83.732,21 L85.566,21 L82.99,17.164 L85.426,13.566 L83.648,13.566 L82.15,15.946 L80.596,13.566 L78.762,13.566 L81.17,17.164 L78.58,21 L80.344,21 Z M93.462,21.154 C91.656,21.154 89.836,20.006 89.836,17.29 C89.836,14.546 91.642,13.426 93.462,13.426 C95.268,13.426 97.088,14.546 97.088,17.29 C97.088,20.006 95.268,21.154 93.462,21.154 Z M93.462,19.712 C94.708,19.712 95.352,18.816 95.352,17.29 C95.352,15.904 94.764,14.896 93.462,14.896 C92.216,14.896 91.572,15.792 91.572,17.29 C91.572,18.704 92.146,19.712 93.462,19.712 Z M100.336,21 L100.336,15.82 C100.966,15.232 101.596,14.854 102.352,14.854 C103.136,14.854 103.472,15.274 103.472,16.086 L103.472,21 L105.194,21 L105.194,15.596 C105.194,14.126 104.354,13.426 102.996,13.426 C101.764,13.426 100.896,14.112 100.336,14.756 L100.336,13.566 L98.614,13.566 L98.614,21 L100.336,21 Z M114.686,21.196 C116.282,21.196 117.192,20.244 117.514,19.502 L117.542,19.502 L117.542,21 L118.984,21 L118.984,15.876 L115.218,15.876 L115.218,17.29 L117.304,17.29 C117.192,18.816 116.254,19.628 114.882,19.628 C113.412,19.628 112.026,18.634 112.026,15.736 C112.026,12.824 113.58,12.068 114.812,12.068 C116.044,12.068 116.758,12.586 117.22,14.14 L118.844,13.706 C118.228,11.354 116.786,10.444 114.826,10.444 C112.068,10.444 110.262,12.46 110.262,15.778 C110.262,18.942 111.718,21.196 114.686,21.196 Z M122.792,21 L122.792,10.64 L121.056,10.64 L121.056,21 L122.792,21 Z M126.6,21 L126.6,13.566 L124.864,13.566 L124.864,21 L126.6,21 Z M126.614,12.278 L126.614,10.78 L124.85,10.78 L124.85,12.278 L126.614,12.278 Z M131.486,21.098 C131.92,21.098 132.564,21.042 132.746,21 L132.746,19.642 C132.578,19.698 132.256,19.74 132.004,19.74 C131.15,19.74 130.912,19.418 130.912,18.62 L130.912,14.938 L132.83,14.938 L132.83,13.566 L130.912,13.566 L130.912,10.976 L129.19,10.976 L129.19,13.566 L127.902,13.566 L127.902,14.938 L129.19,14.938 L129.19,19.054 C129.19,20.398 129.596,21.098 131.486,21.098 Z M137.296,21.154 C139.088,21.154 139.97,20.16 140.502,18.97 L139.074,18.452 C138.668,19.502 138.122,19.74 137.338,19.74 C136.204,19.74 135.56,18.872 135.56,17.29 C135.56,15.512 136.386,14.868 137.366,14.868 C138.192,14.868 138.724,15.274 139.018,16.114 L140.474,15.596 C140.026,14.448 139.242,13.426 137.394,13.426 C135.742,13.426 133.824,14.448 133.824,17.29 C133.824,20.006 135.574,21.154 137.296,21.154 Z M143.61,21 L143.61,15.862 C144.24,15.288 144.87,14.896 145.626,14.896 C146.382,14.896 146.732,15.274 146.732,16.1 L146.732,21 L148.468,21 L148.468,15.666 C148.468,14.196 147.628,13.426 146.326,13.426 C144.982,13.426 144.086,14.07 143.61,14.574 L143.61,10.64 L141.874,10.64 L141.874,21 L143.61,21 Z" id="Remix-on-Glitch-Copy-8" fill="#222222"/>
            <g id="fish-copy-14" transform="translate(12.000000, 6.000000)">
                <g id="body">
                    <mask id="mask-3" fill="white">
                        <use xlink:href="#path-2"/>
                    </mask>
                    <use id="Combined-Shape" fill="url(#linearGradient-1)" xlink:href="#path-2"/>
                    <path d="M19.3887468,6.2414795 L0,6.2414795 L0,10.8419316 L4.11585678,10.554967 L27.8925831,10.8419316 L27.8925831,6.2414795 L27.8245524,6.2414795 L27.8245524,6.85131064 L19.3887468,6.85131064 L19.3887468,6.2414795 Z" id="Combined-Shape" fill="url(#linearGradient-4)" mask="url(#mask-3)"/>
                    <path d="M16.8035806,15.7830516 L0,15.7830516 L0,21.7553589 L27.8925831,21.7553589 L27.8925831,15.7830516 L27.8245524,15.7830516 L27.8245524,16.5747344 L16.8035806,16.5747344 L16.8035806,15.7830516 Z" id="Combined-Shape-Copy" fill="url(#linearGradient-5)" mask="url(#mask-3)"/>
                    <path d="M10.7591445,12.0691433 C11.2333251,12.0927016 11.7074933,12.1170328 12.1499679,12.1408205 C12.3044145,12.1491237 12.4525531,12.1572318 12.5935708,12.1651111 C12.9934945,12.1874567 13.3290404,12.2075589 13.5866815,12.2248464 C14.5559457,12.2898833 16.0499588,12.5066526 17.1913344,12.726683 C18.9407507,13.0639294 20.368853,13.5628699 22.6364823,14.5334463 C22.8094061,14.6074601 23.40322,14.8629701 23.4170281,14.8689002 C23.5689682,14.9341524 23.7410647,14.8538768 23.8014166,14.6895997 C23.8617684,14.5253226 23.7875215,14.3392524 23.6355814,14.2740002 C23.6222142,14.2682595 23.0279174,14.0125416 22.8543994,13.9382736 C20.5529008,12.9532006 19.0925008,12.4429762 17.2952558,12.0965096 C16.1334879,11.872548 14.6185236,11.6527388 13.623353,11.5859637 C13.3633247,11.568516 13.0259143,11.5483021 12.6241258,11.5258523 C12.4827073,11.5179506 12.3341867,11.5098215 12.1793698,11.5014985 C11.7360668,11.4776662 11.2611876,11.4532985 10.7863207,11.4297061 C10.6201271,11.4214493 10.4658015,11.4138789 10.3272964,11.407159 C10.2788123,11.4048067 10.2357662,11.4027286 10.1986524,11.4009453 C10.1610278,11.3991406 10.1610278,11.3991406 10.1530658,11.3987613 C9.92531539,11.3879106 9.77217491,11.6477872 9.87750498,11.866383 C9.88155781,11.874794 9.88998424,11.8927222 9.90215632,11.9193467 C9.92292857,11.9647828 9.94620404,12.0172985 9.9713543,12.0760667 C10.0435079,12.2446668 10.1157539,12.4285874 10.1830667,12.6210594 C10.2897494,12.9261043 10.3734676,13.2227086 10.4255025,13.4975989 C10.4449758,13.6004727 10.4597551,13.6991395 10.469572,13.7930209 C10.4980279,14.0651517 10.4344415,14.5350251 10.2962576,15.1290087 C10.2474312,15.3388889 10.1903963,15.5598788 10.1268067,15.7882323 C10.0489262,16.0679052 9.96536881,16.3440631 9.88182806,16.604235 C9.85261378,16.6952174 9.82551432,16.7776259 9.80123943,16.849919 C9.79278506,16.8750969 9.78530134,16.8971733 9.7788769,16.9159559 C9.77508789,16.9270335 9.77244886,16.9346841 9.77130567,16.9379698 C9.71377461,17.1034258 9.79119212,17.2879794 9.94422252,17.3501818 C10.0972529,17.4123842 10.2679467,17.3286806 10.3254778,17.1632246 C10.3271617,17.1583799 10.3300001,17.1501512 10.3341623,17.1379827 C10.3409898,17.1180217 10.3488783,17.0947512 10.3577398,17.0683607 C10.3829388,16.9933155 10.4109674,16.9080814 10.4411219,16.8141712 C10.527206,16.5460785 10.6132734,16.2616248 10.6937095,15.9727747 C10.7597852,15.7354931 10.8192284,15.5051723 10.8704138,15.2851517 C11.0250071,14.6206324 11.0966028,14.0915744 11.0578644,13.7211096 C11.0459884,13.6075365 11.0284057,13.4901542 11.0055197,13.369252 C10.9465007,13.0574659 10.8538802,12.7293218 10.7368403,12.3946617 C10.6968849,12.2804149 10.6553979,12.1691598 10.6132062,12.061918 C10.660716,12.0642618 10.7093976,12.0666718 10.7591445,12.0691433 Z" id="Path-11-Copy-5" fill="#F49CB1" fill-rule="nonzero" mask="url(#mask-3)"/>
                    <path d="M10.7591445,3.92711862 C11.2333251,3.95067693 11.7074933,3.97500817 12.1499679,3.99879587 C12.3044145,4.00709901 12.4525531,4.01520716 12.5935708,4.02308647 C12.9934945,4.04543205 13.3290404,4.06553427 13.5866815,4.08282177 C14.5559457,4.14785859 16.0499588,4.36462796 17.1913344,4.58465836 C18.9407507,4.92190473 20.368853,5.42084522 22.6364823,6.39142164 C22.8094061,6.46543541 23.40322,6.72094547 23.4170281,6.7268755 C23.5689682,6.7921277 23.7410647,6.71185215 23.8014166,6.54757506 C23.8617684,6.38329796 23.7875215,6.19722771 23.6355814,6.13197551 C23.6222142,6.12623484 23.0279174,5.87051695 22.8543994,5.79624889 C20.5529008,4.81117593 19.0925008,4.3009515 17.2952558,3.95448488 C16.1334879,3.73052333 14.6185236,3.5107141 13.623353,3.44393898 C13.3633247,3.4264913 13.0259143,3.40627739 12.6241258,3.38382761 C12.4827073,3.37592591 12.3341867,3.36779685 12.1793698,3.3594738 C11.7360668,3.33564157 11.2611876,3.31127384 10.7863207,3.28768144 C10.6201271,3.27942458 10.4658015,3.27185418 10.3272964,3.26513435 C10.2788123,3.26278205 10.2357662,3.26070397 10.1986524,3.25892062 C10.1610278,3.25711596 10.1610278,3.25711596 10.1530658,3.25673663 C9.92531539,3.24588593 9.77217491,3.5057625 9.87750498,3.72435834 C9.88155781,3.73276935 9.88998424,3.75069751 9.90215632,3.77732203 C9.92292857,3.8227581 9.94620404,3.87527385 9.9713543,3.93404202 C10.0435079,4.10264214 10.1157539,4.28656276 10.1830667,4.47903469 C10.2897494,4.78407963 10.3734676,5.08068395 10.4255025,5.35557424 C10.4449758,5.45844804 10.4597551,5.55711485 10.469572,5.65099623 C10.4980279,5.92312702 10.4344415,6.39300047 10.2962576,6.98698405 C10.2474312,7.19686423 10.1903963,7.41785409 10.1268067,7.64620764 C10.0489262,7.92588056 9.96536881,8.2020384 9.88182806,8.46221032 C9.85261378,8.5531927 9.82551432,8.63560126 9.80123943,8.70789433 C9.79278506,8.73307227 9.78530134,8.75514863 9.7788769,8.77393122 C9.77508789,8.78500884 9.77244886,8.79265941 9.77130567,8.79594516 C9.71377461,8.96140112 9.79119212,9.14595469 9.94422252,9.20815708 C10.0972529,9.27035948 10.2679467,9.18665593 10.3254778,9.02119997 C10.3271617,9.0163552 10.3300001,9.00812654 10.3341623,8.99595802 C10.3409898,8.97599702 10.3488783,8.95272649 10.3577398,8.92633605 C10.3829388,8.85129086 10.4109674,8.76605676 10.4411219,8.67214651 C10.527206,8.40405378 10.6132734,8.11960012 10.6937095,7.83075005 C10.7597852,7.59346845 10.8192284,7.36314764 10.8704138,7.14312707 C11.0250071,6.47860777 11.0966028,5.94954975 11.0578644,5.57908493 C11.0459884,5.46551182 11.0284057,5.34812954 11.0055197,5.22722729 C10.9465007,4.91544127 10.8538802,4.58729714 10.7368403,4.25263707 C10.6968849,4.13839019 10.6553979,4.02713512 10.6132062,3.91989328 C10.660716,3.92223717 10.7093976,3.92464709 10.7591445,3.92711862 Z" id="Path-11-Copy-8" fill="#F49CB1" fill-rule="nonzero" mask="url(#mask-3)"/>
                    <path d="M8.34492531,4.03237245 C8.34954445,4.03973422 8.35927645,4.05565477 8.37338594,4.07941598 C8.39752774,4.12007217 8.42459472,4.16715873 8.45385064,4.21995004 C8.53779518,4.37142506 8.6218469,4.53726204 8.70011553,4.71147935 C8.83542708,5.01266785 8.93847083,5.30581591 8.99645214,5.57551511 C9.03050493,5.73391114 9.04808184,5.88052638 9.04808184,6.01278921 C9.04808184,6.38746791 8.96052769,6.79810356 8.81375444,7.21060182 C8.76174886,7.35676068 8.70601185,7.49245354 8.65045773,7.61377832 C8.63119867,7.65583823 8.61343153,7.69292732 8.59764887,7.72456982 C8.5885811,7.7427497 8.58247034,7.75456355 8.57980977,7.75954049 C8.50600593,7.8976002 8.55230713,8.07261272 8.68322639,8.15044188 C8.81414566,8.22827104 8.98010652,8.17944453 9.05391035,8.04138481 C9.07236107,8.00687033 9.10255051,7.94634382 9.14055756,7.86334015 C9.20297481,7.72702696 9.26520918,7.57551617 9.32331022,7.41222634 C9.49112731,6.94058549 9.59232737,6.46594952 9.59232737,6.01278921 C9.59232737,5.83476987 9.56974045,5.64636442 9.52722824,5.44861952 C9.45938311,5.13303889 9.34303314,4.80203613 9.19195608,4.46575532 C9.10652586,4.27559712 9.01518596,4.0953803 8.92373887,3.9303672 C8.86843653,3.83057603 8.82485792,3.7571871 8.79880871,3.71567107 C8.71587719,3.58349867 8.54704266,3.54724779 8.42170622,3.63470246 C8.29636978,3.72215713 8.26199379,3.90020005 8.34492531,4.03237245 Z" id="Path-11-Copy-4" fill="#F49CB1" fill-rule="nonzero" mask="url(#mask-3)"/>
                    <path d="M8.34492531,12.1391217 C8.34954445,12.1464835 8.35927645,12.162404 8.37338594,12.1861652 C8.39752774,12.2268214 8.42459472,12.273908 8.45385064,12.3266993 C8.53779518,12.4781743 8.6218469,12.6440113 8.70011553,12.8182286 C8.83542708,13.1194171 8.93847083,13.4125651 8.99645214,13.6822643 C9.03050493,13.8406604 9.04808184,13.9872756 9.04808184,14.1195384 C9.04808184,14.4942171 8.96052769,14.9048528 8.81375444,15.3173511 C8.76174886,15.4635099 8.70601185,15.5992028 8.65045773,15.7205276 C8.63119867,15.7625875 8.61343153,15.7996766 8.59764887,15.8313191 C8.5885811,15.8494989 8.58247034,15.8613128 8.57980977,15.8662897 C8.50600593,16.0043494 8.55230713,16.179362 8.68322639,16.2571911 C8.81414566,16.3350203 8.98010652,16.2861938 9.05391035,16.1481341 C9.07236107,16.1136196 9.10255051,16.0530931 9.14055756,15.9700894 C9.20297481,15.8337762 9.26520918,15.6822654 9.32331022,15.5189756 C9.49112731,15.0473347 9.59232737,14.5726988 9.59232737,14.1195384 C9.59232737,13.9415191 9.56974045,13.7531137 9.52722824,13.5553688 C9.45938311,13.2397881 9.34303314,12.9087854 9.19195608,12.5725046 C9.10652586,12.3823464 9.01518596,12.2021295 8.92373887,12.0371164 C8.86843653,11.9373253 8.82485792,11.8639363 8.79880871,11.8224203 C8.71587719,11.6902479 8.54704266,11.653997 8.42170622,11.7414517 C8.29636978,11.8289064 8.26199379,12.0069493 8.34492531,12.1391217 Z" id="Path-11-Copy-6" fill="#F49CB1" fill-rule="nonzero" mask="url(#mask-3)"/>
                </g>
                <g id="eye" transform="translate(4.631845, 14.028654) scale(-1, 1) translate(-4.631845, -14.028654) translate(3.262280, 12.659089)">
                    <ellipse id="Oval-2-Copy-2" fill="#000000" cx="1.29646674" cy="1.31833512" rx="1.29646674" ry="1.31833512"/>
                    <path d="M2.59285534,1.33296052 C2.59290739,1.32809168 2.59293348,1.3232165 2.59293348,1.31833512 C2.59293348,0.590238738 2.01248555,0 1.29646674,0 C0.58044793,0 -1.24344979e-14,0.590238738 -1.24344979e-14,1.31833512 C-1.24344979e-14,2.0464315 0.58044793,2.63667024 1.29646674,2.63667024 C1.93791416,2.63667024 2.47055887,2.16297287 2.57454828,1.54082592 C2.48510153,2.00876421 2.07990662,2.36201709 1.5935737,2.36201709 C1.04164253,2.36201709 0.594213922,1.9070414 0.594213922,1.34580043 C0.594213922,0.784559474 1.04164253,0.32958378 1.5935737,0.32958378 C2.14128974,0.32958378 2.58609332,0.777636675 2.59285534,1.33296052 Z" id="Combined-Shape" fill="#FFFFFF"/>
                    <ellipse id="Oval-6" fill="#FFFFFF" cx="1.95096301" cy="1.69991158" rx="0.330379586" ry="0.326645833"/>
                </g>
                <g id="eye-copy-4" transform="translate(4.631845, 5.886629) scale(-1, 1) translate(-4.631845, -5.886629) translate(3.262280, 4.517064)">
                    <ellipse id="Oval-2-Copy-2" fill="#000000" cx="1.29646674" cy="1.31833512" rx="1.29646674" ry="1.31833512"/>
                    <path d="M2.59285534,1.33296052 C2.59290739,1.32809168 2.59293348,1.3232165 2.59293348,1.31833512 C2.59293348,0.590238738 2.01248555,0 1.29646674,0 C0.58044793,0 -1.24344979e-14,0.590238738 -1.24344979e-14,1.31833512 C-1.24344979e-14,2.0464315 0.58044793,2.63667024 1.29646674,2.63667024 C1.93791416,2.63667024 2.47055887,2.16297287 2.57454828,1.54082592 C2.48510153,2.00876421 2.07990662,2.36201709 1.5935737,2.36201709 C1.04164253,2.36201709 0.594213922,1.9070414 0.594213922,1.34580043 C0.594213922,0.784559474 1.04164253,0.32958378 1.5935737,0.32958378 C2.14128974,0.32958378 2.58609332,0.777636675 2.59285534,1.33296052 Z" id="Combined-Shape" fill="#FFFFFF"/>
                    <ellipse id="Oval-6" fill="#FFFFFF" cx="1.95096301" cy="1.69991158" rx="0.330379586" ry="0.326645833"/>
                </g>
            </g>
        </g>
    </g>
</svg>