<svg width="24" height="22" viewBox="0 0 24 22" fill="none" xmlns="http://www.w3.org/2000/svg">
  <path d="M10.7215 1.89541L14.5791 8.34414L15.1308 9.26642H19.9876L21.46 9.67983C21.6454 9.73195 21.8087 9.84326 21.925 9.99668C22.0414 10.1502 22.1043 10.3375 22.1043 10.5301C22.1043 10.7227 22.0414 10.9101 21.925 11.0636C21.8087 11.217 21.6454 11.3283 21.46 11.3803L19.9876 11.7936H15.1308L14.5791 12.7161L10.7215 19.1647H9.2294L10.7381 14.2448L11.4897 11.7936H5.55609L5.004 12.7137L3.65994 14.9527H2.56112L3.74323 11.0842L3.91245 10.5304L3.74323 9.97657L2.56112 6.10745H3.65994L5.004 8.34646L5.55609 9.26642H11.4897L10.7381 6.81538L9.2294 1.89541H10.7215ZM11.7962 0H6.66564L8.92593 7.37106H6.62911L4.73285 4.21203H0L1.93058 10.5301L0 16.8482H4.73243L6.62868 13.6892H8.92593L6.66564 21.0602H11.7962L16.2056 13.6892H20.2486L21.9722 13.2047C22.5557 13.0409 23.0697 12.6909 23.4357 12.208C23.8018 11.725 24 11.1355 24 10.5295C24 9.9235 23.8018 9.33402 23.4357 8.85101C23.0697 8.36808 22.5557 8.01804 21.9722 7.85428L20.2486 7.37116H16.2056L11.7962 0.000105318V0Z" class="fill-target" fill="#fff"/>
</svg>
