<svg width="24" height="20" viewBox="0 0 24 20" fill="none" xmlns="http://www.w3.org/2000/svg">
<path d="M20.4 0H3.6C2.64522 0 1.72955 0.379284 1.05442 1.05442C0.379284 1.72955 0 2.64522 0 3.6V15.6C0 16.5547 0.379284 17.4704 1.05442 18.1456C1.72955 18.8207 2.64522 19.2 3.6 19.2H20.4C21.3547 19.2 22.2704 18.8207 22.9456 18.1456C23.6207 17.4704 24 16.5547 24 15.6V3.6C24 2.64522 23.6207 1.72955 22.9456 1.05442C22.2704 0.379284 21.3547 0 20.4 0ZM21.6 15.6C21.5996 15.9181 21.4732 16.2232 21.2482 16.4482C21.0232 16.6732 20.7181 16.7996 20.4 16.8H3.6C3.28184 16.7996 2.97683 16.6732 2.75185 16.4482C2.52689 16.2232 2.40035 15.9181 2.4 15.6V3.6C2.40035 3.28184 2.52689 2.97683 2.75185 2.75185C2.97683 2.52689 3.28184 2.40035 3.6 2.4H20.4C20.7181 2.40035 21.0232 2.52689 21.2482 2.75185C21.4732 2.97683 21.5996 3.28184 21.6 3.6V15.6ZM13.6427 8.37696H11.6L9.72804 4.77816H8.05932L8.7642 8.37696H7.02888L6.22968 7.15944H5.02968V11.9594H6.22968L7.02888 10.7418H8.7642L8.05932 14.3219H9.72804L11.6 10.7418H13.6427C13.9542 10.7387 14.2519 10.6127 14.4712 10.3913C14.6903 10.1699 14.8133 9.87096 14.8133 9.55944C14.8133 9.2478 14.6903 8.94888 14.4712 8.72748C14.2519 8.50608 13.9542 8.38008 13.6427 8.37696Z" class="fill-target" fill="#fff"/>
</svg>
