<svg width="22" height="24" viewBox="0 0 22 24" fill="none" xmlns="http://www.w3.org/2000/svg">
<path d="M6.86019 18.7376C6.98358 18.7376 7.10785 18.7323 7.23304 18.7214L10.6773 18.42V21.1765H5.03026C4.65583 21.1765 4.29675 21.3253 4.03199 21.59C3.76724 21.8547 3.61849 22.2138 3.61849 22.5882V24H20.5597V22.5882C20.5597 22.2138 20.4109 21.8547 20.1462 21.59C19.8815 21.3253 19.5223 21.1765 19.1479 21.1765H13.5009V18.1731L21.9493 17.4339L21.2314 13.391C21.1271 12.8033 20.8192 12.2711 20.3616 11.8876C19.9041 11.5042 19.3262 11.2941 18.7293 11.2941H15.5874L16.4015 9.05732C16.5412 8.67344 16.5863 8.26153 16.5329 7.85653C16.4797 7.45151 16.3295 7.06532 16.0951 6.73069C15.8608 6.39606 15.5493 6.12284 15.1869 5.93421C14.8245 5.74557 14.4222 5.64707 14.0136 5.64706H7.72306L6.71464 1.88344C6.56984 1.3431 6.2508 0.865637 5.80698 0.525092C5.36318 0.18456 4.8194 -1.41168e-05 4.26 8.0981e-10H0L2.69322 15.2393C2.86632 16.2189 3.37875 17.1064 4.14066 17.746C4.90258 18.3857 5.86536 18.7368 6.86019 18.7376ZM14.0136 8.18824L12.8831 11.2941H9.2362L8.40326 8.18824H14.0136ZM6.78155 11.9519L7.28626 13.8353H18.7293L18.9619 15.1444L7.01153 16.1898C6.96071 16.1944 6.91031 16.1965 6.86019 16.1965C6.46238 16.1965 6.07734 16.0561 5.77283 15.8002C5.46833 15.5442 5.26392 15.189 5.19558 14.7971L4.02791 8.18824H5.77313L6.78155 11.9519ZM3.02965 2.54118H4.26L5.09294 5.64706H3.57854L3.02965 2.54118Z" class="fill-target" fill="#fff"/>
</svg>
