<svg width="24" height="24" viewBox="0 0 24 24" fill="none" xmlns="http://www.w3.org/2000/svg">
<path d="M18.6667 0H5.33333C3.91884 0 2.56229 0.561906 1.56209 1.56209C0.561906 2.56229 0 3.91884 0 5.33333V18.6667C0 20.0812 0.561906 21.4377 1.56209 22.4379C2.56229 23.4381 3.91884 24 5.33333 24H18.6667C20.0812 24 21.4377 23.4381 22.4379 22.4379C23.4381 21.4377 24 20.0812 24 18.6667V5.33333C24 3.91884 23.4381 2.56229 22.4379 1.56209C21.4377 0.561906 20.0812 0 18.6667 0ZM21.3333 18.6667C21.3325 19.3736 21.0513 20.0515 20.5513 20.5513C20.0515 21.0513 19.3736 21.3325 18.6667 21.3333H5.33333C4.62633 21.3325 3.94853 21.0513 3.44861 20.5513C2.94869 20.0515 2.66748 19.3736 2.66667 18.6667V5.33333C2.66748 4.62633 2.94869 3.94853 3.44861 3.44861C3.94853 2.94869 4.62633 2.66748 5.33333 2.66667H18.6667C19.3736 2.66748 20.0515 2.94869 20.5513 3.44861C21.0513 3.94853 21.3325 4.62633 21.3333 5.33333V18.6667ZM11.1967 12.7363L8.35413 9.89453L6.75267 11.4973L11.1967 15.942L17.4973 9.64187L15.8959 8.03907L11.1967 12.7363Z" class="fill-target" fill="#fff"/>
</svg>
