<svg width="180" height="45" viewBox="0 0 180 45" fill="none" xmlns="http://www.w3.org/2000/svg">
  <path d="M10 30.5209V14.5476H17.3412C18.4964 14.5476 19.4691 14.7073 20.2595 15.0268C21.0651 15.3463 21.673 15.795 22.0834 16.3731C22.509 16.9512 22.7218 17.6282 22.7218 18.404C22.7218 19.3624 22.5014 20.1534 22.0606 20.7772C21.635 21.4009 21.0043 21.8192 20.1683 22.0322L20.0999 21.5986C20.7991 21.766 21.407 22.0398 21.9238 22.4201C22.4406 22.7852 22.8434 23.234 23.1322 23.7665C23.4209 24.2989 23.5653 24.9074 23.5653 25.592C23.5653 26.4287 23.4133 27.1589 23.1094 27.7826C22.8054 28.3911 22.3722 28.9007 21.8098 29.3115C21.2626 29.7222 20.6243 30.0265 19.8947 30.2242C19.1804 30.422 18.4052 30.5209 17.5692 30.5209H10ZM14.5598 26.6416H17.4324C17.7212 26.6416 17.9644 26.596 18.162 26.5047C18.3596 26.3982 18.5116 26.2461 18.618 26.0484C18.7244 25.8354 18.7776 25.5844 18.7776 25.2953C18.7776 25.0367 18.7168 24.8237 18.5952 24.6564C18.4888 24.4738 18.3292 24.3369 18.1164 24.2457C17.9036 24.1392 17.6376 24.0859 17.3184 24.0859H14.5598V26.6416ZM14.5598 20.8H16.4977C16.8473 20.8 17.1285 20.7543 17.3412 20.6631C17.5692 20.5718 17.7288 20.4425 17.82 20.2751C17.9264 20.0926 17.9796 19.872 17.9796 19.6134C17.9796 19.2635 17.858 18.9821 17.6148 18.7691C17.3868 18.5409 16.9993 18.4268 16.4521 18.4268H14.5598V20.8Z" fill="black"/>
  <path d="M34.4686 30.5209L29.5213 23.3557L23.1832 14.5476H29.0881L33.9215 21.6215L40.3735 30.5209H34.4686ZM34.2862 23.1047L30 21.3705L33.0412 17.3632C34.8882 14.9294 37.7675 13.5 40.8227 13.5L34.2862 23.1047Z" fill="black"/>
  <path d="M29.1793 21.8953L33.4655 23.6295L30.1511 27.9968C28.4761 30.2039 25.8663 31.5 23.0972 31.5H22.6428L29.1793 21.8953Z" fill="black"/>
  <path d="M70.3379 20.0496L64.8797 22.059L51.1425 19.3019L50.7857 19.4333C49.8234 19.7875 49.7419 21.117 50.6538 21.5861L57.1233 24.9146L51.0905 27.1355L46.6637 24.8582L44.9401 25.4927L49.0239 30.3829C49.0239 30.3829 56.7246 30.0342 60.1719 28.7651L71.9501 24.4289C73.6739 23.7943 75.5113 21.6972 75.1658 20.7587C74.8201 19.8203 72.0616 19.415 70.3379 20.0496Z" fill="#C83F7E"/>
  <path d="M86.1874 16.1965L81.1736 30H79.1244L84.8975 14.8547H86.2186L86.1874 16.1965ZM90.3898 30L85.3656 16.1965L85.3344 14.8547H86.6555L92.4494 30H90.3898ZM90.1297 24.3933V26.0368H81.6209V24.3933H90.1297ZM96.631 14.8547V30H94.6234V14.8547H96.631ZM100.282 14.8547H105.296C106.433 14.8547 107.394 15.0281 108.177 15.3748C108.968 15.7215 109.568 16.2347 109.977 16.9143C110.393 17.5869 110.601 18.4156 110.601 19.4004C110.601 20.0938 110.459 20.7284 110.174 21.3039C109.897 21.8726 109.495 22.358 108.968 22.7602C108.448 23.1555 107.824 23.4502 107.095 23.6444L106.534 23.8628H101.822L101.801 22.2297H105.358C106.079 22.2297 106.679 22.1049 107.158 21.8552C107.636 21.5987 107.997 21.2554 108.24 20.8254C108.482 20.3955 108.604 19.9205 108.604 19.4004C108.604 18.8179 108.489 18.3082 108.26 17.8713C108.032 17.4344 107.671 17.0981 107.179 16.8623C106.693 16.6196 106.066 16.4982 105.296 16.4982H102.29V30H100.282V14.8547ZM109.134 30L105.452 23.1347L107.543 23.1243L111.277 29.8752V30H109.134ZM122.594 28.3669V30H115.022V28.3669H122.594ZM115.417 14.8547V30H113.409V14.8547H115.417ZM127.046 14.8547V30H125.039V14.8547H127.046ZM142.348 14.8547V30H140.33L132.705 18.3186V30H130.698V14.8547H132.705L140.361 26.5673V14.8547H142.348ZM155.527 28.3669V30H147.507V28.3669H155.527ZM147.913 14.8547V30H145.905V14.8547H147.913ZM154.466 21.3663V22.9995H147.507V21.3663H154.466ZM155.423 14.8547V16.4982H147.507V14.8547H155.423ZM166.085 26.1721C166.085 25.8184 166.03 25.5063 165.919 25.2359C165.815 24.9585 165.627 24.7088 165.357 24.4869C165.093 24.265 164.726 24.0535 164.254 23.8524C163.79 23.6513 163.2 23.4467 162.486 23.2387C161.737 23.0168 161.061 22.7706 160.458 22.5002C159.854 22.2228 159.338 21.9072 158.908 21.5536C158.478 21.1999 158.148 20.7942 157.92 20.3365C157.691 19.8789 157.576 19.3553 157.576 18.7658C157.576 18.1764 157.698 17.632 157.94 17.1327C158.183 16.6334 158.53 16.2 158.981 15.8325C159.438 15.458 159.983 15.1667 160.614 14.9587C161.245 14.7507 161.949 14.6466 162.725 14.6466C163.863 14.6466 164.826 14.8651 165.617 15.302C166.415 15.7319 167.021 16.2971 167.437 16.9975C167.853 17.691 168.062 18.433 168.062 19.2235H166.064C166.064 18.6549 165.943 18.1521 165.7 17.7152C165.458 17.2714 165.09 16.9247 164.598 16.675C164.105 16.4185 163.481 16.2902 162.725 16.2902C162.011 16.2902 161.422 16.3977 160.957 16.6126C160.492 16.8276 160.146 17.1189 159.917 17.4864C159.695 17.8539 159.584 18.2735 159.584 18.745C159.584 19.064 159.65 19.3553 159.782 19.6188C159.92 19.8754 160.132 20.1146 160.416 20.3365C160.707 20.5585 161.075 20.763 161.519 20.9503C161.969 21.1375 162.507 21.3178 163.131 21.4912C163.991 21.7339 164.733 22.0043 165.357 22.3025C165.981 22.6007 166.494 22.937 166.896 23.3115C167.306 23.6791 167.607 24.0986 167.801 24.5702C168.003 25.0348 168.103 25.5618 168.103 26.1513C168.103 26.7684 167.978 27.3267 167.729 27.826C167.479 28.3253 167.122 28.7518 166.657 29.1054C166.193 29.4591 165.634 29.733 164.983 29.9272C164.338 30.1144 163.616 30.208 162.819 30.208C162.119 30.208 161.429 30.111 160.749 29.9168C160.076 29.7226 159.463 29.4314 158.908 29.043C158.36 28.6547 157.92 28.1762 157.587 27.6075C157.261 27.032 157.098 26.3662 157.098 25.6104H159.095C159.095 26.1305 159.196 26.5777 159.397 26.9522C159.598 27.3198 159.872 27.6249 160.218 27.8676C160.572 28.1103 160.971 28.2906 161.415 28.4085C161.865 28.5194 162.333 28.5749 162.819 28.5749C163.519 28.5749 164.112 28.4778 164.598 28.2837C165.083 28.0895 165.451 27.8121 165.7 27.4515C165.957 27.0909 166.085 26.6644 166.085 26.1721Z" fill="black"/>
</svg>
