<svg width="156" height="45" viewBox="0 0 156 45" fill="none" xmlns="http://www.w3.org/2000/svg">
  <path d="M10 30.5209V14.5476H17.3412C18.4964 14.5476 19.4691 14.7073 20.2595 15.0268C21.0651 15.3463 21.673 15.795 22.0834 16.3731C22.509 16.9512 22.7218 17.6282 22.7218 18.404C22.7218 19.3624 22.5014 20.1534 22.0606 20.7772C21.635 21.4009 21.0043 21.8192 20.1683 22.0322L20.0999 21.5986C20.7991 21.766 21.407 22.0398 21.9238 22.4201C22.4406 22.7852 22.8434 23.234 23.1322 23.7665C23.4209 24.2989 23.5653 24.9074 23.5653 25.592C23.5653 26.4287 23.4133 27.1589 23.1094 27.7826C22.8054 28.3911 22.3722 28.9007 21.8098 29.3115C21.2626 29.7222 20.6243 30.0265 19.8947 30.2242C19.1804 30.422 18.4052 30.5209 17.5692 30.5209H10ZM14.5598 26.6416H17.4324C17.7212 26.6416 17.9644 26.596 18.162 26.5047C18.3596 26.3982 18.5116 26.2461 18.618 26.0484C18.7244 25.8354 18.7776 25.5844 18.7776 25.2953C18.7776 25.0367 18.7168 24.8237 18.5952 24.6564C18.4888 24.4738 18.3292 24.3369 18.1164 24.2457C17.9036 24.1392 17.6376 24.0859 17.3184 24.0859H14.5598V26.6416ZM14.5598 20.8H16.4977C16.8473 20.8 17.1285 20.7543 17.3412 20.6631C17.5692 20.5718 17.7288 20.4425 17.82 20.2751C17.9264 20.0926 17.9796 19.872 17.9796 19.6134C17.9796 19.2635 17.858 18.9821 17.6148 18.7691C17.3868 18.5409 16.9993 18.4268 16.4521 18.4268H14.5598V20.8Z" fill="black"/>
  <path d="M34.4686 30.5209L29.5213 23.3557L23.1832 14.5476H29.0881L33.9215 21.6215L40.3735 30.5209H34.4686ZM34.2862 23.1047L30 21.3705L33.0412 17.3632C34.8882 14.9294 37.7675 13.5 40.8227 13.5L34.2862 23.1047Z" fill="black"/>
  <path d="M29.1793 21.8953L33.4655 23.6295L30.1511 27.9968C28.4761 30.2039 25.8663 31.5 23.0972 31.5H22.6428L29.1793 21.8953Z" fill="black"/>
  <path d="M62.3299 15.2267C61.199 14.1347 59.6984 13.5137 58.1109 13.5137C56.741 13.5137 55.3927 13.9633 54.327 14.8199C51.739 12.7642 47.955 13.1497 45.8672 15.6978C44.3231 17.582 44.1057 20.2372 45.3236 22.3356H48.2377L51.2605 17.1752L53.2396 23.085L55.4579 19.2094L57.3281 22.357L59.1113 22.3569C59.481 22.3569 59.7638 22.6353 59.7638 22.9993C59.7638 23.3632 59.481 23.6417 59.1113 23.6417H56.5886L55.4795 21.8002L52.9134 26.2325L50.9127 20.3014L48.9772 23.6203H46.324L54.327 31.5L62.3735 23.5775C64.7006 21.2649 64.6787 17.5178 62.33 15.2267L62.3299 15.2267Z" fill="#DE5F50"/>
  <path d="M79.473 21.3663V22.9995H71.2762V21.3663H79.473ZM71.5883 14.8547V30H69.5807V14.8547H71.5883ZM81.2205 14.8547V30H79.2233V14.8547H81.2205ZM94.4103 28.3669V30H86.3903V28.3669H94.4103ZM86.796 14.8547V30H84.7884V14.8547H86.796ZM93.3493 21.3663V22.9995H86.3903V21.3663H93.3493ZM94.3062 14.8547V16.4982H86.3903V14.8547H94.3062ZM102.503 16.1965L97.4893 30H95.4401L101.213 14.8547H102.534L102.503 16.1965ZM106.705 30L101.681 16.1965L101.65 14.8547H102.971L108.765 30H106.705ZM106.445 24.3933V26.0368H97.9365V24.3933H106.445ZM119.978 28.3669V30H112.406V28.3669H119.978ZM112.801 14.8547V30H110.793V14.8547H112.801ZM125.003 14.8547V30H123.026V14.8547H125.003ZM129.871 14.8547V16.4982H118.168V14.8547H129.871ZM142.01 21.3663V22.9995H133.813V21.3663H142.01ZM134.125 14.8547V30H132.118V14.8547H134.125ZM143.757 14.8547V30H141.76V14.8547H143.757Z" fill="black"/>
</svg>
