<svg width="56" height="56" viewBox="0 0 56 56" fill="none" xmlns="http://www.w3.org/2000/svg">
<path d="M22.9133 29.1667C22.96 28.77 23.0067 28.3967 23.0067 28C23.0067 27.6034 22.96 27.23 22.9133 26.8334L25.4333 24.9434C25.6667 24.78 25.6667 24.5 25.5733 24.1967L23.17 20.16C23.03 19.9034 22.7033 19.8334 22.4467 19.9034L19.46 21.07C18.83 20.6034 18.1533 20.23 17.43 19.9267L16.9633 16.8234C16.9633 16.5434 16.7067 16.3334 16.4033 16.3334H11.6667C11.3167 16.3334 11.06 16.5434 11.0133 16.8234L10.5 19.9034C9.82335 20.1834 9.14668 20.6034 8.51668 21L5.53001 19.8334C5.25001 19.7634 4.94668 19.8334 4.80668 20.1367L2.40334 24.1734C2.26334 24.5 2.33334 24.7567 2.56668 24.9434L5.08668 26.8334C5.04001 27.23 5.01668 27.6267 5.01668 28C5.01668 28.3967 5.06334 28.77 5.11001 29.1667L2.56668 31.08C2.33334 31.2434 2.33334 31.57 2.42668 31.8267L4.83001 35.8634C4.97001 36.1667 5.29668 36.1667 5.55335 36.1667L8.54001 35C9.17001 35.42 9.84668 35.7934 10.57 36.0967L11.0367 39.1767C11.06 39.4567 11.3167 39.6667 11.6667 39.6667H16.4267C16.73 39.6667 16.9867 39.4567 17.01 39.1767L17.5 36.0967C18.2 35.8167 18.8767 35.3967 19.5067 35L22.4933 36.1667C22.7733 36.2367 23.0767 36.1667 23.2167 35.8634L25.6667 31.8267C25.76 31.57 25.6667 31.2667 25.48 31.08L22.9133 29.1667ZM14 32.0834C11.6667 32.0834 9.80001 30.2634 9.80001 28C9.80001 25.7367 11.6667 23.9167 14 23.9167C16.3333 23.9167 18.2 25.7367 18.2 28C18.2 30.2634 16.3333 32.0834 14 32.0834ZM39.6667 2.33337H16.3333C15.0957 2.33337 13.9087 2.82504 13.0335 3.70021C12.1583 4.57538 11.6667 5.76236 11.6667 7.00004V14H16.3333V9.33337H39.6667V46.6667H16.3333V42H11.6667V49C11.6667 50.2377 12.1583 51.4247 13.0335 52.2999C13.9087 53.175 15.0957 53.6667 16.3333 53.6667H39.6667C40.9044 53.6667 42.0913 53.175 42.9665 52.2999C43.8417 51.4247 44.3333 50.2377 44.3333 49V7.00004C44.3333 5.76236 43.8417 4.57538 42.9665 3.70021C42.0913 2.82504 40.9044 2.33337 39.6667 2.33337Z" fill="white"/>
</svg>
