<svg width="56" height="56" viewBox="0 0 56 56" fill="none" xmlns="http://www.w3.org/2000/svg">
<path d="M56 18.2C55.0667 10.5 48.7667 4.66663 40.8333 4.66663C36.8667 4.66663 32.9 6.29996 30.1 9.09996C28.4667 10.7333 27.3 12.3666 26.6 14.4666L39.6667 23.1V23.3333H46.6667V28H39.6667V32.6666H46.6667V37.3333H39.6667V42H46.6667V46.6666H39.6667V51.3333H56V18.2ZM31.0333 16.3333C32.4333 12.1333 36.4 9.33329 40.8333 9.33329C45.2667 9.33329 49.2333 12.1333 50.6333 16.3333H31.0333ZM0 25.6666V51.3333H11.6667V35H23.3333V51.3333H35V25.6666L17.5 14L0 25.6666Z" fill="white"/>
</svg>
