<svg width="56" height="56" viewBox="0 0 56 56" fill="none" xmlns="http://www.w3.org/2000/svg">
<path d="M23.3333 49H32.6666V51.3334C32.6666 52.7334 31.7333 53.6667 30.3333 53.6667H25.6666C24.2666 53.6667 23.3333 52.7334 23.3333 51.3334V49ZM2.33331 30.3334H9.33331V25.6667H2.33331V30.3334ZM11.4333 8.16671L8.16665 11.4334L13.0666 16.3334L16.3333 13.0667L11.4333 8.16671ZM30.3333 2.33337H25.6666V9.33337H30.3333V2.33337ZM46.6666 25.6667V30.3334H53.6666V25.6667H46.6666ZM42 28C42 33.1334 39.2 37.8 35 40.1334V44.3334C35 45.7334 34.0666 46.6667 32.6666 46.6667H23.3333C21.9333 46.6667 21 45.7334 21 44.3334V40.1334C16.8 37.8 14 33.1334 14 28C14 20.3 20.3 14 28 14C35.7 14 42 20.3 42 28ZM18.6666 28H37.3333C37.3333 22.8434 33.1566 18.6667 28 18.6667C22.8433 18.6667 18.6666 22.8434 18.6666 28ZM44.5666 8.16671L39.6666 13.0667L42.9333 16.3334L47.8333 11.4334L44.5666 8.16671Z" fill="white"/>
</svg>
