<svg width="127" height="45" viewBox="0 0 127 45" fill="none" xmlns="http://www.w3.org/2000/svg">
<path d="M10 30.5209V14.5476H17.3412C18.4964 14.5476 19.4691 14.7073 20.2595 15.0268C21.0651 15.3463 21.673 15.795 22.0834 16.3731C22.509 16.9512 22.7218 17.6282 22.7218 18.404C22.7218 19.3624 22.5014 20.1534 22.0606 20.7772C21.635 21.4009 21.0043 21.8192 20.1683 22.0322L20.0999 21.5986C20.7991 21.766 21.407 22.0398 21.9238 22.4201C22.4406 22.7852 22.8434 23.234 23.1322 23.7665C23.4209 24.2989 23.5653 24.9074 23.5653 25.592C23.5653 26.4287 23.4133 27.1589 23.1094 27.7826C22.8054 28.3911 22.3722 28.9007 21.8098 29.3115C21.2626 29.7222 20.6243 30.0265 19.8947 30.2242C19.1804 30.422 18.4052 30.5209 17.5692 30.5209H10ZM14.5598 26.6416H17.4324C17.7212 26.6416 17.9644 26.596 18.162 26.5047C18.3596 26.3982 18.5116 26.2461 18.618 26.0484C18.7244 25.8354 18.7776 25.5844 18.7776 25.2953C18.7776 25.0367 18.7168 24.8237 18.5952 24.6564C18.4888 24.4738 18.3292 24.3369 18.1164 24.2457C17.9036 24.1392 17.6376 24.0859 17.3184 24.0859H14.5598V26.6416ZM14.5598 20.8H16.4977C16.8473 20.8 17.1285 20.7543 17.3412 20.6631C17.5692 20.5718 17.7288 20.4425 17.82 20.2751C17.9264 20.0926 17.9796 19.872 17.9796 19.6134C17.9796 19.2635 17.858 18.9821 17.6148 18.7691C17.3868 18.5409 16.9993 18.4268 16.4521 18.4268H14.5598V20.8Z" fill="black"/>
<path d="M34.4686 30.5209L29.5213 23.3557L23.1832 14.5476H29.0881L33.9215 21.6215L40.3735 30.5209H34.4686ZM34.2862 23.1047L30 21.3705L33.0412 17.3632C34.8882 14.9294 37.7675 13.5 40.8227 13.5L34.2862 23.1047Z" fill="black"/>
<path d="M29.1793 21.8953L33.4655 23.6295L30.1511 27.9968C28.4761 30.2039 25.8663 31.5 23.0972 31.5H22.6428L29.1793 21.8953Z" fill="black"/>
<path fill-rule="evenodd" clip-rule="evenodd" d="M54.6796 30.4999H46.1083C45.9948 30.4999 45.8855 30.4549 45.8052 30.3744C45.7247 30.2941 45.6797 30.1849 45.6797 30.0713V29.6428H55.1083V30.0713C55.1083 30.1849 55.0633 30.2941 54.9828 30.3744C54.9026 30.4549 54.7934 30.4999 54.6797 30.4999H54.6796Z" fill="#39AE67"/>
<path fill-rule="evenodd" clip-rule="evenodd" d="M52.756 21.9826C54.4617 22.271 55.7868 23.6793 55.9484 25.4249C56.1339 25.4879 56.3046 25.5925 56.4455 25.7338C56.6868 25.9748 56.8223 26.3018 56.8223 26.6429C56.8223 26.96 56.7052 27.2648 56.4948 27.5C56.7052 27.7353 56.8223 28.0401 56.8223 28.3572C56.8223 28.6983 56.6868 29.0253 56.4455 29.2661C56.3089 29.4033 56.1443 29.5062 55.965 29.5691V30.0714C55.965 30.2189 55.9398 30.3637 55.8914 30.5H60.7385C60.9631 30.5 61.1499 30.3264 61.1659 30.1018L61.9334 19.3573H52.5684L52.756 21.9826Z" fill="#39AE67"/>
<path fill-rule="evenodd" clip-rule="evenodd" d="M55.9655 28.3571C55.9655 28.2435 55.9206 28.1343 55.8399 28.0541C55.7599 27.9736 55.6505 27.9285 55.537 27.9285H45.2514C45.1377 27.9285 45.0285 27.9736 44.9483 28.0541C44.8678 28.1343 44.8228 28.2435 44.8228 28.3571C44.8228 28.4706 44.8678 28.58 44.9483 28.6601C45.0285 28.7407 45.1377 28.7856 45.2514 28.7856H55.537C55.6505 28.7856 55.7599 28.7407 55.8399 28.6601C55.9206 28.58 55.9655 28.4707 55.9655 28.3571Z" fill="#39AE67"/>
<path fill-rule="evenodd" clip-rule="evenodd" d="M55.9655 26.6428C55.9655 26.5293 55.9206 26.4199 55.8399 26.3397C55.7599 26.2592 55.6505 26.2141 55.537 26.2141H45.2514C45.1377 26.2141 45.0285 26.2592 44.9483 26.3397C44.8678 26.4199 44.8228 26.5293 44.8228 26.6428C44.8228 26.7563 44.8678 26.8656 44.9483 26.9458C45.0285 27.0263 45.1377 27.0714 45.2514 27.0714H55.537C55.6505 27.0714 55.7599 27.0263 55.8399 26.9458C55.9206 26.8656 55.9655 26.7563 55.9655 26.6428Z" fill="#39AE67"/>
<path fill-rule="evenodd" clip-rule="evenodd" d="M55.0777 25.3571C54.8702 23.9033 53.62 22.7856 52.1089 22.7856H48.6787C47.1675 22.7856 45.9174 23.9033 45.71 25.3571H55.0777Z" fill="#39AE67"/>
<path fill-rule="evenodd" clip-rule="evenodd" d="M52.1087 17.6428H62.3944C62.508 17.6428 62.6172 17.6879 62.6974 17.7684C62.7779 17.8486 62.823 17.9578 62.823 18.0714V18.4142C62.823 18.4369 62.8139 18.4589 62.7977 18.4747C62.7818 18.491 62.76 18.4999 62.7373 18.4999H51.7658C51.7432 18.4999 51.7212 18.491 51.7054 18.4747C51.6891 18.4589 51.6802 18.4369 51.6802 18.4142V18.0714C51.6802 17.9578 51.7251 17.8486 51.8057 17.7684C51.8858 17.6879 51.9951 17.6428 52.1086 17.6428H52.1087Z" fill="#39AE67"/>
<path fill-rule="evenodd" clip-rule="evenodd" d="M61.1083 16.3571V16.7857H53.394V16.3571C53.394 16.2436 53.4391 16.1343 53.5196 16.0541C53.5998 15.9736 53.7092 15.9285 53.8227 15.9285H60.6799C60.7934 15.9285 60.9027 15.9736 60.9828 16.0541C61.0634 16.1343 61.1084 16.2436 61.1084 16.3571H61.1083Z" fill="#39AE67"/>
<path fill-rule="evenodd" clip-rule="evenodd" d="M58.1168 15.0714H57.2427L57.6879 12.8445C57.7281 12.6441 57.9039 12.5 58.1084 12.5H61.0226C61.0453 12.5 61.0672 12.509 61.083 12.5253C61.0993 12.5412 61.1082 12.563 61.1082 12.5857V13.2714C61.1082 13.2941 61.0993 13.316 61.083 13.3318C61.0672 13.3482 61.0453 13.3571 61.0226 13.3571H58.8112C58.6067 13.3571 58.4311 13.5012 58.3908 13.7018L58.1168 15.0714Z" fill="#39AE67"/>
<path d="M78.2025 28.3669V30H70.1826V28.3669H78.2025ZM70.5883 14.8547V30H68.5807V14.8547H70.5883ZM77.1415 21.3663V22.9995H70.1826V21.3663H77.1415ZM78.0985 14.8547V16.4982H70.1826V14.8547H78.0985ZM86.2953 16.1965L81.2815 30H79.2323L85.0054 14.8547H86.3265L86.2953 16.1965ZM90.4977 30L85.4735 16.1965L85.4423 14.8547H86.7634L92.5573 30H90.4977ZM90.2377 24.3933V26.0368H81.7288V24.3933H90.2377ZM98.8297 14.8547V30H96.8533V14.8547H98.8297ZM103.698 14.8547V16.4982H91.9956V14.8547H103.698ZM113.85 26.1721C113.85 25.8184 113.795 25.5063 113.684 25.2359C113.58 24.9585 113.393 24.7088 113.122 24.4869C112.859 24.265 112.491 24.0535 112.019 23.8524C111.555 23.6513 110.965 23.4467 110.251 23.2387C109.502 23.0168 108.826 22.7706 108.223 22.5002C107.619 22.2228 107.103 21.9072 106.673 21.5536C106.243 21.1999 105.913 20.7942 105.685 20.3365C105.456 19.8789 105.341 19.3553 105.341 18.7658C105.341 18.1764 105.463 17.632 105.705 17.1327C105.948 16.6334 106.295 16.2 106.746 15.8325C107.203 15.458 107.748 15.1667 108.379 14.9587C109.01 14.7507 109.714 14.6466 110.49 14.6466C111.628 14.6466 112.592 14.8651 113.382 15.302C114.18 15.7319 114.786 16.2971 115.202 16.9975C115.619 17.691 115.827 18.433 115.827 19.2235H113.829C113.829 18.6549 113.708 18.1521 113.465 17.7152C113.223 17.2714 112.855 16.9247 112.363 16.675C111.87 16.4185 111.246 16.2902 110.49 16.2902C109.776 16.2902 109.187 16.3977 108.722 16.6126C108.257 16.8276 107.911 17.1189 107.682 17.4864C107.46 17.8539 107.349 18.2735 107.349 18.745C107.349 19.064 107.415 19.3553 107.547 19.6188C107.685 19.8754 107.897 20.1146 108.181 20.3365C108.472 20.5585 108.84 20.763 109.284 20.9503C109.734 21.1375 110.272 21.3178 110.896 21.4912C111.756 21.7339 112.498 22.0043 113.122 22.3025C113.746 22.6007 114.259 22.937 114.662 23.3115C115.071 23.6791 115.372 24.0986 115.567 24.5702C115.768 25.0348 115.868 25.5618 115.868 26.1513C115.868 26.7684 115.743 27.3267 115.494 27.826C115.244 28.3253 114.887 28.7518 114.422 29.1054C113.958 29.4591 113.399 29.733 112.748 29.9272C112.103 30.1144 111.381 30.208 110.584 30.208C109.884 30.208 109.194 30.111 108.514 29.9168C107.841 29.7226 107.228 29.4314 106.673 29.043C106.125 28.6547 105.685 28.1762 105.352 27.6075C105.026 27.032 104.863 26.3662 104.863 25.6104H106.86C106.86 26.1305 106.961 26.5777 107.162 26.9522C107.363 27.3198 107.637 27.6249 107.983 27.8676C108.337 28.1103 108.736 28.2906 109.18 28.4085C109.63 28.5194 110.099 28.5749 110.584 28.5749C111.284 28.5749 111.877 28.4778 112.363 28.2837C112.848 28.0895 113.216 27.8121 113.465 27.4515C113.722 27.0909 113.85 26.6644 113.85 26.1721Z" fill="black"/>
</svg>
