<svg width="164" height="45" viewBox="0 0 164 45" fill="none" xmlns="http://www.w3.org/2000/svg">
  <path d="M10 30.5209V14.5476H17.3412C18.4964 14.5476 19.4691 14.7073 20.2595 15.0268C21.0651 15.3463 21.673 15.795 22.0834 16.3731C22.509 16.9512 22.7218 17.6282 22.7218 18.404C22.7218 19.3624 22.5014 20.1534 22.0606 20.7772C21.635 21.4009 21.0043 21.8192 20.1683 22.0322L20.0999 21.5986C20.7991 21.766 21.407 22.0398 21.9238 22.4201C22.4406 22.7852 22.8434 23.234 23.1322 23.7665C23.4209 24.2989 23.5653 24.9074 23.5653 25.592C23.5653 26.4287 23.4133 27.1589 23.1094 27.7826C22.8054 28.3911 22.3722 28.9007 21.8098 29.3115C21.2626 29.7222 20.6243 30.0265 19.8947 30.2242C19.1804 30.422 18.4052 30.5209 17.5692 30.5209H10ZM14.5598 26.6416H17.4324C17.7212 26.6416 17.9644 26.596 18.162 26.5047C18.3596 26.3982 18.5116 26.2461 18.618 26.0484C18.7244 25.8354 18.7776 25.5844 18.7776 25.2953C18.7776 25.0367 18.7168 24.8237 18.5952 24.6564C18.4888 24.4738 18.3292 24.3369 18.1164 24.2457C17.9036 24.1392 17.6376 24.0859 17.3184 24.0859H14.5598V26.6416ZM14.5598 20.8H16.4977C16.8473 20.8 17.1285 20.7543 17.3412 20.6631C17.5692 20.5718 17.7288 20.4425 17.82 20.2751C17.9264 20.0926 17.9796 19.872 17.9796 19.6134C17.9796 19.2635 17.858 18.9821 17.6148 18.7691C17.3868 18.5409 16.9993 18.4268 16.4521 18.4268H14.5598V20.8Z" fill="black"/>
  <path d="M34.4686 30.5209L29.5213 23.3557L23.1832 14.5476H29.0881L33.9215 21.6215L40.3735 30.5209H34.4686ZM34.2862 23.1047L30 21.3705L33.0412 17.3632C34.8882 14.9294 37.7675 13.5 40.8227 13.5L34.2862 23.1047Z" fill="black"/>
  <path d="M29.1793 21.8953L33.4655 23.6295L30.1511 27.9968C28.4761 30.2039 25.8663 31.5 23.0972 31.5H22.6428L29.1793 21.8953Z" fill="black"/>
  <path d="M56.56 19.7625C55.8288 19.0311 54.8565 18.6285 53.8224 18.6285C52.7883 18.6285 51.8161 19.0311 51.0848 19.7625C51.0655 19.7817 51.0465 19.8012 51.0277 19.8207C51.0233 19.8255 51.0188 19.8302 51.0142 19.8348C49.5756 21.3495 49.5992 23.7519 51.0848 25.2377C51.8161 25.969 52.7882 26.3717 53.8224 26.3717C54.823 26.3717 55.7655 25.9947 56.4879 25.308C56.4924 25.3036 56.4969 25.2993 56.5016 25.295C56.5212 25.2761 56.5408 25.2571 56.5601 25.2377C57.2914 24.5064 57.6941 23.5343 57.6941 22.5C57.6939 21.4659 57.2913 20.4937 56.5599 19.7625L56.56 19.7625Z" fill="#662D91"/>
  <path d="M53.8228 13.5C48.8521 13.5 44.8228 17.5293 44.8228 22.5C44.8228 27.4707 48.8521 31.5 53.8228 31.5C58.7934 31.5 62.8228 27.4707 62.8228 22.5C62.8228 17.5293 58.7934 13.5 53.8228 13.5ZM58.1299 26.2229C58.3315 26.4245 58.3315 26.7513 58.1299 26.9529C58.0291 27.0537 57.8969 27.1041 57.7649 27.1041C57.6327 27.1041 57.5007 27.0537 57.3998 26.9529L56.8251 26.3782C55.9696 27.0433 54.9238 27.4037 53.8228 27.4037C52.6865 27.4037 51.6093 27.0198 50.739 26.3135L50.0996 26.9529C49.9988 27.0537 49.8668 27.1041 49.7346 27.1041C49.6024 27.1041 49.4704 27.0537 49.3696 26.9529C49.168 26.7513 49.168 26.4245 49.3696 26.2229L50.0092 25.5834C48.5803 23.8189 48.5589 21.2855 49.9447 19.4979L49.3696 18.9228C49.168 18.7212 49.168 18.3944 49.3696 18.1928C49.5712 17.9912 49.898 17.9912 50.0996 18.1928L50.6592 18.7523C51.5428 18.0038 52.6515 17.5959 53.8228 17.5959C54.959 17.5959 56.0362 17.9799 56.9065 18.6861L57.3998 18.1928C57.6014 17.9912 57.9282 17.9912 58.1298 18.1928C58.3314 18.3944 58.3314 18.7212 58.1298 18.9228L57.6365 19.4161C58.3429 20.2863 58.7267 21.3636 58.7267 22.4999C58.7267 23.6711 58.3188 24.7797 57.5703 25.6635L58.1299 26.2229Z" fill="#662D91"/>
  <path d="M79.7732 22.4586V28.0028C79.586 28.2802 79.2878 28.5923 78.8787 28.939C78.4695 29.2788 77.9044 29.577 77.1831 29.8336C76.4689 30.0832 75.5466 30.208 74.4162 30.208C73.4939 30.208 72.6444 30.0485 71.8677 29.7295C71.098 29.4036 70.4288 28.9321 69.8601 28.3149C69.2984 27.6908 68.8615 26.9349 68.5495 26.0472C68.2444 25.1527 68.0918 24.1402 68.0918 23.0099V21.8344C68.0918 20.7041 68.2236 19.6951 68.4871 18.8074C68.7575 17.9198 69.1528 17.1674 69.6729 16.5502C70.193 15.9261 70.831 15.4545 71.5869 15.1355C72.3427 14.8096 73.2096 14.6466 74.1874 14.6466C75.3455 14.6466 76.3128 14.8478 77.0895 15.25C77.8731 15.6452 78.4834 16.1931 78.9203 16.8935C79.3641 17.5939 79.6484 18.3914 79.7732 19.2859H77.7657C77.6755 18.7381 77.4952 18.2388 77.2248 17.7881C76.9612 17.3373 76.5833 16.9767 76.0909 16.7062C75.5986 16.4289 74.9641 16.2902 74.1874 16.2902C73.487 16.2902 72.8802 16.4185 72.367 16.675C71.8539 16.9316 71.4308 17.2992 71.098 17.7777C70.7651 18.2561 70.5155 18.8352 70.349 19.5148C70.1895 20.1944 70.1098 20.9607 70.1098 21.8136V23.0099C70.1098 23.8836 70.2103 24.6638 70.4114 25.3503C70.6195 26.0368 70.9142 26.6228 71.2956 27.1082C71.677 27.5867 72.1312 27.9508 72.6583 28.2005C73.1922 28.4501 73.7817 28.5749 74.4266 28.5749C75.1409 28.5749 75.7199 28.516 76.1637 28.3981C76.6076 28.2733 76.9543 28.1276 77.2039 27.9612C77.4536 27.7878 77.6443 27.6249 77.7761 27.4723V24.0813H74.2706V22.4586H79.7732ZM92.7237 28.3669V30H84.7038V28.3669H92.7237ZM85.1095 14.8547V30H83.1019V14.8547H85.1095ZM91.6627 21.3663V22.9995H84.7038V21.3663H91.6627ZM92.6197 14.8547V16.4982H84.7038V14.8547H92.6197ZM106.86 14.8547V30H104.842L97.2174 18.3186V30H95.2098V14.8547H97.2174L104.873 26.5673V14.8547H106.86ZM120.039 28.3669V30H112.019V28.3669H120.039ZM112.425 14.8547V30H110.418V14.8547H112.425ZM118.978 21.3663V22.9995H112.019V21.3663H118.978ZM119.935 14.8547V16.4982H112.019V14.8547H119.935ZM122.525 14.8547H127.539C128.677 14.8547 129.637 15.0281 130.421 15.3748C131.211 15.7215 131.811 16.2347 132.22 16.9143C132.636 17.5869 132.844 18.4156 132.844 19.4004C132.844 20.0938 132.702 20.7284 132.418 21.3039C132.14 21.8726 131.738 22.358 131.211 22.7602C130.691 23.1555 130.067 23.4502 129.339 23.6444L128.777 23.8628H124.065L124.044 22.2297H127.602C128.323 22.2297 128.923 22.1049 129.401 21.8552C129.88 21.5987 130.24 21.2554 130.483 20.8254C130.726 20.3955 130.847 19.9205 130.847 19.4004C130.847 18.8179 130.733 18.3082 130.504 17.8713C130.275 17.4344 129.914 17.0981 129.422 16.8623C128.937 16.6196 128.309 16.4982 127.539 16.4982H124.533V30H122.525V14.8547ZM131.378 30L127.695 23.1347L129.786 23.1243L133.52 29.8752V30H131.378ZM137.806 14.8547V30H135.798V14.8547H137.806ZM150.6 25.1839H152.598C152.494 26.1409 152.22 26.9973 151.776 27.7532C151.332 28.509 150.704 29.1089 149.893 29.5527C149.082 29.9896 148.069 30.208 146.856 30.208C145.968 30.208 145.16 30.0416 144.432 29.7087C143.711 29.3759 143.09 28.9043 142.57 28.2941C142.05 27.6769 141.648 26.9383 141.363 26.0784C141.086 25.2116 140.947 24.2477 140.947 23.1867V21.6784C140.947 20.6174 141.086 19.6569 141.363 18.797C141.648 17.9302 142.053 17.1882 142.581 16.571C143.114 15.9538 143.756 15.4788 144.505 15.1459C145.254 14.8131 146.096 14.6466 147.033 14.6466C148.177 14.6466 149.144 14.8616 149.935 15.2916C150.725 15.7215 151.339 16.3179 151.776 17.0807C152.22 17.8366 152.494 18.7138 152.598 19.7124H150.6C150.503 19.0051 150.323 18.3983 150.06 17.8921C149.796 17.3789 149.422 16.9836 148.936 16.7062C148.451 16.4289 147.816 16.2902 147.033 16.2902C146.36 16.2902 145.767 16.4185 145.254 16.675C144.748 16.9316 144.321 17.2957 143.974 17.7672C143.635 18.2388 143.378 18.804 143.205 19.4628C143.031 20.1216 142.945 20.8532 142.945 21.6576V23.1867C142.945 23.9287 143.021 24.6256 143.173 25.2775C143.333 25.9294 143.572 26.5015 143.891 26.9938C144.21 27.4862 144.616 27.8745 145.108 28.1588C145.601 28.4362 146.183 28.5749 146.856 28.5749C147.709 28.5749 148.388 28.4397 148.895 28.1692C149.401 27.8988 149.782 27.5105 150.039 27.0042C150.302 26.498 150.49 25.8912 150.6 25.1839Z" fill="black"/>
</svg>
